<mxfile host="65bd71144e">
    <diagram id="kPDWQAnOfOS1ivKIWuch" name="PÃ¡gina-1">
        <mxGraphModel dx="1422" dy="2805" grid="1" gridSize="10" guides="1" tooltips="1" connect="1" arrows="1" fold="1" page="1" pageScale="1" pageWidth="827" pageHeight="1169" math="0" shadow="0">
            <root>
                <mxCell id="0"/>
                <mxCell id="1" parent="0"/>
                <UserObject label="" mermaidData="{&#xa;  &quot;data&quot;: &quot;erDiagram\n\nCOVID_DATA {\n    string hash\n    date fecha\n    int casos_positivos\n    int fallecidos\n    int hospitalizados\n    int total_resultados\n    int incremento_positivos\n    int incremento_fallecidos\n    string ultima_modificacion\n    int anio_auditoria\n    int mes_auditoria\n    int dia_auditoria\n    datetime fecha_completa_auditoria\n    float tasa_positividad\n    float tasa_mortalidad\n}\n\nDELITOS_INFORMATICOS {\n    string criminalidad\n    bool es_archivo\n    bool es_preclusion\n    string estado\n    string etapa_caso\n    string ley\n    string pais_hecho\n    string departamento_hecho\n    string municipio\n    string seccional\n    int a_o_hechos\n    int a_o_entrada\n    int a_o_denuncia\n    string delito\n    string grupo_delito\n    bool consumado\n    int total_procesos\n}\n\nINVENTARIO_BOVINOS {\n    int anio\n    string subregion\n    string rubro\n    int bovinos_cria_macho\n    int bovinos_novillo_levante\n    int bovinos_novillo_ceba\n    int bovinos_toros\n    int total_machos\n    int bovinos_cria_hembra\n    int bovinos_novilla_levante\n    int bovinos_novilla_vientre\n    int bovinos_vaca\n    int total_hembras\n    int total_bovinos\n    float total_pastos\n    float pasto_corte\n    float pasto_natural\n    float pasto_mejorado\n}\n\nDATOS_ENRIQUECIDOS {\n    string hash\n    date fecha\n    int casos_positivos\n    int fallecidos\n    int hospitalizados\n    int total_resultados\n    int incremento_positivos\n    int incremento_fallecidos\n    string ultima_modificacion\n    int anio_auditoria\n    int mes_auditoria\n    int dia_auditoria\n    datetime fecha_completa_auditoria\n    float tasa_positividad\n    float tasa_mortalidad\n    string criminalidad\n    bool es_archivo\n    bool es_preclusion\n    string estado\n    string etapa_caso\n    string ley\n    string pais_hecho\n    string departamento_hecho\n    string municipio\n    string seccional\n    int a_o_hechos\n    int a_o_entrada\n    int a_o_denuncia\n    string delito\n    string grupo_delito\n    bool consumado\n    int total_procesos\n    int anio\n    string subregion\n    string rubro\n    int bovinos_cria_macho\n    int bovinos_novillo_levante\n    int bovinos_novillo_ceba\n    int bovinos_toros\n    int total_machos\n    int bovinos_cria_hembra\n    int bovinos_novilla_levante\n    int bovinos_novilla_vientre\n    int bovinos_vaca\n    int total_hembras\n    int total_bovinos\n    float total_pastos\n    float pasto_corte\n    float pasto_natural\n    float pasto_mejorado\n}\n\nCOVID_DATA ||--o{ DATOS_ENRIQUECIDOS : Incluye\nDELITOS_INFORMATICOS ||--o{ DATOS_ENRIQUECIDOS : Incluye\nINVENTARIO_BOVINOS ||--o{ DATOS_ENRIQUECIDOS : Incluye\n&quot;&#xa;}" id="2">
                    <mxCell style="shape=image;noLabel=1;verticalAlign=top;imageAspect=1;image=data:image/svg+xml,PHN2ZyBhcmlhLXJvbGVkZXNjcmlwdGlvbj0iZXIiIHJvbGU9ImdyYXBoaWNzLWRvY3VtZW50IGRvY3VtZW50IiB2aWV3Qm94PSIwIDAgNzM3LjIwMTg0MzI2MTcxODggMTY4NCIgc3R5bGU9Im1heC13aWR0aDogNzM3LjIwMTg0MzI2MTcxODhweDsiIHhtbG5zPSJodHRwOi8vd3d3LnczLm9yZy8yMDAwL3N2ZyIgd2lkdGg9IjEwMCUiIGlkPSJnZU1lcm1haWRPdXRwdXQtMTc0MzY1MTgwMTgxOSI+PHN0eWxlPiNnZU1lcm1haWRPdXRwdXQtMTc0MzY1MTgwMTgxOXtmb250LWZhbWlseToidHJlYnVjaGV0IG1zIix2ZXJkYW5hLGFyaWFsLHNhbnMtc2VyaWY7Zm9udC1zaXplOjE2cHg7ZmlsbDojMDAwMDAwO30jZ2VNZXJtYWlkT3V0cHV0LTE3NDM2NTE4MDE4MTkgLmVycm9yLWljb257ZmlsbDojNTUyMjIyO30jZ2VNZXJtYWlkT3V0cHV0LTE3NDM2NTE4MDE4MTkgLmVycm9yLXRleHR7ZmlsbDojNTUyMjIyO3N0cm9rZTojNTUyMjIyO30jZ2VNZXJtYWlkT3V0cHV0LTE3NDM2NTE4MDE4MTkgLmVkZ2UtdGhpY2tuZXNzLW5vcm1hbHtzdHJva2Utd2lkdGg6MXB4O30jZ2VNZXJtYWlkT3V0cHV0LTE3NDM2NTE4MDE4MTkgLmVkZ2UtdGhpY2tuZXNzLXRoaWNre3N0cm9rZS13aWR0aDozLjVweDt9I2dlTWVybWFpZE91dHB1dC0xNzQzNjUxODAxODE5IC5lZGdlLXBhdHRlcm4tc29saWR7c3Ryb2tlLWRhc2hhcnJheTowO30jZ2VNZXJtYWlkT3V0cHV0LTE3NDM2NTE4MDE4MTkgLmVkZ2UtdGhpY2tuZXNzLWludmlzaWJsZXtzdHJva2Utd2lkdGg6MDtmaWxsOm5vbmU7fSNnZU1lcm1haWRPdXRwdXQtMTc0MzY1MTgwMTgxOSAuZWRnZS1wYXR0ZXJuLWRhc2hlZHtzdHJva2UtZGFzaGFycmF5OjM7fSNnZU1lcm1haWRPdXRwdXQtMTc0MzY1MTgwMTgxOSAuZWRnZS1wYXR0ZXJuLWRvdHRlZHtzdHJva2UtZGFzaGFycmF5OjI7fSNnZU1lcm1haWRPdXRwdXQtMTc0MzY1MTgwMTgxOSAubWFya2Vye2ZpbGw6IzY2NjtzdHJva2U6IzY2Njt9I2dlTWVybWFpZE91dHB1dC0xNzQzNjUxODAxODE5IC5tYXJrZXIuY3Jvc3N7c3Ryb2tlOiM2NjY7fSNnZU1lcm1haWRPdXRwdXQtMTc0MzY1MTgwMTgxOSBzdmd7Zm9udC1mYW1pbHk6InRyZWJ1Y2hldCBtcyIsdmVyZGFuYSxhcmlhbCxzYW5zLXNlcmlmO2ZvbnQtc2l6ZToxNnB4O30jZ2VNZXJtYWlkT3V0cHV0LTE3NDM2NTE4MDE4MTkgcHttYXJnaW46MDt9I2dlTWVybWFpZE91dHB1dC0xNzQzNjUxODAxODE5IC5lbnRpdHlCb3h7ZmlsbDojZWVlO3N0cm9rZTojOTk5O30jZ2VNZXJtYWlkT3V0cHV0LTE3NDM2NTE4MDE4MTkgLmF0dHJpYnV0ZUJveE9kZHtmaWxsOiNmZmZmZmY7c3Ryb2tlOiM5OTk7fSNnZU1lcm1haWRPdXRwdXQtMTc0MzY1MTgwMTgxOSAuYXR0cmlidXRlQm94RXZlbntmaWxsOiNmMmYyZjI7c3Ryb2tlOiM5OTk7fSNnZU1lcm1haWRPdXRwdXQtMTc0MzY1MTgwMTgxOSAucmVsYXRpb25zaGlwTGFiZWxCb3h7ZmlsbDpoc2woLTE2MCwgMCUsIDkzLjMzMzMzMzMzMzMlKTtvcGFjaXR5OjAuNztiYWNrZ3JvdW5kLWNvbG9yOmhzbCgtMTYwLCAwJSwgOTMuMzMzMzMzMzMzMyUpO30jZ2VNZXJtYWlkT3V0cHV0LTE3NDM2NTE4MDE4MTkgLnJlbGF0aW9uc2hpcExhYmVsQm94IHJlY3R7b3BhY2l0eTowLjU7fSNnZU1lcm1haWRPdXRwdXQtMTc0MzY1MTgwMTgxOSAucmVsYXRpb25zaGlwTGluZXtzdHJva2U6IzY2Njt9I2dlTWVybWFpZE91dHB1dC0xNzQzNjUxODAxODE5IC5lbnRpdHlUaXRsZVRleHR7dGV4dC1hbmNob3I6bWlkZGxlO2ZvbnQtc2l6ZToxOHB4O2ZpbGw6IzAwMDAwMDt9I2dlTWVybWFpZE91dHB1dC0xNzQzNjUxODAxODE5ICNNRF9QQVJFTlRfU1RBUlR7ZmlsbDojZjVmNWY1IWltcG9ydGFudDtzdHJva2U6IzY2NiFpbXBvcnRhbnQ7c3Ryb2tlLXdpZHRoOjE7fSNnZU1lcm1haWRPdXRwdXQtMTc0MzY1MTgwMTgxOSAjTURfUEFSRU5UX0VORHtmaWxsOiNmNWY1ZjUhaW1wb3J0YW50O3N0cm9rZTojNjY2IWltcG9ydGFudDtzdHJva2Utd2lkdGg6MTt9I2dlTWVybWFpZE91dHB1dC0xNzQzNjUxODAxODE5IDpyb290ey0tbWVybWFpZC1mb250LWZhbWlseToidHJlYnVjaGV0IG1zIix2ZXJkYW5hLGFyaWFsLHNhbnMtc2VyaWY7fTwvc3R5bGU+PGc+PC9nPjxkZWZzPjxtYXJrZXIgb3JpZW50PSJhdXRvIiBtYXJrZXJIZWlnaHQ9IjI0MCIgbWFya2VyV2lkdGg9IjE5MCIgcmVmWT0iNyIgcmVmWD0iMCIgaWQ9Ik1EX1BBUkVOVF9TVEFSVCI+PHBhdGggZD0iTSAxOCw3IEw5LDEzIEwxLDcgTDksMSBaIj48L3BhdGg+PC9tYXJrZXI+PC9kZWZzPjxkZWZzPjxtYXJrZXIgb3JpZW50PSJhdXRvIiBtYXJrZXJIZWlnaHQ9IjI4IiBtYXJrZXJXaWR0aD0iMjAiIHJlZlk9IjciIHJlZlg9IjE5IiBpZD0iTURfUEFSRU5UX0VORCI+PHBhdGggZD0iTSAxOCw3IEw5LDEzIEwxLDcgTDksMSBaIj48L3BhdGg+PC9tYXJrZXI+PC9kZWZzPjxkZWZzPjxtYXJrZXIgb3JpZW50PSJhdXRvIiBtYXJrZXJIZWlnaHQ9IjE4IiBtYXJrZXJXaWR0aD0iMTgiIHJlZlk9IjkiIHJlZlg9IjAiIGlkPSJPTkxZX09ORV9TVEFSVCI+PHBhdGggZD0iTTksMCBMOSwxOCBNMTUsMCBMMTUsMTgiIGZpbGw9Im5vbmUiIHN0cm9rZT0iZ3JleSI+PC9wYXRoPjwvbWFya2VyPjwvZGVmcz48ZGVmcz48bWFya2VyIG9yaWVudD0iYXV0byIgbWFya2VySGVpZ2h0PSIxOCIgbWFya2VyV2lkdGg9IjE4IiByZWZZPSI5IiByZWZYPSIxOCIgaWQ9Ik9OTFlfT05FX0VORCI+PHBhdGggZD0iTTMsMCBMMywxOCBNOSwwIEw5LDE4IiBmaWxsPSJub25lIiBzdHJva2U9ImdyZXkiPjwvcGF0aD48L21hcmtlcj48L2RlZnM+PGRlZnM+PG1hcmtlciBvcmllbnQ9ImF1dG8iIG1hcmtlckhlaWdodD0iMTgiIG1hcmtlcldpZHRoPSIzMCIgcmVmWT0iOSIgcmVmWD0iMCIgaWQ9IlpFUk9fT1JfT05FX1NUQVJUIj48Y2lyY2xlIHI9IjYiIGN5PSI5IiBjeD0iMjEiIGZpbGw9IndoaXRlIiBzdHJva2U9ImdyZXkiPjwvY2lyY2xlPjxwYXRoIGQ9Ik05LDAgTDksMTgiIGZpbGw9Im5vbmUiIHN0cm9rZT0iZ3JleSI+PC9wYXRoPjwvbWFya2VyPjwvZGVmcz48ZGVmcz48bWFya2VyIG9yaWVudD0iYXV0byIgbWFya2VySGVpZ2h0PSIxOCIgbWFya2VyV2lkdGg9IjMwIiByZWZZPSI5IiByZWZYPSIzMCIgaWQ9IlpFUk9fT1JfT05FX0VORCI+PGNpcmNsZSByPSI2IiBjeT0iOSIgY3g9IjkiIGZpbGw9IndoaXRlIiBzdHJva2U9ImdyZXkiPjwvY2lyY2xlPjxwYXRoIGQ9Ik0yMSwwIEwyMSwxOCIgZmlsbD0ibm9uZSIgc3Ryb2tlPSJncmV5Ij48L3BhdGg+PC9tYXJrZXI+PC9kZWZzPjxkZWZzPjxtYXJrZXIgb3JpZW50PSJhdXRvIiBtYXJrZXJIZWlnaHQ9IjM2IiBtYXJrZXJXaWR0aD0iNDUiIHJlZlk9IjE4IiByZWZYPSIxOCIgaWQ9Ik9ORV9PUl9NT1JFX1NUQVJUIj48cGF0aCBkPSJNMCwxOCBRIDE4LDAgMzYsMTggUSAxOCwzNiAwLDE4IE00Miw5IEw0MiwyNyIgZmlsbD0ibm9uZSIgc3Ryb2tlPSJncmV5Ij48L3BhdGg+PC9tYXJrZXI+PC9kZWZzPjxkZWZzPjxtYXJrZXIgb3JpZW50PSJhdXRvIiBtYXJrZXJIZWlnaHQ9IjM2IiBtYXJrZXJXaWR0aD0iNDUiIHJlZlk9IjE4IiByZWZYPSIyNyIgaWQ9Ik9ORV9PUl9NT1JFX0VORCI+PHBhdGggZD0iTTMsOSBMMywyNyBNOSwxOCBRMjcsMCA0NSwxOCBRMjcsMzYgOSwxOCIgZmlsbD0ibm9uZSIgc3Ryb2tlPSJncmV5Ij48L3BhdGg+PC9tYXJrZXI+PC9kZWZzPjxkZWZzPjxtYXJrZXIgb3JpZW50PSJhdXRvIiBtYXJrZXJIZWlnaHQ9IjM2IiBtYXJrZXJXaWR0aD0iNTciIHJlZlk9IjE4IiByZWZYPSIxOCIgaWQ9IlpFUk9fT1JfTU9SRV9TVEFSVCI+PGNpcmNsZSByPSI2IiBjeT0iMTgiIGN4PSI0OCIgZmlsbD0id2hpdGUiIHN0cm9rZT0iZ3JleSI+PC9jaXJjbGU+PHBhdGggZD0iTTAsMTggUTE4LDAgMzYsMTggUTE4LDM2IDAsMTgiIGZpbGw9Im5vbmUiIHN0cm9rZT0iZ3JleSI+PC9wYXRoPjwvbWFya2VyPjwvZGVmcz48ZGVmcz48bWFya2VyIG9yaWVudD0iYXV0byIgbWFya2VySGVpZ2h0PSIzNiIgbWFya2VyV2lkdGg9IjU3IiByZWZZPSIxOCIgcmVmWD0iMzkiIGlkPSJaRVJPX09SX01PUkVfRU5EIj48Y2lyY2xlIHI9IjYiIGN5PSIxOCIgY3g9IjkiIGZpbGw9IndoaXRlIiBzdHJva2U9ImdyZXkiPjwvY2lyY2xlPjxwYXRoIGQ9Ik0yMSwxOCBRMzksMCA1NywxOCBRMzksMzYgMjEsMTgiIGZpbGw9Im5vbmUiIHN0cm9rZT0iZ3JleSI+PC9wYXRoPjwvbWFya2VyPjwvZGVmcz48cGF0aCBzdHlsZT0ic3Ryb2tlOiBncmV5OyBmaWxsOiBub25lOyIgbWFya2VyLXN0YXJ0PSJ1cmwoI09OTFlfT05FX1NUQVJUKSIgbWFya2VyLWVuZD0idXJsKCNaRVJPX09SX01PUkVfRU5EKSIgZD0iTTExMS4zMjIsNDA3TDExMS4zMjIsNDIwLjgzM0MxMTEuMzIyLDQzNC42NjcsMTExLjMyMiw0NjIuMzMzLDE0MS4xNTcsNTQzLjcxQzE3MC45OTIsNjI1LjA4NiwyMzAuNjYyLDc2MC4xNzIsMjYwLjQ5OCw4MjcuNzE1TDI5MC4zMzMsODk1LjI1OCIgY2xhc3M9ImVyIHJlbGF0aW9uc2hpcExpbmUiPjwvcGF0aD48cGF0aCBzdHlsZT0ic3Ryb2tlOiBncmV5OyBmaWxsOiBub25lOyIgbWFya2VyLXN0YXJ0PSJ1cmwoI09OTFlfT05FX1NUQVJUKSIgbWFya2VyLWVuZD0idXJsKCNaRVJPX09SX01PUkVfRU5EKSIgZD0iTTM4MS42NTUsNDI5TDM4MS42NTUsNDM5LjE2N0MzODEuNjU1LDQ0OS4zMzMsMzgxLjY1NSw0NjkuNjY3LDM4MS42NTUsNDg4LjE2N0MzODEuNjU1LDUwNi42NjcsMzgxLjY1NSw1MjMuMzMzLDM4MS42NTUsNTMxLjY2N0wzODEuNjU1LDU0MCIgY2xhc3M9ImVyIHJlbGF0aW9uc2hpcExpbmUiPjwvcGF0aD48cGF0aCBzdHlsZT0ic3Ryb2tlOiBncmV5OyBmaWxsOiBub25lOyIgbWFya2VyLXN0YXJ0PSJ1cmwoI09OTFlfT05FX1NUQVJUKSIgbWFya2VyLWVuZD0idXJsKCNaRVJPX09SX01PUkVfRU5EKSIgZD0iTTYzOC45MzQsNDQwTDYzOC45MzQsNDQ4LjMzM0M2MzguOTM0LDQ1Ni42NjcsNjM4LjkzNCw0NzMuMzMzLDYxMS4yNzQsNTQ3LjQ2MUM1ODMuNjE1LDYyMS41OSw1MjguMjk2LDc1My4xNzksNTAwLjYzNiw4MTguOTc0TDQ3Mi45NzcsODg0Ljc2OSIgY2xhc3M9ImVyIHJlbGF0aW9uc2hpcExpbmUiPjwvcGF0aD48ZyB0cmFuc2Zvcm09InRyYW5zbGF0ZSgyMCw1MyApIiBpZD0iZW50aXR5LUNPVklEREFUQS0xZThmM2ZiNS02ODAwLTUwZTYtODY2ZS1mNDU3N2FkYzgxOWEiPjxyZWN0IGhlaWdodD0iMzU0IiB3aWR0aD0iMTgyLjY0Mzk4MTkzMzU5Mzc1IiB5PSIwIiB4PSIwIiBjbGFzcz0iZXIgZW50aXR5Qm94Ij48L3JlY3Q+PHRleHQgc3R5bGU9ImRvbWluYW50LWJhc2VsaW5lOiBtaWRkbGU7IHRleHQtYW5jaG9yOiBtaWRkbGU7IGZvbnQtc2l6ZTogMTJweDsiIHRyYW5zZm9ybT0idHJhbnNsYXRlKDkxLjMyMTk5MDk2Njc5Njg4LDEyKSIgeT0iMCIgeD0iMCIgaWQ9InRleHQtZW50aXR5LUNPVklEREFUQS0xZThmM2ZiNS02ODAwLTUwZTYtODY2ZS1mNDU3N2FkYzgxOWEiIGNsYXNzPSJlciBlbnRpdHlMYWJlbCI+Q09WSURfREFUQTwvdGV4dD48cmVjdCBoZWlnaHQ9IjIyIiB3aWR0aD0iNTIuMDY4NDk2NzA0MTAxNTYiIHk9IjI0IiB4PSIwIiBjbGFzcz0iZXIgYXR0cmlidXRlQm94T2RkIj48L3JlY3Q+PHRleHQgc3R5bGU9ImRvbWluYW50LWJhc2VsaW5lOiBtaWRkbGU7IGZvbnQtc2l6ZTogMTAuMnB4OyIgdHJhbnNmb3JtPSJ0cmFuc2xhdGUoNSwzNSkiIHk9IjAiIHg9IjAiIGlkPSJ0ZXh0LWVudGl0eS1DT1ZJRERBVEEtMWU4ZjNmYjUtNjgwMC01MGU2LTg2NmUtZjQ1NzdhZGM4MTlhLWF0dHItMS10eXBlIiBjbGFzcz0iZXIgZW50aXR5TGFiZWwiPnN0cmluZzwvdGV4dD48cmVjdCBoZWlnaHQ9IjIyIiB3aWR0aD0iMTMwLjU3NTQ4NTIyOTQ5MjIiIHk9IjI0IiB4PSI1Mi4wNjg0OTY3MDQxMDE1NiIgY2xhc3M9ImVyIGF0dHJpYnV0ZUJveE9kZCI+PC9yZWN0Pjx0ZXh0IHN0eWxlPSJkb21pbmFudC1iYXNlbGluZTogbWlkZGxlOyBmb250LXNpemU6IDEwLjJweDsiIHRyYW5zZm9ybT0idHJhbnNsYXRlKDU3LjA2ODQ5NjcwNDEwMTU2LDM1KSIgeT0iMCIgeD0iMCIgaWQ9InRleHQtZW50aXR5LUNPVklEREFUQS0xZThmM2ZiNS02ODAwLTUwZTYtODY2ZS1mNDU3N2FkYzgxOWEtYXR0ci0xLW5hbWUiIGNsYXNzPSJlciBlbnRpdHlMYWJlbCI+aGFzaDwvdGV4dD48cmVjdCBoZWlnaHQ9IjIyIiB3aWR0aD0iNTIuMDY4NDk2NzA0MTAxNTYiIHk9IjQ2IiB4PSIwIiBjbGFzcz0iZXIgYXR0cmlidXRlQm94RXZlbiI+PC9yZWN0Pjx0ZXh0IHN0eWxlPSJkb21pbmFudC1iYXNlbGluZTogbWlkZGxlOyBmb250LXNpemU6IDEwLjJweDsiIHRyYW5zZm9ybT0idHJhbnNsYXRlKDUsNTcpIiB5PSIwIiB4PSIwIiBpZD0idGV4dC1lbnRpdHktQ09WSUREQVRBLTFlOGYzZmI1LTY4MDAtNTBlNi04NjZlLWY0NTc3YWRjODE5YS1hdHRyLTItdHlwZSIgY2xhc3M9ImVyIGVudGl0eUxhYmVsIj5kYXRlPC90ZXh0PjxyZWN0IGhlaWdodD0iMjIiIHdpZHRoPSIxMzAuNTc1NDg1MjI5NDkyMiIgeT0iNDYiIHg9IjUyLjA2ODQ5NjcwNDEwMTU2IiBjbGFzcz0iZXIgYXR0cmlidXRlQm94RXZlbiI+PC9yZWN0Pjx0ZXh0IHN0eWxlPSJkb21pbmFudC1iYXNlbGluZTogbWlkZGxlOyBmb250LXNpemU6IDEwLjJweDsiIHRyYW5zZm9ybT0idHJhbnNsYXRlKDU3LjA2ODQ5NjcwNDEwMTU2LDU3KSIgeT0iMCIgeD0iMCIgaWQ9InRleHQtZW50aXR5LUNPVklEREFUQS0xZThmM2ZiNS02ODAwLTUwZTYtODY2ZS1mNDU3N2FkYzgxOWEtYXR0ci0yLW5hbWUiIGNsYXNzPSJlciBlbnRpdHlMYWJlbCI+ZmVjaGE8L3RleHQ+PHJlY3QgaGVpZ2h0PSIyMiIgd2lkdGg9IjUyLjA2ODQ5NjcwNDEwMTU2IiB5PSI2OCIgeD0iMCIgY2xhc3M9ImVyIGF0dHJpYnV0ZUJveE9kZCI+PC9yZWN0Pjx0ZXh0IHN0eWxlPSJkb21pbmFudC1iYXNlbGluZTogbWlkZGxlOyBmb250LXNpemU6IDEwLjJweDsiIHRyYW5zZm9ybT0idHJhbnNsYXRlKDUsNzkpIiB5PSIwIiB4PSIwIiBpZD0idGV4dC1lbnRpdHktQ09WSUREQVRBLTFlOGYzZmI1LTY4MDAtNTBlNi04NjZlLWY0NTc3YWRjODE5YS1hdHRyLTMtdHlwZSIgY2xhc3M9ImVyIGVudGl0eUxhYmVsIj5pbnQ8L3RleHQ+PHJlY3QgaGVpZ2h0PSIyMiIgd2lkdGg9IjEzMC41NzU0ODUyMjk0OTIyIiB5PSI2OCIgeD0iNTIuMDY4NDk2NzA0MTAxNTYiIGNsYXNzPSJlciBhdHRyaWJ1dGVCb3hPZGQiPjwvcmVjdD48dGV4dCBzdHlsZT0iZG9taW5hbnQtYmFzZWxpbmU6IG1pZGRsZTsgZm9udC1zaXplOiAxMC4ycHg7IiB0cmFuc2Zvcm09InRyYW5zbGF0ZSg1Ny4wNjg0OTY3MDQxMDE1Niw3OSkiIHk9IjAiIHg9IjAiIGlkPSJ0ZXh0LWVudGl0eS1DT1ZJRERBVEEtMWU4ZjNmYjUtNjgwMC01MGU2LTg2NmUtZjQ1NzdhZGM4MTlhLWF0dHItMy1uYW1lIiBjbGFzcz0iZXIgZW50aXR5TGFiZWwiPmNhc29zX3Bvc2l0aXZvczwvdGV4dD48cmVjdCBoZWlnaHQ9IjIyIiB3aWR0aD0iNTIuMDY4NDk2NzA0MTAxNTYiIHk9IjkwIiB4PSIwIiBjbGFzcz0iZXIgYXR0cmlidXRlQm94RXZlbiI+PC9yZWN0Pjx0ZXh0IHN0eWxlPSJkb21pbmFudC1iYXNlbGluZTogbWlkZGxlOyBmb250LXNpemU6IDEwLjJweDsiIHRyYW5zZm9ybT0idHJhbnNsYXRlKDUsMTAxKSIgeT0iMCIgeD0iMCIgaWQ9InRleHQtZW50aXR5LUNPVklEREFUQS0xZThmM2ZiNS02ODAwLTUwZTYtODY2ZS1mNDU3N2FkYzgxOWEtYXR0ci00LXR5cGUiIGNsYXNzPSJlciBlbnRpdHlMYWJlbCI+aW50PC90ZXh0PjxyZWN0IGhlaWdodD0iMjIiIHdpZHRoPSIxMzAuNTc1NDg1MjI5NDkyMiIgeT0iOTAiIHg9IjUyLjA2ODQ5NjcwNDEwMTU2IiBjbGFzcz0iZXIgYXR0cmlidXRlQm94RXZlbiI+PC9yZWN0Pjx0ZXh0IHN0eWxlPSJkb21pbmFudC1iYXNlbGluZTogbWlkZGxlOyBmb250LXNpemU6IDEwLjJweDsiIHRyYW5zZm9ybT0idHJhbnNsYXRlKDU3LjA2ODQ5NjcwNDEwMTU2LDEwMSkiIHk9IjAiIHg9IjAiIGlkPSJ0ZXh0LWVudGl0eS1DT1ZJRERBVEEtMWU4ZjNmYjUtNjgwMC01MGU2LTg2NmUtZjQ1NzdhZGM4MTlhLWF0dHItNC1uYW1lIiBjbGFzcz0iZXIgZW50aXR5TGFiZWwiPmZhbGxlY2lkb3M8L3RleHQ+PHJlY3QgaGVpZ2h0PSIyMiIgd2lkdGg9IjUyLjA2ODQ5NjcwNDEwMTU2IiB5PSIxMTIiIHg9IjAiIGNsYXNzPSJlciBhdHRyaWJ1dGVCb3hPZGQiPjwvcmVjdD48dGV4dCBzdHlsZT0iZG9taW5hbnQtYmFzZWxpbmU6IG1pZGRsZTsgZm9udC1zaXplOiAxMC4ycHg7IiB0cmFuc2Zvcm09InRyYW5zbGF0ZSg1LDEyMykiIHk9IjAiIHg9IjAiIGlkPSJ0ZXh0LWVudGl0eS1DT1ZJRERBVEEtMWU4ZjNmYjUtNjgwMC01MGU2LTg2NmUtZjQ1NzdhZGM4MTlhLWF0dHItNS10eXBlIiBjbGFzcz0iZXIgZW50aXR5TGFiZWwiPmludDwvdGV4dD48cmVjdCBoZWlnaHQ9IjIyIiB3aWR0aD0iMTMwLjU3NTQ4NTIyOTQ5MjIiIHk9IjExMiIgeD0iNTIuMDY4NDk2NzA0MTAxNTYiIGNsYXNzPSJlciBhdHRyaWJ1dGVCb3hPZGQiPjwvcmVjdD48dGV4dCBzdHlsZT0iZG9taW5hbnQtYmFzZWxpbmU6IG1pZGRsZTsgZm9udC1zaXplOiAxMC4ycHg7IiB0cmFuc2Zvcm09InRyYW5zbGF0ZSg1Ny4wNjg0OTY3MDQxMDE1NiwxMjMpIiB5PSIwIiB4PSIwIiBpZD0idGV4dC1lbnRpdHktQ09WSUREQVRBLTFlOGYzZmI1LTY4MDAtNTBlNi04NjZlLWY0NTc3YWRjODE5YS1hdHRyLTUtbmFtZSIgY2xhc3M9ImVyIGVudGl0eUxhYmVsIj5ob3NwaXRhbGl6YWRvczwvdGV4dD48cmVjdCBoZWlnaHQ9IjIyIiB3aWR0aD0iNTIuMDY4NDk2NzA0MTAxNTYiIHk9IjEzNCIgeD0iMCIgY2xhc3M9ImVyIGF0dHJpYnV0ZUJveEV2ZW4iPjwvcmVjdD48dGV4dCBzdHlsZT0iZG9taW5hbnQtYmFzZWxpbmU6IG1pZGRsZTsgZm9udC1zaXplOiAxMC4ycHg7IiB0cmFuc2Zvcm09InRyYW5zbGF0ZSg1LDE0NSkiIHk9IjAiIHg9IjAiIGlkPSJ0ZXh0LWVudGl0eS1DT1ZJRERBVEEtMWU4ZjNmYjUtNjgwMC01MGU2LTg2NmUtZjQ1NzdhZGM4MTlhLWF0dHItNi10eXBlIiBjbGFzcz0iZXIgZW50aXR5TGFiZWwiPmludDwvdGV4dD48cmVjdCBoZWlnaHQ9IjIyIiB3aWR0aD0iMTMwLjU3NTQ4NTIyOTQ5MjIiIHk9IjEzNCIgeD0iNTIuMDY4NDk2NzA0MTAxNTYiIGNsYXNzPSJlciBhdHRyaWJ1dGVCb3hFdmVuIj48L3JlY3Q+PHRleHQgc3R5bGU9ImRvbWluYW50LWJhc2VsaW5lOiBtaWRkbGU7IGZvbnQtc2l6ZTogMTAuMnB4OyIgdHJhbnNmb3JtPSJ0cmFuc2xhdGUoNTcuMDY4NDk2NzA0MTAxNTYsMTQ1KSIgeT0iMCIgeD0iMCIgaWQ9InRleHQtZW50aXR5LUNPVklEREFUQS0xZThmM2ZiNS02ODAwLTUwZTYtODY2ZS1mNDU3N2FkYzgxOWEtYXR0ci02LW5hbWUiIGNsYXNzPSJlciBlbnRpdHlMYWJlbCI+dG90YWxfcmVzdWx0YWRvczwvdGV4dD48cmVjdCBoZWlnaHQ9IjIyIiB3aWR0aD0iNTIuMDY4NDk2NzA0MTAxNTYiIHk9IjE1NiIgeD0iMCIgY2xhc3M9ImVyIGF0dHJpYnV0ZUJveE9kZCI+PC9yZWN0Pjx0ZXh0IHN0eWxlPSJkb21pbmFudC1iYXNlbGluZTogbWlkZGxlOyBmb250LXNpemU6IDEwLjJweDsiIHRyYW5zZm9ybT0idHJhbnNsYXRlKDUsMTY3KSIgeT0iMCIgeD0iMCIgaWQ9InRleHQtZW50aXR5LUNPVklEREFUQS0xZThmM2ZiNS02ODAwLTUwZTYtODY2ZS1mNDU3N2FkYzgxOWEtYXR0ci03LXR5cGUiIGNsYXNzPSJlciBlbnRpdHlMYWJlbCI+aW50PC90ZXh0PjxyZWN0IGhlaWdodD0iMjIiIHdpZHRoPSIxMzAuNTc1NDg1MjI5NDkyMiIgeT0iMTU2IiB4PSI1Mi4wNjg0OTY3MDQxMDE1NiIgY2xhc3M9ImVyIGF0dHJpYnV0ZUJveE9kZCI+PC9yZWN0Pjx0ZXh0IHN0eWxlPSJkb21pbmFudC1iYXNlbGluZTogbWlkZGxlOyBmb250LXNpemU6IDEwLjJweDsiIHRyYW5zZm9ybT0idHJhbnNsYXRlKDU3LjA2ODQ5NjcwNDEwMTU2LDE2NykiIHk9IjAiIHg9IjAiIGlkPSJ0ZXh0LWVudGl0eS1DT1ZJRERBVEEtMWU4ZjNmYjUtNjgwMC01MGU2LTg2NmUtZjQ1NzdhZGM4MTlhLWF0dHItNy1uYW1lIiBjbGFzcz0iZXIgZW50aXR5TGFiZWwiPmluY3JlbWVudG9fcG9zaXRpdm9zPC90ZXh0PjxyZWN0IGhlaWdodD0iMjIiIHdpZHRoPSI1Mi4wNjg0OTY3MDQxMDE1NiIgeT0iMTc4IiB4PSIwIiBjbGFzcz0iZXIgYXR0cmlidXRlQm94RXZlbiI+PC9yZWN0Pjx0ZXh0IHN0eWxlPSJkb21pbmFudC1iYXNlbGluZTogbWlkZGxlOyBmb250LXNpemU6IDEwLjJweDsiIHRyYW5zZm9ybT0idHJhbnNsYXRlKDUsMTg5KSIgeT0iMCIgeD0iMCIgaWQ9InRleHQtZW50aXR5LUNPVklEREFUQS0xZThmM2ZiNS02ODAwLTUwZTYtODY2ZS1mNDU3N2FkYzgxOWEtYXR0ci04LXR5cGUiIGNsYXNzPSJlciBlbnRpdHlMYWJlbCI+aW50PC90ZXh0PjxyZWN0IGhlaWdodD0iMjIiIHdpZHRoPSIxMzAuNTc1NDg1MjI5NDkyMiIgeT0iMTc4IiB4PSI1Mi4wNjg0OTY3MDQxMDE1NiIgY2xhc3M9ImVyIGF0dHJpYnV0ZUJveEV2ZW4iPjwvcmVjdD48dGV4dCBzdHlsZT0iZG9taW5hbnQtYmFzZWxpbmU6IG1pZGRsZTsgZm9udC1zaXplOiAxMC4ycHg7IiB0cmFuc2Zvcm09InRyYW5zbGF0ZSg1Ny4wNjg0OTY3MDQxMDE1NiwxODkpIiB5PSIwIiB4PSIwIiBpZD0idGV4dC1lbnRpdHktQ09WSUREQVRBLTFlOGYzZmI1LTY4MDAtNTBlNi04NjZlLWY0NTc3YWRjODE5YS1hdHRyLTgtbmFtZSIgY2xhc3M9ImVyIGVudGl0eUxhYmVsIj5pbmNyZW1lbnRvX2ZhbGxlY2lkb3M8L3RleHQ+PHJlY3QgaGVpZ2h0PSIyMiIgd2lkdGg9IjUyLjA2ODQ5NjcwNDEwMTU2IiB5PSIyMDAiIHg9IjAiIGNsYXNzPSJlciBhdHRyaWJ1dGVCb3hPZGQiPjwvcmVjdD48dGV4dCBzdHlsZT0iZG9taW5hbnQtYmFzZWxpbmU6IG1pZGRsZTsgZm9udC1zaXplOiAxMC4ycHg7IiB0cmFuc2Zvcm09InRyYW5zbGF0ZSg1LDIxMSkiIHk9IjAiIHg9IjAiIGlkPSJ0ZXh0LWVudGl0eS1DT1ZJRERBVEEtMWU4ZjNmYjUtNjgwMC01MGU2LTg2NmUtZjQ1NzdhZGM4MTlhLWF0dHItOS10eXBlIiBjbGFzcz0iZXIgZW50aXR5TGFiZWwiPnN0cmluZzwvdGV4dD48cmVjdCBoZWlnaHQ9IjIyIiB3aWR0aD0iMTMwLjU3NTQ4NTIyOTQ5MjIiIHk9IjIwMCIgeD0iNTIuMDY4NDk2NzA0MTAxNTYiIGNsYXNzPSJlciBhdHRyaWJ1dGVCb3hPZGQiPjwvcmVjdD48dGV4dCBzdHlsZT0iZG9taW5hbnQtYmFzZWxpbmU6IG1pZGRsZTsgZm9udC1zaXplOiAxMC4ycHg7IiB0cmFuc2Zvcm09InRyYW5zbGF0ZSg1Ny4wNjg0OTY3MDQxMDE1NiwyMTEpIiB5PSIwIiB4PSIwIiBpZD0idGV4dC1lbnRpdHktQ09WSUREQVRBLTFlOGYzZmI1LTY4MDAtNTBlNi04NjZlLWY0NTc3YWRjODE5YS1hdHRyLTktbmFtZSIgY2xhc3M9ImVyIGVudGl0eUxhYmVsIj51bHRpbWFfbW9kaWZpY2FjaW9uPC90ZXh0PjxyZWN0IGhlaWdodD0iMjIiIHdpZHRoPSI1Mi4wNjg0OTY3MDQxMDE1NiIgeT0iMjIyIiB4PSIwIiBjbGFzcz0iZXIgYXR0cmlidXRlQm94RXZlbiI+PC9yZWN0Pjx0ZXh0IHN0eWxlPSJkb21pbmFudC1iYXNlbGluZTogbWlkZGxlOyBmb250LXNpemU6IDEwLjJweDsiIHRyYW5zZm9ybT0idHJhbnNsYXRlKDUsMjMzKSIgeT0iMCIgeD0iMCIgaWQ9InRleHQtZW50aXR5LUNPVklEREFUQS0xZThmM2ZiNS02ODAwLTUwZTYtODY2ZS1mNDU3N2FkYzgxOWEtYXR0ci0xMC10eXBlIiBjbGFzcz0iZXIgZW50aXR5TGFiZWwiPmludDwvdGV4dD48cmVjdCBoZWlnaHQ9IjIyIiB3aWR0aD0iMTMwLjU3NTQ4NTIyOTQ5MjIiIHk9IjIyMiIgeD0iNTIuMDY4NDk2NzA0MTAxNTYiIGNsYXNzPSJlciBhdHRyaWJ1dGVCb3hFdmVuIj48L3JlY3Q+PHRleHQgc3R5bGU9ImRvbWluYW50LWJhc2VsaW5lOiBtaWRkbGU7IGZvbnQtc2l6ZTogMTAuMnB4OyIgdHJhbnNmb3JtPSJ0cmFuc2xhdGUoNTcuMDY4NDk2NzA0MTAxNTYsMjMzKSIgeT0iMCIgeD0iMCIgaWQ9InRleHQtZW50aXR5LUNPVklEREFUQS0xZThmM2ZiNS02ODAwLTUwZTYtODY2ZS1mNDU3N2FkYzgxOWEtYXR0ci0xMC1uYW1lIiBjbGFzcz0iZXIgZW50aXR5TGFiZWwiPmFuaW9fYXVkaXRvcmlhPC90ZXh0PjxyZWN0IGhlaWdodD0iMjIiIHdpZHRoPSI1Mi4wNjg0OTY3MDQxMDE1NiIgeT0iMjQ0IiB4PSIwIiBjbGFzcz0iZXIgYXR0cmlidXRlQm94T2RkIj48L3JlY3Q+PHRleHQgc3R5bGU9ImRvbWluYW50LWJhc2VsaW5lOiBtaWRkbGU7IGZvbnQtc2l6ZTogMTAuMnB4OyIgdHJhbnNmb3JtPSJ0cmFuc2xhdGUoNSwyNTUpIiB5PSIwIiB4PSIwIiBpZD0idGV4dC1lbnRpdHktQ09WSUREQVRBLTFlOGYzZmI1LTY4MDAtNTBlNi04NjZlLWY0NTc3YWRjODE5YS1hdHRyLTExLXR5cGUiIGNsYXNzPSJlciBlbnRpdHlMYWJlbCI+aW50PC90ZXh0PjxyZWN0IGhlaWdodD0iMjIiIHdpZHRoPSIxMzAuNTc1NDg1MjI5NDkyMiIgeT0iMjQ0IiB4PSI1Mi4wNjg0OTY3MDQxMDE1NiIgY2xhc3M9ImVyIGF0dHJpYnV0ZUJveE9kZCI+PC9yZWN0Pjx0ZXh0IHN0eWxlPSJkb21pbmFudC1iYXNlbGluZTogbWlkZGxlOyBmb250LXNpemU6IDEwLjJweDsiIHRyYW5zZm9ybT0idHJhbnNsYXRlKDU3LjA2ODQ5NjcwNDEwMTU2LDI1NSkiIHk9IjAiIHg9IjAiIGlkPSJ0ZXh0LWVudGl0eS1DT1ZJRERBVEEtMWU4ZjNmYjUtNjgwMC01MGU2LTg2NmUtZjQ1NzdhZGM4MTlhLWF0dHItMTEtbmFtZSIgY2xhc3M9ImVyIGVudGl0eUxhYmVsIj5tZXNfYXVkaXRvcmlhPC90ZXh0PjxyZWN0IGhlaWdodD0iMjIiIHdpZHRoPSI1Mi4wNjg0OTY3MDQxMDE1NiIgeT0iMjY2IiB4PSIwIiBjbGFzcz0iZXIgYXR0cmlidXRlQm94RXZlbiI+PC9yZWN0Pjx0ZXh0IHN0eWxlPSJkb21pbmFudC1iYXNlbGluZTogbWlkZGxlOyBmb250LXNpemU6IDEwLjJweDsiIHRyYW5zZm9ybT0idHJhbnNsYXRlKDUsMjc3KSIgeT0iMCIgeD0iMCIgaWQ9InRleHQtZW50aXR5LUNPVklEREFUQS0xZThmM2ZiNS02ODAwLTUwZTYtODY2ZS1mNDU3N2FkYzgxOWEtYXR0ci0xMi10eXBlIiBjbGFzcz0iZXIgZW50aXR5TGFiZWwiPmludDwvdGV4dD48cmVjdCBoZWlnaHQ9IjIyIiB3aWR0aD0iMTMwLjU3NTQ4NTIyOTQ5MjIiIHk9IjI2NiIgeD0iNTIuMDY4NDk2NzA0MTAxNTYiIGNsYXNzPSJlciBhdHRyaWJ1dGVCb3hFdmVuIj48L3JlY3Q+PHRleHQgc3R5bGU9ImRvbWluYW50LWJhc2VsaW5lOiBtaWRkbGU7IGZvbnQtc2l6ZTogMTAuMnB4OyIgdHJhbnNmb3JtPSJ0cmFuc2xhdGUoNTcuMDY4NDk2NzA0MTAxNTYsMjc3KSIgeT0iMCIgeD0iMCIgaWQ9InRleHQtZW50aXR5LUNPVklEREFUQS0xZThmM2ZiNS02ODAwLTUwZTYtODY2ZS1mNDU3N2FkYzgxOWEtYXR0ci0xMi1uYW1lIiBjbGFzcz0iZXIgZW50aXR5TGFiZWwiPmRpYV9hdWRpdG9yaWE8L3RleHQ+PHJlY3QgaGVpZ2h0PSIyMiIgd2lkdGg9IjUyLjA2ODQ5NjcwNDEwMTU2IiB5PSIyODgiIHg9IjAiIGNsYXNzPSJlciBhdHRyaWJ1dGVCb3hPZGQiPjwvcmVjdD48dGV4dCBzdHlsZT0iZG9taW5hbnQtYmFzZWxpbmU6IG1pZGRsZTsgZm9udC1zaXplOiAxMC4ycHg7IiB0cmFuc2Zvcm09InRyYW5zbGF0ZSg1LDI5OSkiIHk9IjAiIHg9IjAiIGlkPSJ0ZXh0LWVudGl0eS1DT1ZJRERBVEEtMWU4ZjNmYjUtNjgwMC01MGU2LTg2NmUtZjQ1NzdhZGM4MTlhLWF0dHItMTMtdHlwZSIgY2xhc3M9ImVyIGVudGl0eUxhYmVsIj5kYXRldGltZTwvdGV4dD48cmVjdCBoZWlnaHQ9IjIyIiB3aWR0aD0iMTMwLjU3NTQ4NTIyOTQ5MjIiIHk9IjI4OCIgeD0iNTIuMDY4NDk2NzA0MTAxNTYiIGNsYXNzPSJlciBhdHRyaWJ1dGVCb3hPZGQiPjwvcmVjdD48dGV4dCBzdHlsZT0iZG9taW5hbnQtYmFzZWxpbmU6IG1pZGRsZTsgZm9udC1zaXplOiAxMC4ycHg7IiB0cmFuc2Zvcm09InRyYW5zbGF0ZSg1Ny4wNjg0OTY3MDQxMDE1NiwyOTkpIiB5PSIwIiB4PSIwIiBpZD0idGV4dC1lbnRpdHktQ09WSUREQVRBLTFlOGYzZmI1LTY4MDAtNTBlNi04NjZlLWY0NTc3YWRjODE5YS1hdHRyLTEzLW5hbWUiIGNsYXNzPSJlciBlbnRpdHlMYWJlbCI+ZmVjaGFfY29tcGxldGFfYXVkaXRvcmlhPC90ZXh0PjxyZWN0IGhlaWdodD0iMjIiIHdpZHRoPSI1Mi4wNjg0OTY3MDQxMDE1NiIgeT0iMzEwIiB4PSIwIiBjbGFzcz0iZXIgYXR0cmlidXRlQm94RXZlbiI+PC9yZWN0Pjx0ZXh0IHN0eWxlPSJkb21pbmFudC1iYXNlbGluZTogbWlkZGxlOyBmb250LXNpemU6IDEwLjJweDsiIHRyYW5zZm9ybT0idHJhbnNsYXRlKDUsMzIxKSIgeT0iMCIgeD0iMCIgaWQ9InRleHQtZW50aXR5LUNPVklEREFUQS0xZThmM2ZiNS02ODAwLTUwZTYtODY2ZS1mNDU3N2FkYzgxOWEtYXR0ci0xNC10eXBlIiBjbGFzcz0iZXIgZW50aXR5TGFiZWwiPmZsb2F0PC90ZXh0PjxyZWN0IGhlaWdodD0iMjIiIHdpZHRoPSIxMzAuNTc1NDg1MjI5NDkyMiIgeT0iMzEwIiB4PSI1Mi4wNjg0OTY3MDQxMDE1NiIgY2xhc3M9ImVyIGF0dHJpYnV0ZUJveEV2ZW4iPjwvcmVjdD48dGV4dCBzdHlsZT0iZG9taW5hbnQtYmFzZWxpbmU6IG1pZGRsZTsgZm9udC1zaXplOiAxMC4ycHg7IiB0cmFuc2Zvcm09InRyYW5zbGF0ZSg1Ny4wNjg0OTY3MDQxMDE1NiwzMjEpIiB5PSIwIiB4PSIwIiBpZD0idGV4dC1lbnRpdHktQ09WSUREQVRBLTFlOGYzZmI1LTY4MDAtNTBlNi04NjZlLWY0NTc3YWRjODE5YS1hdHRyLTE0LW5hbWUiIGNsYXNzPSJlciBlbnRpdHlMYWJlbCI+dGFzYV9wb3NpdGl2aWRhZDwvdGV4dD48cmVjdCBoZWlnaHQ9IjIyIiB3aWR0aD0iNTIuMDY4NDk2NzA0MTAxNTYiIHk9IjMzMiIgeD0iMCIgY2xhc3M9ImVyIGF0dHJpYnV0ZUJveE9kZCI+PC9yZWN0Pjx0ZXh0IHN0eWxlPSJkb21pbmFudC1iYXNlbGluZTogbWlkZGxlOyBmb250LXNpemU6IDEwLjJweDsiIHRyYW5zZm9ybT0idHJhbnNsYXRlKDUsMzQzKSIgeT0iMCIgeD0iMCIgaWQ9InRleHQtZW50aXR5LUNPVklEREFUQS0xZThmM2ZiNS02ODAwLTUwZTYtODY2ZS1mNDU3N2FkYzgxOWEtYXR0ci0xNS10eXBlIiBjbGFzcz0iZXIgZW50aXR5TGFiZWwiPmZsb2F0PC90ZXh0PjxyZWN0IGhlaWdodD0iMjIiIHdpZHRoPSIxMzAuNTc1NDg1MjI5NDkyMiIgeT0iMzMyIiB4PSI1Mi4wNjg0OTY3MDQxMDE1NiIgY2xhc3M9ImVyIGF0dHJpYnV0ZUJveE9kZCI+PC9yZWN0Pjx0ZXh0IHN0eWxlPSJkb21pbmFudC1iYXNlbGluZTogbWlkZGxlOyBmb250LXNpemU6IDEwLjJweDsiIHRyYW5zZm9ybT0idHJhbnNsYXRlKDU3LjA2ODQ5NjcwNDEwMTU2LDM0MykiIHk9IjAiIHg9IjAiIGlkPSJ0ZXh0LWVudGl0eS1DT1ZJRERBVEEtMWU4ZjNmYjUtNjgwMC01MGU2LTg2NmUtZjQ1NzdhZGM4MTlhLWF0dHItMTUtbmFtZSIgY2xhc3M9ImVyIGVudGl0eUxhYmVsIj50YXNhX21vcnRhbGlkYWQ8L3RleHQ+PC9nPjxnIHRyYW5zZm9ybT0idHJhbnNsYXRlKDMwMi42NDM5ODE5MzM1OTM3NSwzMSApIiBpZD0iZW50aXR5LURFTElUT1NJTkZPUk1BVElDT1MtMzk5YmJmNjYtNmFjNC01NDM3LWIzYjAtNzk3ODRjYjE3ZDg3Ij48cmVjdCBoZWlnaHQ9IjM5OCIgd2lkdGg9IjE1OC4wMjE0ODQzNzUiIHk9IjAiIHg9IjAiIGNsYXNzPSJlciBlbnRpdHlCb3giPjwvcmVjdD48dGV4dCBzdHlsZT0iZG9taW5hbnQtYmFzZWxpbmU6IG1pZGRsZTsgdGV4dC1hbmNob3I6IG1pZGRsZTsgZm9udC1zaXplOiAxMnB4OyIgdHJhbnNmb3JtPSJ0cmFuc2xhdGUoNzkuMDEwNzQyMTg3NSwxMikiIHk9IjAiIHg9IjAiIGlkPSJ0ZXh0LWVudGl0eS1ERUxJVE9TSU5GT1JNQVRJQ09TLTM5OWJiZjY2LTZhYzQtNTQzNy1iM2IwLTc5Nzg0Y2IxN2Q4NyIgY2xhc3M9ImVyIGVudGl0eUxhYmVsIj5ERUxJVE9TX0lORk9STUFUSUNPUzwvdGV4dD48cmVjdCBoZWlnaHQ9IjIyIiB3aWR0aD0iNDMuMzc4MDI4ODY5NjI4OTA2IiB5PSIyNCIgeD0iMCIgY2xhc3M9ImVyIGF0dHJpYnV0ZUJveE9kZCI+PC9yZWN0Pjx0ZXh0IHN0eWxlPSJkb21pbmFudC1iYXNlbGluZTogbWlkZGxlOyBmb250LXNpemU6IDEwLjJweDsiIHRyYW5zZm9ybT0idHJhbnNsYXRlKDUsMzUpIiB5PSIwIiB4PSIwIiBpZD0idGV4dC1lbnRpdHktREVMSVRPU0lORk9STUFUSUNPUy0zOTliYmY2Ni02YWM0LTU0MzctYjNiMC03OTc4NGNiMTdkODctYXR0ci0xLXR5cGUiIGNsYXNzPSJlciBlbnRpdHlMYWJlbCI+c3RyaW5nPC90ZXh0PjxyZWN0IGhlaWdodD0iMjIiIHdpZHRoPSIxMTQuNjQzNDU1NTA1MzcxMSIgeT0iMjQiIHg9IjQzLjM3ODAyODg2OTYyODkwNiIgY2xhc3M9ImVyIGF0dHJpYnV0ZUJveE9kZCI+PC9yZWN0Pjx0ZXh0IHN0eWxlPSJkb21pbmFudC1iYXNlbGluZTogbWlkZGxlOyBmb250LXNpemU6IDEwLjJweDsiIHRyYW5zZm9ybT0idHJhbnNsYXRlKDQ4LjM3ODAyODg2OTYyODkwNiwzNSkiIHk9IjAiIHg9IjAiIGlkPSJ0ZXh0LWVudGl0eS1ERUxJVE9TSU5GT1JNQVRJQ09TLTM5OWJiZjY2LTZhYzQtNTQzNy1iM2IwLTc5Nzg0Y2IxN2Q4Ny1hdHRyLTEtbmFtZSIgY2xhc3M9ImVyIGVudGl0eUxhYmVsIj5jcmltaW5hbGlkYWQ8L3RleHQ+PHJlY3QgaGVpZ2h0PSIyMiIgd2lkdGg9IjQzLjM3ODAyODg2OTYyODkwNiIgeT0iNDYiIHg9IjAiIGNsYXNzPSJlciBhdHRyaWJ1dGVCb3hFdmVuIj48L3JlY3Q+PHRleHQgc3R5bGU9ImRvbWluYW50LWJhc2VsaW5lOiBtaWRkbGU7IGZvbnQtc2l6ZTogMTAuMnB4OyIgdHJhbnNmb3JtPSJ0cmFuc2xhdGUoNSw1NykiIHk9IjAiIHg9IjAiIGlkPSJ0ZXh0LWVudGl0eS1ERUxJVE9TSU5GT1JNQVRJQ09TLTM5OWJiZjY2LTZhYzQtNTQzNy1iM2IwLTc5Nzg0Y2IxN2Q4Ny1hdHRyLTItdHlwZSIgY2xhc3M9ImVyIGVudGl0eUxhYmVsIj5ib29sPC90ZXh0PjxyZWN0IGhlaWdodD0iMjIiIHdpZHRoPSIxMTQuNjQzNDU1NTA1MzcxMSIgeT0iNDYiIHg9IjQzLjM3ODAyODg2OTYyODkwNiIgY2xhc3M9ImVyIGF0dHJpYnV0ZUJveEV2ZW4iPjwvcmVjdD48dGV4dCBzdHlsZT0iZG9taW5hbnQtYmFzZWxpbmU6IG1pZGRsZTsgZm9udC1zaXplOiAxMC4ycHg7IiB0cmFuc2Zvcm09InRyYW5zbGF0ZSg0OC4zNzgwMjg4Njk2Mjg5MDYsNTcpIiB5PSIwIiB4PSIwIiBpZD0idGV4dC1lbnRpdHktREVMSVRPU0lORk9STUFUSUNPUy0zOTliYmY2Ni02YWM0LTU0MzctYjNiMC03OTc4NGNiMTdkODctYXR0ci0yLW5hbWUiIGNsYXNzPSJlciBlbnRpdHlMYWJlbCI+ZXNfYXJjaGl2bzwvdGV4dD48cmVjdCBoZWlnaHQ9IjIyIiB3aWR0aD0iNDMuMzc4MDI4ODY5NjI4OTA2IiB5PSI2OCIgeD0iMCIgY2xhc3M9ImVyIGF0dHJpYnV0ZUJveE9kZCI+PC9yZWN0Pjx0ZXh0IHN0eWxlPSJkb21pbmFudC1iYXNlbGluZTogbWlkZGxlOyBmb250LXNpemU6IDEwLjJweDsiIHRyYW5zZm9ybT0idHJhbnNsYXRlKDUsNzkpIiB5PSIwIiB4PSIwIiBpZD0idGV4dC1lbnRpdHktREVMSVRPU0lORk9STUFUSUNPUy0zOTliYmY2Ni02YWM0LTU0MzctYjNiMC03OTc4NGNiMTdkODctYXR0ci0zLXR5cGUiIGNsYXNzPSJlciBlbnRpdHlMYWJlbCI+Ym9vbDwvdGV4dD48cmVjdCBoZWlnaHQ9IjIyIiB3aWR0aD0iMTE0LjY0MzQ1NTUwNTM3MTEiIHk9IjY4IiB4PSI0My4zNzgwMjg4Njk2Mjg5MDYiIGNsYXNzPSJlciBhdHRyaWJ1dGVCb3hPZGQiPjwvcmVjdD48dGV4dCBzdHlsZT0iZG9taW5hbnQtYmFzZWxpbmU6IG1pZGRsZTsgZm9udC1zaXplOiAxMC4ycHg7IiB0cmFuc2Zvcm09InRyYW5zbGF0ZSg0OC4zNzgwMjg4Njk2Mjg5MDYsNzkpIiB5PSIwIiB4PSIwIiBpZD0idGV4dC1lbnRpdHktREVMSVRPU0lORk9STUFUSUNPUy0zOTliYmY2Ni02YWM0LTU0MzctYjNiMC03OTc4NGNiMTdkODctYXR0ci0zLW5hbWUiIGNsYXNzPSJlciBlbnRpdHlMYWJlbCI+ZXNfcHJlY2x1c2lvbjwvdGV4dD48cmVjdCBoZWlnaHQ9IjIyIiB3aWR0aD0iNDMuMzc4MDI4ODY5NjI4OTA2IiB5PSI5MCIgeD0iMCIgY2xhc3M9ImVyIGF0dHJpYnV0ZUJveEV2ZW4iPjwvcmVjdD48dGV4dCBzdHlsZT0iZG9taW5hbnQtYmFzZWxpbmU6IG1pZGRsZTsgZm9udC1zaXplOiAxMC4ycHg7IiB0cmFuc2Zvcm09InRyYW5zbGF0ZSg1LDEwMSkiIHk9IjAiIHg9IjAiIGlkPSJ0ZXh0LWVudGl0eS1ERUxJVE9TSU5GT1JNQVRJQ09TLTM5OWJiZjY2LTZhYzQtNTQzNy1iM2IwLTc5Nzg0Y2IxN2Q4Ny1hdHRyLTQtdHlwZSIgY2xhc3M9ImVyIGVudGl0eUxhYmVsIj5zdHJpbmc8L3RleHQ+PHJlY3QgaGVpZ2h0PSIyMiIgd2lkdGg9IjExNC42NDM0NTU1MDUzNzExIiB5PSI5MCIgeD0iNDMuMzc4MDI4ODY5NjI4OTA2IiBjbGFzcz0iZXIgYXR0cmlidXRlQm94RXZlbiI+PC9yZWN0Pjx0ZXh0IHN0eWxlPSJkb21pbmFudC1iYXNlbGluZTogbWlkZGxlOyBmb250LXNpemU6IDEwLjJweDsiIHRyYW5zZm9ybT0idHJhbnNsYXRlKDQ4LjM3ODAyODg2OTYyODkwNiwxMDEpIiB5PSIwIiB4PSIwIiBpZD0idGV4dC1lbnRpdHktREVMSVRPU0lORk9STUFUSUNPUy0zOTliYmY2Ni02YWM0LTU0MzctYjNiMC03OTc4NGNiMTdkODctYXR0ci00LW5hbWUiIGNsYXNzPSJlciBlbnRpdHlMYWJlbCI+ZXN0YWRvPC90ZXh0PjxyZWN0IGhlaWdodD0iMjIiIHdpZHRoPSI0My4zNzgwMjg4Njk2Mjg5MDYiIHk9IjExMiIgeD0iMCIgY2xhc3M9ImVyIGF0dHJpYnV0ZUJveE9kZCI+PC9yZWN0Pjx0ZXh0IHN0eWxlPSJkb21pbmFudC1iYXNlbGluZTogbWlkZGxlOyBmb250LXNpemU6IDEwLjJweDsiIHRyYW5zZm9ybT0idHJhbnNsYXRlKDUsMTIzKSIgeT0iMCIgeD0iMCIgaWQ9InRleHQtZW50aXR5LURFTElUT1NJTkZPUk1BVElDT1MtMzk5YmJmNjYtNmFjNC01NDM3LWIzYjAtNzk3ODRjYjE3ZDg3LWF0dHItNS10eXBlIiBjbGFzcz0iZXIgZW50aXR5TGFiZWwiPnN0cmluZzwvdGV4dD48cmVjdCBoZWlnaHQ9IjIyIiB3aWR0aD0iMTE0LjY0MzQ1NTUwNTM3MTEiIHk9IjExMiIgeD0iNDMuMzc4MDI4ODY5NjI4OTA2IiBjbGFzcz0iZXIgYXR0cmlidXRlQm94T2RkIj48L3JlY3Q+PHRleHQgc3R5bGU9ImRvbWluYW50LWJhc2VsaW5lOiBtaWRkbGU7IGZvbnQtc2l6ZTogMTAuMnB4OyIgdHJhbnNmb3JtPSJ0cmFuc2xhdGUoNDguMzc4MDI4ODY5NjI4OTA2LDEyMykiIHk9IjAiIHg9IjAiIGlkPSJ0ZXh0LWVudGl0eS1ERUxJVE9TSU5GT1JNQVRJQ09TLTM5OWJiZjY2LTZhYzQtNTQzNy1iM2IwLTc5Nzg0Y2IxN2Q4Ny1hdHRyLTUtbmFtZSIgY2xhc3M9ImVyIGVudGl0eUxhYmVsIj5ldGFwYV9jYXNvPC90ZXh0PjxyZWN0IGhlaWdodD0iMjIiIHdpZHRoPSI0My4zNzgwMjg4Njk2Mjg5MDYiIHk9IjEzNCIgeD0iMCIgY2xhc3M9ImVyIGF0dHJpYnV0ZUJveEV2ZW4iPjwvcmVjdD48dGV4dCBzdHlsZT0iZG9taW5hbnQtYmFzZWxpbmU6IG1pZGRsZTsgZm9udC1zaXplOiAxMC4ycHg7IiB0cmFuc2Zvcm09InRyYW5zbGF0ZSg1LDE0NSkiIHk9IjAiIHg9IjAiIGlkPSJ0ZXh0LWVudGl0eS1ERUxJVE9TSU5GT1JNQVRJQ09TLTM5OWJiZjY2LTZhYzQtNTQzNy1iM2IwLTc5Nzg0Y2IxN2Q4Ny1hdHRyLTYtdHlwZSIgY2xhc3M9ImVyIGVudGl0eUxhYmVsIj5zdHJpbmc8L3RleHQ+PHJlY3QgaGVpZ2h0PSIyMiIgd2lkdGg9IjExNC42NDM0NTU1MDUzNzExIiB5PSIxMzQiIHg9IjQzLjM3ODAyODg2OTYyODkwNiIgY2xhc3M9ImVyIGF0dHJpYnV0ZUJveEV2ZW4iPjwvcmVjdD48dGV4dCBzdHlsZT0iZG9taW5hbnQtYmFzZWxpbmU6IG1pZGRsZTsgZm9udC1zaXplOiAxMC4ycHg7IiB0cmFuc2Zvcm09InRyYW5zbGF0ZSg0OC4zNzgwMjg4Njk2Mjg5MDYsMTQ1KSIgeT0iMCIgeD0iMCIgaWQ9InRleHQtZW50aXR5LURFTElUT1NJTkZPUk1BVElDT1MtMzk5YmJmNjYtNmFjNC01NDM3LWIzYjAtNzk3ODRjYjE3ZDg3LWF0dHItNi1uYW1lIiBjbGFzcz0iZXIgZW50aXR5TGFiZWwiPmxleTwvdGV4dD48cmVjdCBoZWlnaHQ9IjIyIiB3aWR0aD0iNDMuMzc4MDI4ODY5NjI4OTA2IiB5PSIxNTYiIHg9IjAiIGNsYXNzPSJlciBhdHRyaWJ1dGVCb3hPZGQiPjwvcmVjdD48dGV4dCBzdHlsZT0iZG9taW5hbnQtYmFzZWxpbmU6IG1pZGRsZTsgZm9udC1zaXplOiAxMC4ycHg7IiB0cmFuc2Zvcm09InRyYW5zbGF0ZSg1LDE2NykiIHk9IjAiIHg9IjAiIGlkPSJ0ZXh0LWVudGl0eS1ERUxJVE9TSU5GT1JNQVRJQ09TLTM5OWJiZjY2LTZhYzQtNTQzNy1iM2IwLTc5Nzg0Y2IxN2Q4Ny1hdHRyLTctdHlwZSIgY2xhc3M9ImVyIGVudGl0eUxhYmVsIj5zdHJpbmc8L3RleHQ+PHJlY3QgaGVpZ2h0PSIyMiIgd2lkdGg9IjExNC42NDM0NTU1MDUzNzExIiB5PSIxNTYiIHg9IjQzLjM3ODAyODg2OTYyODkwNiIgY2xhc3M9ImVyIGF0dHJpYnV0ZUJveE9kZCI+PC9yZWN0Pjx0ZXh0IHN0eWxlPSJkb21pbmFudC1iYXNlbGluZTogbWlkZGxlOyBmb250LXNpemU6IDEwLjJweDsiIHRyYW5zZm9ybT0idHJhbnNsYXRlKDQ4LjM3ODAyODg2OTYyODkwNiwxNjcpIiB5PSIwIiB4PSIwIiBpZD0idGV4dC1lbnRpdHktREVMSVRPU0lORk9STUFUSUNPUy0zOTliYmY2Ni02YWM0LTU0MzctYjNiMC03OTc4NGNiMTdkODctYXR0ci03LW5hbWUiIGNsYXNzPSJlciBlbnRpdHlMYWJlbCI+cGFpc19oZWNobzwvdGV4dD48cmVjdCBoZWlnaHQ9IjIyIiB3aWR0aD0iNDMuMzc4MDI4ODY5NjI4OTA2IiB5PSIxNzgiIHg9IjAiIGNsYXNzPSJlciBhdHRyaWJ1dGVCb3hFdmVuIj48L3JlY3Q+PHRleHQgc3R5bGU9ImRvbWluYW50LWJhc2VsaW5lOiBtaWRkbGU7IGZvbnQtc2l6ZTogMTAuMnB4OyIgdHJhbnNmb3JtPSJ0cmFuc2xhdGUoNSwxODkpIiB5PSIwIiB4PSIwIiBpZD0idGV4dC1lbnRpdHktREVMSVRPU0lORk9STUFUSUNPUy0zOTliYmY2Ni02YWM0LTU0MzctYjNiMC03OTc4NGNiMTdkODctYXR0ci04LXR5cGUiIGNsYXNzPSJlciBlbnRpdHlMYWJlbCI+c3RyaW5nPC90ZXh0PjxyZWN0IGhlaWdodD0iMjIiIHdpZHRoPSIxMTQuNjQzNDU1NTA1MzcxMSIgeT0iMTc4IiB4PSI0My4zNzgwMjg4Njk2Mjg5MDYiIGNsYXNzPSJlciBhdHRyaWJ1dGVCb3hFdmVuIj48L3JlY3Q+PHRleHQgc3R5bGU9ImRvbWluYW50LWJhc2VsaW5lOiBtaWRkbGU7IGZvbnQtc2l6ZTogMTAuMnB4OyIgdHJhbnNmb3JtPSJ0cmFuc2xhdGUoNDguMzc4MDI4ODY5NjI4OTA2LDE4OSkiIHk9IjAiIHg9IjAiIGlkPSJ0ZXh0LWVudGl0eS1ERUxJVE9TSU5GT1JNQVRJQ09TLTM5OWJiZjY2LTZhYzQtNTQzNy1iM2IwLTc5Nzg0Y2IxN2Q4Ny1hdHRyLTgtbmFtZSIgY2xhc3M9ImVyIGVudGl0eUxhYmVsIj5kZXBhcnRhbWVudG9faGVjaG88L3RleHQ+PHJlY3QgaGVpZ2h0PSIyMiIgd2lkdGg9IjQzLjM3ODAyODg2OTYyODkwNiIgeT0iMjAwIiB4PSIwIiBjbGFzcz0iZXIgYXR0cmlidXRlQm94T2RkIj48L3JlY3Q+PHRleHQgc3R5bGU9ImRvbWluYW50LWJhc2VsaW5lOiBtaWRkbGU7IGZvbnQtc2l6ZTogMTAuMnB4OyIgdHJhbnNmb3JtPSJ0cmFuc2xhdGUoNSwyMTEpIiB5PSIwIiB4PSIwIiBpZD0idGV4dC1lbnRpdHktREVMSVRPU0lORk9STUFUSUNPUy0zOTliYmY2Ni02YWM0LTU0MzctYjNiMC03OTc4NGNiMTdkODctYXR0ci05LXR5cGUiIGNsYXNzPSJlciBlbnRpdHlMYWJlbCI+c3RyaW5nPC90ZXh0PjxyZWN0IGhlaWdodD0iMjIiIHdpZHRoPSIxMTQuNjQzNDU1NTA1MzcxMSIgeT0iMjAwIiB4PSI0My4zNzgwMjg4Njk2Mjg5MDYiIGNsYXNzPSJlciBhdHRyaWJ1dGVCb3hPZGQiPjwvcmVjdD48dGV4dCBzdHlsZT0iZG9taW5hbnQtYmFzZWxpbmU6IG1pZGRsZTsgZm9udC1zaXplOiAxMC4ycHg7IiB0cmFuc2Zvcm09InRyYW5zbGF0ZSg0OC4zNzgwMjg4Njk2Mjg5MDYsMjExKSIgeT0iMCIgeD0iMCIgaWQ9InRleHQtZW50aXR5LURFTElUT1NJTkZPUk1BVElDT1MtMzk5YmJmNjYtNmFjNC01NDM3LWIzYjAtNzk3ODRjYjE3ZDg3LWF0dHItOS1uYW1lIiBjbGFzcz0iZXIgZW50aXR5TGFiZWwiPm11bmljaXBpbzwvdGV4dD48cmVjdCBoZWlnaHQ9IjIyIiB3aWR0aD0iNDMuMzc4MDI4ODY5NjI4OTA2IiB5PSIyMjIiIHg9IjAiIGNsYXNzPSJlciBhdHRyaWJ1dGVCb3hFdmVuIj48L3JlY3Q+PHRleHQgc3R5bGU9ImRvbWluYW50LWJhc2VsaW5lOiBtaWRkbGU7IGZvbnQtc2l6ZTogMTAuMnB4OyIgdHJhbnNmb3JtPSJ0cmFuc2xhdGUoNSwyMzMpIiB5PSIwIiB4PSIwIiBpZD0idGV4dC1lbnRpdHktREVMSVRPU0lORk9STUFUSUNPUy0zOTliYmY2Ni02YWM0LTU0MzctYjNiMC03OTc4NGNiMTdkODctYXR0ci0xMC10eXBlIiBjbGFzcz0iZXIgZW50aXR5TGFiZWwiPnN0cmluZzwvdGV4dD48cmVjdCBoZWlnaHQ9IjIyIiB3aWR0aD0iMTE0LjY0MzQ1NTUwNTM3MTEiIHk9IjIyMiIgeD0iNDMuMzc4MDI4ODY5NjI4OTA2IiBjbGFzcz0iZXIgYXR0cmlidXRlQm94RXZlbiI+PC9yZWN0Pjx0ZXh0IHN0eWxlPSJkb21pbmFudC1iYXNlbGluZTogbWlkZGxlOyBmb250LXNpemU6IDEwLjJweDsiIHRyYW5zZm9ybT0idHJhbnNsYXRlKDQ4LjM3ODAyODg2OTYyODkwNiwyMzMpIiB5PSIwIiB4PSIwIiBpZD0idGV4dC1lbnRpdHktREVMSVRPU0lORk9STUFUSUNPUy0zOTliYmY2Ni02YWM0LTU0MzctYjNiMC03OTc4NGNiMTdkODctYXR0ci0xMC1uYW1lIiBjbGFzcz0iZXIgZW50aXR5TGFiZWwiPnNlY2Npb25hbDwvdGV4dD48cmVjdCBoZWlnaHQ9IjIyIiB3aWR0aD0iNDMuMzc4MDI4ODY5NjI4OTA2IiB5PSIyNDQiIHg9IjAiIGNsYXNzPSJlciBhdHRyaWJ1dGVCb3hPZGQiPjwvcmVjdD48dGV4dCBzdHlsZT0iZG9taW5hbnQtYmFzZWxpbmU6IG1pZGRsZTsgZm9udC1zaXplOiAxMC4ycHg7IiB0cmFuc2Zvcm09InRyYW5zbGF0ZSg1LDI1NSkiIHk9IjAiIHg9IjAiIGlkPSJ0ZXh0LWVudGl0eS1ERUxJVE9TSU5GT1JNQVRJQ09TLTM5OWJiZjY2LTZhYzQtNTQzNy1iM2IwLTc5Nzg0Y2IxN2Q4Ny1hdHRyLTExLXR5cGUiIGNsYXNzPSJlciBlbnRpdHlMYWJlbCI+aW50PC90ZXh0PjxyZWN0IGhlaWdodD0iMjIiIHdpZHRoPSIxMTQuNjQzNDU1NTA1MzcxMSIgeT0iMjQ0IiB4PSI0My4zNzgwMjg4Njk2Mjg5MDYiIGNsYXNzPSJlciBhdHRyaWJ1dGVCb3hPZGQiPjwvcmVjdD48dGV4dCBzdHlsZT0iZG9taW5hbnQtYmFzZWxpbmU6IG1pZGRsZTsgZm9udC1zaXplOiAxMC4ycHg7IiB0cmFuc2Zvcm09InRyYW5zbGF0ZSg0OC4zNzgwMjg4Njk2Mjg5MDYsMjU1KSIgeT0iMCIgeD0iMCIgaWQ9InRleHQtZW50aXR5LURFTElUT1NJTkZPUk1BVElDT1MtMzk5YmJmNjYtNmFjNC01NDM3LWIzYjAtNzk3ODRjYjE3ZDg3LWF0dHItMTEtbmFtZSIgY2xhc3M9ImVyIGVudGl0eUxhYmVsIj5hX29faGVjaG9zPC90ZXh0PjxyZWN0IGhlaWdodD0iMjIiIHdpZHRoPSI0My4zNzgwMjg4Njk2Mjg5MDYiIHk9IjI2NiIgeD0iMCIgY2xhc3M9ImVyIGF0dHJpYnV0ZUJveEV2ZW4iPjwvcmVjdD48dGV4dCBzdHlsZT0iZG9taW5hbnQtYmFzZWxpbmU6IG1pZGRsZTsgZm9udC1zaXplOiAxMC4ycHg7IiB0cmFuc2Zvcm09InRyYW5zbGF0ZSg1LDI3NykiIHk9IjAiIHg9IjAiIGlkPSJ0ZXh0LWVudGl0eS1ERUxJVE9TSU5GT1JNQVRJQ09TLTM5OWJiZjY2LTZhYzQtNTQzNy1iM2IwLTc5Nzg0Y2IxN2Q4Ny1hdHRyLTEyLXR5cGUiIGNsYXNzPSJlciBlbnRpdHlMYWJlbCI+aW50PC90ZXh0PjxyZWN0IGhlaWdodD0iMjIiIHdpZHRoPSIxMTQuNjQzNDU1NTA1MzcxMSIgeT0iMjY2IiB4PSI0My4zNzgwMjg4Njk2Mjg5MDYiIGNsYXNzPSJlciBhdHRyaWJ1dGVCb3hFdmVuIj48L3JlY3Q+PHRleHQgc3R5bGU9ImRvbWluYW50LWJhc2VsaW5lOiBtaWRkbGU7IGZvbnQtc2l6ZTogMTAuMnB4OyIgdHJhbnNmb3JtPSJ0cmFuc2xhdGUoNDguMzc4MDI4ODY5NjI4OTA2LDI3NykiIHk9IjAiIHg9IjAiIGlkPSJ0ZXh0LWVudGl0eS1ERUxJVE9TSU5GT1JNQVRJQ09TLTM5OWJiZjY2LTZhYzQtNTQzNy1iM2IwLTc5Nzg0Y2IxN2Q4Ny1hdHRyLTEyLW5hbWUiIGNsYXNzPSJlciBlbnRpdHlMYWJlbCI+YV9vX2VudHJhZGE8L3RleHQ+PHJlY3QgaGVpZ2h0PSIyMiIgd2lkdGg9IjQzLjM3ODAyODg2OTYyODkwNiIgeT0iMjg4IiB4PSIwIiBjbGFzcz0iZXIgYXR0cmlidXRlQm94T2RkIj48L3JlY3Q+PHRleHQgc3R5bGU9ImRvbWluYW50LWJhc2VsaW5lOiBtaWRkbGU7IGZvbnQtc2l6ZTogMTAuMnB4OyIgdHJhbnNmb3JtPSJ0cmFuc2xhdGUoNSwyOTkpIiB5PSIwIiB4PSIwIiBpZD0idGV4dC1lbnRpdHktREVMSVRPU0lORk9STUFUSUNPUy0zOTliYmY2Ni02YWM0LTU0MzctYjNiMC03OTc4NGNiMTdkODctYXR0ci0xMy10eXBlIiBjbGFzcz0iZXIgZW50aXR5TGFiZWwiPmludDwvdGV4dD48cmVjdCBoZWlnaHQ9IjIyIiB3aWR0aD0iMTE0LjY0MzQ1NTUwNTM3MTEiIHk9IjI4OCIgeD0iNDMuMzc4MDI4ODY5NjI4OTA2IiBjbGFzcz0iZXIgYXR0cmlidXRlQm94T2RkIj48L3JlY3Q+PHRleHQgc3R5bGU9ImRvbWluYW50LWJhc2VsaW5lOiBtaWRkbGU7IGZvbnQtc2l6ZTogMTAuMnB4OyIgdHJhbnNmb3JtPSJ0cmFuc2xhdGUoNDguMzc4MDI4ODY5NjI4OTA2LDI5OSkiIHk9IjAiIHg9IjAiIGlkPSJ0ZXh0LWVudGl0eS1ERUxJVE9TSU5GT1JNQVRJQ09TLTM5OWJiZjY2LTZhYzQtNTQzNy1iM2IwLTc5Nzg0Y2IxN2Q4Ny1hdHRyLTEzLW5hbWUiIGNsYXNzPSJlciBlbnRpdHlMYWJlbCI+YV9vX2RlbnVuY2lhPC90ZXh0PjxyZWN0IGhlaWdodD0iMjIiIHdpZHRoPSI0My4zNzgwMjg4Njk2Mjg5MDYiIHk9IjMxMCIgeD0iMCIgY2xhc3M9ImVyIGF0dHJpYnV0ZUJveEV2ZW4iPjwvcmVjdD48dGV4dCBzdHlsZT0iZG9taW5hbnQtYmFzZWxpbmU6IG1pZGRsZTsgZm9udC1zaXplOiAxMC4ycHg7IiB0cmFuc2Zvcm09InRyYW5zbGF0ZSg1LDMyMSkiIHk9IjAiIHg9IjAiIGlkPSJ0ZXh0LWVudGl0eS1ERUxJVE9TSU5GT1JNQVRJQ09TLTM5OWJiZjY2LTZhYzQtNTQzNy1iM2IwLTc5Nzg0Y2IxN2Q4Ny1hdHRyLTE0LXR5cGUiIGNsYXNzPSJlciBlbnRpdHlMYWJlbCI+c3RyaW5nPC90ZXh0PjxyZWN0IGhlaWdodD0iMjIiIHdpZHRoPSIxMTQuNjQzNDU1NTA1MzcxMSIgeT0iMzEwIiB4PSI0My4zNzgwMjg4Njk2Mjg5MDYiIGNsYXNzPSJlciBhdHRyaWJ1dGVCb3hFdmVuIj48L3JlY3Q+PHRleHQgc3R5bGU9ImRvbWluYW50LWJhc2VsaW5lOiBtaWRkbGU7IGZvbnQtc2l6ZTogMTAuMnB4OyIgdHJhbnNmb3JtPSJ0cmFuc2xhdGUoNDguMzc4MDI4ODY5NjI4OTA2LDMyMSkiIHk9IjAiIHg9IjAiIGlkPSJ0ZXh0LWVudGl0eS1ERUxJVE9TSU5GT1JNQVRJQ09TLTM5OWJiZjY2LTZhYzQtNTQzNy1iM2IwLTc5Nzg0Y2IxN2Q4Ny1hdHRyLTE0LW5hbWUiIGNsYXNzPSJlciBlbnRpdHlMYWJlbCI+ZGVsaXRvPC90ZXh0PjxyZWN0IGhlaWdodD0iMjIiIHdpZHRoPSI0My4zNzgwMjg4Njk2Mjg5MDYiIHk9IjMzMiIgeD0iMCIgY2xhc3M9ImVyIGF0dHJpYnV0ZUJveE9kZCI+PC9yZWN0Pjx0ZXh0IHN0eWxlPSJkb21pbmFudC1iYXNlbGluZTogbWlkZGxlOyBmb250LXNpemU6IDEwLjJweDsiIHRyYW5zZm9ybT0idHJhbnNsYXRlKDUsMzQzKSIgeT0iMCIgeD0iMCIgaWQ9InRleHQtZW50aXR5LURFTElUT1NJTkZPUk1BVElDT1MtMzk5YmJmNjYtNmFjNC01NDM3LWIzYjAtNzk3ODRjYjE3ZDg3LWF0dHItMTUtdHlwZSIgY2xhc3M9ImVyIGVudGl0eUxhYmVsIj5zdHJpbmc8L3RleHQ+PHJlY3QgaGVpZ2h0PSIyMiIgd2lkdGg9IjExNC42NDM0NTU1MDUzNzExIiB5PSIzMzIiIHg9IjQzLjM3ODAyODg2OTYyODkwNiIgY2xhc3M9ImVyIGF0dHJpYnV0ZUJveE9kZCI+PC9yZWN0Pjx0ZXh0IHN0eWxlPSJkb21pbmFudC1iYXNlbGluZTogbWlkZGxlOyBmb250LXNpemU6IDEwLjJweDsiIHRyYW5zZm9ybT0idHJhbnNsYXRlKDQ4LjM3ODAyODg2OTYyODkwNiwzNDMpIiB5PSIwIiB4PSIwIiBpZD0idGV4dC1lbnRpdHktREVMSVRPU0lORk9STUFUSUNPUy0zOTliYmY2Ni02YWM0LTU0MzctYjNiMC03OTc4NGNiMTdkODctYXR0ci0xNS1uYW1lIiBjbGFzcz0iZXIgZW50aXR5TGFiZWwiPmdydXBvX2RlbGl0bzwvdGV4dD48cmVjdCBoZWlnaHQ9IjIyIiB3aWR0aD0iNDMuMzc4MDI4ODY5NjI4OTA2IiB5PSIzNTQiIHg9IjAiIGNsYXNzPSJlciBhdHRyaWJ1dGVCb3hFdmVuIj48L3JlY3Q+PHRleHQgc3R5bGU9ImRvbWluYW50LWJhc2VsaW5lOiBtaWRkbGU7IGZvbnQtc2l6ZTogMTAuMnB4OyIgdHJhbnNmb3JtPSJ0cmFuc2xhdGUoNSwzNjUpIiB5PSIwIiB4PSIwIiBpZD0idGV4dC1lbnRpdHktREVMSVRPU0lORk9STUFUSUNPUy0zOTliYmY2Ni02YWM0LTU0MzctYjNiMC03OTc4NGNiMTdkODctYXR0ci0xNi10eXBlIiBjbGFzcz0iZXIgZW50aXR5TGFiZWwiPmJvb2w8L3RleHQ+PHJlY3QgaGVpZ2h0PSIyMiIgd2lkdGg9IjExNC42NDM0NTU1MDUzNzExIiB5PSIzNTQiIHg9IjQzLjM3ODAyODg2OTYyODkwNiIgY2xhc3M9ImVyIGF0dHJpYnV0ZUJveEV2ZW4iPjwvcmVjdD48dGV4dCBzdHlsZT0iZG9taW5hbnQtYmFzZWxpbmU6IG1pZGRsZTsgZm9udC1zaXplOiAxMC4ycHg7IiB0cmFuc2Zvcm09InRyYW5zbGF0ZSg0OC4zNzgwMjg4Njk2Mjg5MDYsMzY1KSIgeT0iMCIgeD0iMCIgaWQ9InRleHQtZW50aXR5LURFTElUT1NJTkZPUk1BVElDT1MtMzk5YmJmNjYtNmFjNC01NDM3LWIzYjAtNzk3ODRjYjE3ZDg3LWF0dHItMTYtbmFtZSIgY2xhc3M9ImVyIGVudGl0eUxhYmVsIj5jb25zdW1hZG88L3RleHQ+PHJlY3QgaGVpZ2h0PSIyMiIgd2lkdGg9IjQzLjM3ODAyODg2OTYyODkwNiIgeT0iMzc2IiB4PSIwIiBjbGFzcz0iZXIgYXR0cmlidXRlQm94T2RkIj48L3JlY3Q+PHRleHQgc3R5bGU9ImRvbWluYW50LWJhc2VsaW5lOiBtaWRkbGU7IGZvbnQtc2l6ZTogMTAuMnB4OyIgdHJhbnNmb3JtPSJ0cmFuc2xhdGUoNSwzODcpIiB5PSIwIiB4PSIwIiBpZD0idGV4dC1lbnRpdHktREVMSVRPU0lORk9STUFUSUNPUy0zOTliYmY2Ni02YWM0LTU0MzctYjNiMC03OTc4NGNiMTdkODctYXR0ci0xNy10eXBlIiBjbGFzcz0iZXIgZW50aXR5TGFiZWwiPmludDwvdGV4dD48cmVjdCBoZWlnaHQ9IjIyIiB3aWR0aD0iMTE0LjY0MzQ1NTUwNTM3MTEiIHk9IjM3NiIgeD0iNDMuMzc4MDI4ODY5NjI4OTA2IiBjbGFzcz0iZXIgYXR0cmlidXRlQm94T2RkIj48L3JlY3Q+PHRleHQgc3R5bGU9ImRvbWluYW50LWJhc2VsaW5lOiBtaWRkbGU7IGZvbnQtc2l6ZTogMTAuMnB4OyIgdHJhbnNmb3JtPSJ0cmFuc2xhdGUoNDguMzc4MDI4ODY5NjI4OTA2LDM4NykiIHk9IjAiIHg9IjAiIGlkPSJ0ZXh0LWVudGl0eS1ERUxJVE9TSU5GT1JNQVRJQ09TLTM5OWJiZjY2LTZhYzQtNTQzNy1iM2IwLTc5Nzg0Y2IxN2Q4Ny1hdHRyLTE3LW5hbWUiIGNsYXNzPSJlciBlbnRpdHlMYWJlbCI+dG90YWxfcHJvY2Vzb3M8L3RleHQ+PC9nPjxnIHRyYW5zZm9ybT0idHJhbnNsYXRlKDU2MC42NjU0NjYzMDg1OTM4LDIwICkiIGlkPSJlbnRpdHktSU5WRU5UQVJJT0JPVklOT1MtODdmOWIwOTAtYTRmYS01MzBiLWExMDEtYWI5MjYxODE2NTFjIj48cmVjdCBoZWlnaHQ9IjQyMCIgd2lkdGg9IjE1Ni41MzYzOTIyMTE5MTQwNiIgeT0iMCIgeD0iMCIgY2xhc3M9ImVyIGVudGl0eUJveCI+PC9yZWN0Pjx0ZXh0IHN0eWxlPSJkb21pbmFudC1iYXNlbGluZTogbWlkZGxlOyB0ZXh0LWFuY2hvcjogbWlkZGxlOyBmb250LXNpemU6IDEycHg7IiB0cmFuc2Zvcm09InRyYW5zbGF0ZSg3OC4yNjgxOTYxMDU5NTcwMywxMikiIHk9IjAiIHg9IjAiIGlkPSJ0ZXh0LWVudGl0eS1JTlZFTlRBUklPQk9WSU5PUy04N2Y5YjA5MC1hNGZhLTUzMGItYTEwMS1hYjkyNjE4MTY1MWMiIGNsYXNzPSJlciBlbnRpdHlMYWJlbCI+SU5WRU5UQVJJT19CT1ZJTk9TPC90ZXh0PjxyZWN0IGhlaWdodD0iMjIiIHdpZHRoPSIzNi42MTkwOTQ4NDg2MzI4MSIgeT0iMjQiIHg9IjAiIGNsYXNzPSJlciBhdHRyaWJ1dGVCb3hPZGQiPjwvcmVjdD48dGV4dCBzdHlsZT0iZG9taW5hbnQtYmFzZWxpbmU6IG1pZGRsZTsgZm9udC1zaXplOiAxMC4ycHg7IiB0cmFuc2Zvcm09InRyYW5zbGF0ZSg1LDM1KSIgeT0iMCIgeD0iMCIgaWQ9InRleHQtZW50aXR5LUlOVkVOVEFSSU9CT1ZJTk9TLTg3ZjliMDkwLWE0ZmEtNTMwYi1hMTAxLWFiOTI2MTgxNjUxYy1hdHRyLTEtdHlwZSIgY2xhc3M9ImVyIGVudGl0eUxhYmVsIj5pbnQ8L3RleHQ+PHJlY3QgaGVpZ2h0PSIyMiIgd2lkdGg9IjExOS45MTcyOTczNjMyODEyNSIgeT0iMjQiIHg9IjM2LjYxOTA5NDg0ODYzMjgxIiBjbGFzcz0iZXIgYXR0cmlidXRlQm94T2RkIj48L3JlY3Q+PHRleHQgc3R5bGU9ImRvbWluYW50LWJhc2VsaW5lOiBtaWRkbGU7IGZvbnQtc2l6ZTogMTAuMnB4OyIgdHJhbnNmb3JtPSJ0cmFuc2xhdGUoNDEuNjE5MDk0ODQ4NjMyODEsMzUpIiB5PSIwIiB4PSIwIiBpZD0idGV4dC1lbnRpdHktSU5WRU5UQVJJT0JPVklOT1MtODdmOWIwOTAtYTRmYS01MzBiLWExMDEtYWI5MjYxODE2NTFjLWF0dHItMS1uYW1lIiBjbGFzcz0iZXIgZW50aXR5TGFiZWwiPmFuaW88L3RleHQ+PHJlY3QgaGVpZ2h0PSIyMiIgd2lkdGg9IjM2LjYxOTA5NDg0ODYzMjgxIiB5PSI0NiIgeD0iMCIgY2xhc3M9ImVyIGF0dHJpYnV0ZUJveEV2ZW4iPjwvcmVjdD48dGV4dCBzdHlsZT0iZG9taW5hbnQtYmFzZWxpbmU6IG1pZGRsZTsgZm9udC1zaXplOiAxMC4ycHg7IiB0cmFuc2Zvcm09InRyYW5zbGF0ZSg1LDU3KSIgeT0iMCIgeD0iMCIgaWQ9InRleHQtZW50aXR5LUlOVkVOVEFSSU9CT1ZJTk9TLTg3ZjliMDkwLWE0ZmEtNTMwYi1hMTAxLWFiOTI2MTgxNjUxYy1hdHRyLTItdHlwZSIgY2xhc3M9ImVyIGVudGl0eUxhYmVsIj5zdHJpbmc8L3RleHQ+PHJlY3QgaGVpZ2h0PSIyMiIgd2lkdGg9IjExOS45MTcyOTczNjMyODEyNSIgeT0iNDYiIHg9IjM2LjYxOTA5NDg0ODYzMjgxIiBjbGFzcz0iZXIgYXR0cmlidXRlQm94RXZlbiI+PC9yZWN0Pjx0ZXh0IHN0eWxlPSJkb21pbmFudC1iYXNlbGluZTogbWlkZGxlOyBmb250LXNpemU6IDEwLjJweDsiIHRyYW5zZm9ybT0idHJhbnNsYXRlKDQxLjYxOTA5NDg0ODYzMjgxLDU3KSIgeT0iMCIgeD0iMCIgaWQ9InRleHQtZW50aXR5LUlOVkVOVEFSSU9CT1ZJTk9TLTg3ZjliMDkwLWE0ZmEtNTMwYi1hMTAxLWFiOTI2MTgxNjUxYy1hdHRyLTItbmFtZSIgY2xhc3M9ImVyIGVudGl0eUxhYmVsIj5zdWJyZWdpb248L3RleHQ+PHJlY3QgaGVpZ2h0PSIyMiIgd2lkdGg9IjM2LjYxOTA5NDg0ODYzMjgxIiB5PSI2OCIgeD0iMCIgY2xhc3M9ImVyIGF0dHJpYnV0ZUJveE9kZCI+PC9yZWN0Pjx0ZXh0IHN0eWxlPSJkb21pbmFudC1iYXNlbGluZTogbWlkZGxlOyBmb250LXNpemU6IDEwLjJweDsiIHRyYW5zZm9ybT0idHJhbnNsYXRlKDUsNzkpIiB5PSIwIiB4PSIwIiBpZD0idGV4dC1lbnRpdHktSU5WRU5UQVJJT0JPVklOT1MtODdmOWIwOTAtYTRmYS01MzBiLWExMDEtYWI5MjYxODE2NTFjLWF0dHItMy10eXBlIiBjbGFzcz0iZXIgZW50aXR5TGFiZWwiPnN0cmluZzwvdGV4dD48cmVjdCBoZWlnaHQ9IjIyIiB3aWR0aD0iMTE5LjkxNzI5NzM2MzI4MTI1IiB5PSI2OCIgeD0iMzYuNjE5MDk0ODQ4NjMyODEiIGNsYXNzPSJlciBhdHRyaWJ1dGVCb3hPZGQiPjwvcmVjdD48dGV4dCBzdHlsZT0iZG9taW5hbnQtYmFzZWxpbmU6IG1pZGRsZTsgZm9udC1zaXplOiAxMC4ycHg7IiB0cmFuc2Zvcm09InRyYW5zbGF0ZSg0MS42MTkwOTQ4NDg2MzI4MSw3OSkiIHk9IjAiIHg9IjAiIGlkPSJ0ZXh0LWVudGl0eS1JTlZFTlRBUklPQk9WSU5PUy04N2Y5YjA5MC1hNGZhLTUzMGItYTEwMS1hYjkyNjE4MTY1MWMtYXR0ci0zLW5hbWUiIGNsYXNzPSJlciBlbnRpdHlMYWJlbCI+cnVicm88L3RleHQ+PHJlY3QgaGVpZ2h0PSIyMiIgd2lkdGg9IjM2LjYxOTA5NDg0ODYzMjgxIiB5PSI5MCIgeD0iMCIgY2xhc3M9ImVyIGF0dHJpYnV0ZUJveEV2ZW4iPjwvcmVjdD48dGV4dCBzdHlsZT0iZG9taW5hbnQtYmFzZWxpbmU6IG1pZGRsZTsgZm9udC1zaXplOiAxMC4ycHg7IiB0cmFuc2Zvcm09InRyYW5zbGF0ZSg1LDEwMSkiIHk9IjAiIHg9IjAiIGlkPSJ0ZXh0LWVudGl0eS1JTlZFTlRBUklPQk9WSU5PUy04N2Y5YjA5MC1hNGZhLTUzMGItYTEwMS1hYjkyNjE4MTY1MWMtYXR0ci00LXR5cGUiIGNsYXNzPSJlciBlbnRpdHlMYWJlbCI+aW50PC90ZXh0PjxyZWN0IGhlaWdodD0iMjIiIHdpZHRoPSIxMTkuOTE3Mjk3MzYzMjgxMjUiIHk9IjkwIiB4PSIzNi42MTkwOTQ4NDg2MzI4MSIgY2xhc3M9ImVyIGF0dHJpYnV0ZUJveEV2ZW4iPjwvcmVjdD48dGV4dCBzdHlsZT0iZG9taW5hbnQtYmFzZWxpbmU6IG1pZGRsZTsgZm9udC1zaXplOiAxMC4ycHg7IiB0cmFuc2Zvcm09InRyYW5zbGF0ZSg0MS42MTkwOTQ4NDg2MzI4MSwxMDEpIiB5PSIwIiB4PSIwIiBpZD0idGV4dC1lbnRpdHktSU5WRU5UQVJJT0JPVklOT1MtODdmOWIwOTAtYTRmYS01MzBiLWExMDEtYWI5MjYxODE2NTFjLWF0dHItNC1uYW1lIiBjbGFzcz0iZXIgZW50aXR5TGFiZWwiPmJvdmlub3NfY3JpYV9tYWNobzwvdGV4dD48cmVjdCBoZWlnaHQ9IjIyIiB3aWR0aD0iMzYuNjE5MDk0ODQ4NjMyODEiIHk9IjExMiIgeD0iMCIgY2xhc3M9ImVyIGF0dHJpYnV0ZUJveE9kZCI+PC9yZWN0Pjx0ZXh0IHN0eWxlPSJkb21pbmFudC1iYXNlbGluZTogbWlkZGxlOyBmb250LXNpemU6IDEwLjJweDsiIHRyYW5zZm9ybT0idHJhbnNsYXRlKDUsMTIzKSIgeT0iMCIgeD0iMCIgaWQ9InRleHQtZW50aXR5LUlOVkVOVEFSSU9CT1ZJTk9TLTg3ZjliMDkwLWE0ZmEtNTMwYi1hMTAxLWFiOTI2MTgxNjUxYy1hdHRyLTUtdHlwZSIgY2xhc3M9ImVyIGVudGl0eUxhYmVsIj5pbnQ8L3RleHQ+PHJlY3QgaGVpZ2h0PSIyMiIgd2lkdGg9IjExOS45MTcyOTczNjMyODEyNSIgeT0iMTEyIiB4PSIzNi42MTkwOTQ4NDg2MzI4MSIgY2xhc3M9ImVyIGF0dHJpYnV0ZUJveE9kZCI+PC9yZWN0Pjx0ZXh0IHN0eWxlPSJkb21pbmFudC1iYXNlbGluZTogbWlkZGxlOyBmb250LXNpemU6IDEwLjJweDsiIHRyYW5zZm9ybT0idHJhbnNsYXRlKDQxLjYxOTA5NDg0ODYzMjgxLDEyMykiIHk9IjAiIHg9IjAiIGlkPSJ0ZXh0LWVudGl0eS1JTlZFTlRBUklPQk9WSU5PUy04N2Y5YjA5MC1hNGZhLTUzMGItYTEwMS1hYjkyNjE4MTY1MWMtYXR0ci01LW5hbWUiIGNsYXNzPSJlciBlbnRpdHlMYWJlbCI+Ym92aW5vc19ub3ZpbGxvX2xldmFudGU8L3RleHQ+PHJlY3QgaGVpZ2h0PSIyMiIgd2lkdGg9IjM2LjYxOTA5NDg0ODYzMjgxIiB5PSIxMzQiIHg9IjAiIGNsYXNzPSJlciBhdHRyaWJ1dGVCb3hFdmVuIj48L3JlY3Q+PHRleHQgc3R5bGU9ImRvbWluYW50LWJhc2VsaW5lOiBtaWRkbGU7IGZvbnQtc2l6ZTogMTAuMnB4OyIgdHJhbnNmb3JtPSJ0cmFuc2xhdGUoNSwxNDUpIiB5PSIwIiB4PSIwIiBpZD0idGV4dC1lbnRpdHktSU5WRU5UQVJJT0JPVklOT1MtODdmOWIwOTAtYTRmYS01MzBiLWExMDEtYWI5MjYxODE2NTFjLWF0dHItNi10eXBlIiBjbGFzcz0iZXIgZW50aXR5TGFiZWwiPmludDwvdGV4dD48cmVjdCBoZWlnaHQ9IjIyIiB3aWR0aD0iMTE5LjkxNzI5NzM2MzI4MTI1IiB5PSIxMzQiIHg9IjM2LjYxOTA5NDg0ODYzMjgxIiBjbGFzcz0iZXIgYXR0cmlidXRlQm94RXZlbiI+PC9yZWN0Pjx0ZXh0IHN0eWxlPSJkb21pbmFudC1iYXNlbGluZTogbWlkZGxlOyBmb250LXNpemU6IDEwLjJweDsiIHRyYW5zZm9ybT0idHJhbnNsYXRlKDQxLjYxOTA5NDg0ODYzMjgxLDE0NSkiIHk9IjAiIHg9IjAiIGlkPSJ0ZXh0LWVudGl0eS1JTlZFTlRBUklPQk9WSU5PUy04N2Y5YjA5MC1hNGZhLTUzMGItYTEwMS1hYjkyNjE4MTY1MWMtYXR0ci02LW5hbWUiIGNsYXNzPSJlciBlbnRpdHlMYWJlbCI+Ym92aW5vc19ub3ZpbGxvX2NlYmE8L3RleHQ+PHJlY3QgaGVpZ2h0PSIyMiIgd2lkdGg9IjM2LjYxOTA5NDg0ODYzMjgxIiB5PSIxNTYiIHg9IjAiIGNsYXNzPSJlciBhdHRyaWJ1dGVCb3hPZGQiPjwvcmVjdD48dGV4dCBzdHlsZT0iZG9taW5hbnQtYmFzZWxpbmU6IG1pZGRsZTsgZm9udC1zaXplOiAxMC4ycHg7IiB0cmFuc2Zvcm09InRyYW5zbGF0ZSg1LDE2NykiIHk9IjAiIHg9IjAiIGlkPSJ0ZXh0LWVudGl0eS1JTlZFTlRBUklPQk9WSU5PUy04N2Y5YjA5MC1hNGZhLTUzMGItYTEwMS1hYjkyNjE4MTY1MWMtYXR0ci03LXR5cGUiIGNsYXNzPSJlciBlbnRpdHlMYWJlbCI+aW50PC90ZXh0PjxyZWN0IGhlaWdodD0iMjIiIHdpZHRoPSIxMTkuOTE3Mjk3MzYzMjgxMjUiIHk9IjE1NiIgeD0iMzYuNjE5MDk0ODQ4NjMyODEiIGNsYXNzPSJlciBhdHRyaWJ1dGVCb3hPZGQiPjwvcmVjdD48dGV4dCBzdHlsZT0iZG9taW5hbnQtYmFzZWxpbmU6IG1pZGRsZTsgZm9udC1zaXplOiAxMC4ycHg7IiB0cmFuc2Zvcm09InRyYW5zbGF0ZSg0MS42MTkwOTQ4NDg2MzI4MSwxNjcpIiB5PSIwIiB4PSIwIiBpZD0idGV4dC1lbnRpdHktSU5WRU5UQVJJT0JPVklOT1MtODdmOWIwOTAtYTRmYS01MzBiLWExMDEtYWI5MjYxODE2NTFjLWF0dHItNy1uYW1lIiBjbGFzcz0iZXIgZW50aXR5TGFiZWwiPmJvdmlub3NfdG9yb3M8L3RleHQ+PHJlY3QgaGVpZ2h0PSIyMiIgd2lkdGg9IjM2LjYxOTA5NDg0ODYzMjgxIiB5PSIxNzgiIHg9IjAiIGNsYXNzPSJlciBhdHRyaWJ1dGVCb3hFdmVuIj48L3JlY3Q+PHRleHQgc3R5bGU9ImRvbWluYW50LWJhc2VsaW5lOiBtaWRkbGU7IGZvbnQtc2l6ZTogMTAuMnB4OyIgdHJhbnNmb3JtPSJ0cmFuc2xhdGUoNSwxODkpIiB5PSIwIiB4PSIwIiBpZD0idGV4dC1lbnRpdHktSU5WRU5UQVJJT0JPVklOT1MtODdmOWIwOTAtYTRmYS01MzBiLWExMDEtYWI5MjYxODE2NTFjLWF0dHItOC10eXBlIiBjbGFzcz0iZXIgZW50aXR5TGFiZWwiPmludDwvdGV4dD48cmVjdCBoZWlnaHQ9IjIyIiB3aWR0aD0iMTE5LjkxNzI5NzM2MzI4MTI1IiB5PSIxNzgiIHg9IjM2LjYxOTA5NDg0ODYzMjgxIiBjbGFzcz0iZXIgYXR0cmlidXRlQm94RXZlbiI+PC9yZWN0Pjx0ZXh0IHN0eWxlPSJkb21pbmFudC1iYXNlbGluZTogbWlkZGxlOyBmb250LXNpemU6IDEwLjJweDsiIHRyYW5zZm9ybT0idHJhbnNsYXRlKDQxLjYxOTA5NDg0ODYzMjgxLDE4OSkiIHk9IjAiIHg9IjAiIGlkPSJ0ZXh0LWVudGl0eS1JTlZFTlRBUklPQk9WSU5PUy04N2Y5YjA5MC1hNGZhLTUzMGItYTEwMS1hYjkyNjE4MTY1MWMtYXR0ci04LW5hbWUiIGNsYXNzPSJlciBlbnRpdHlMYWJlbCI+dG90YWxfbWFjaG9zPC90ZXh0PjxyZWN0IGhlaWdodD0iMjIiIHdpZHRoPSIzNi42MTkwOTQ4NDg2MzI4MSIgeT0iMjAwIiB4PSIwIiBjbGFzcz0iZXIgYXR0cmlidXRlQm94T2RkIj48L3JlY3Q+PHRleHQgc3R5bGU9ImRvbWluYW50LWJhc2VsaW5lOiBtaWRkbGU7IGZvbnQtc2l6ZTogMTAuMnB4OyIgdHJhbnNmb3JtPSJ0cmFuc2xhdGUoNSwyMTEpIiB5PSIwIiB4PSIwIiBpZD0idGV4dC1lbnRpdHktSU5WRU5UQVJJT0JPVklOT1MtODdmOWIwOTAtYTRmYS01MzBiLWExMDEtYWI5MjYxODE2NTFjLWF0dHItOS10eXBlIiBjbGFzcz0iZXIgZW50aXR5TGFiZWwiPmludDwvdGV4dD48cmVjdCBoZWlnaHQ9IjIyIiB3aWR0aD0iMTE5LjkxNzI5NzM2MzI4MTI1IiB5PSIyMDAiIHg9IjM2LjYxOTA5NDg0ODYzMjgxIiBjbGFzcz0iZXIgYXR0cmlidXRlQm94T2RkIj48L3JlY3Q+PHRleHQgc3R5bGU9ImRvbWluYW50LWJhc2VsaW5lOiBtaWRkbGU7IGZvbnQtc2l6ZTogMTAuMnB4OyIgdHJhbnNmb3JtPSJ0cmFuc2xhdGUoNDEuNjE5MDk0ODQ4NjMyODEsMjExKSIgeT0iMCIgeD0iMCIgaWQ9InRleHQtZW50aXR5LUlOVkVOVEFSSU9CT1ZJTk9TLTg3ZjliMDkwLWE0ZmEtNTMwYi1hMTAxLWFiOTI2MTgxNjUxYy1hdHRyLTktbmFtZSIgY2xhc3M9ImVyIGVudGl0eUxhYmVsIj5ib3Zpbm9zX2NyaWFfaGVtYnJhPC90ZXh0PjxyZWN0IGhlaWdodD0iMjIiIHdpZHRoPSIzNi42MTkwOTQ4NDg2MzI4MSIgeT0iMjIyIiB4PSIwIiBjbGFzcz0iZXIgYXR0cmlidXRlQm94RXZlbiI+PC9yZWN0Pjx0ZXh0IHN0eWxlPSJkb21pbmFudC1iYXNlbGluZTogbWlkZGxlOyBmb250LXNpemU6IDEwLjJweDsiIHRyYW5zZm9ybT0idHJhbnNsYXRlKDUsMjMzKSIgeT0iMCIgeD0iMCIgaWQ9InRleHQtZW50aXR5LUlOVkVOVEFSSU9CT1ZJTk9TLTg3ZjliMDkwLWE0ZmEtNTMwYi1hMTAxLWFiOTI2MTgxNjUxYy1hdHRyLTEwLXR5cGUiIGNsYXNzPSJlciBlbnRpdHlMYWJlbCI+aW50PC90ZXh0PjxyZWN0IGhlaWdodD0iMjIiIHdpZHRoPSIxMTkuOTE3Mjk3MzYzMjgxMjUiIHk9IjIyMiIgeD0iMzYuNjE5MDk0ODQ4NjMyODEiIGNsYXNzPSJlciBhdHRyaWJ1dGVCb3hFdmVuIj48L3JlY3Q+PHRleHQgc3R5bGU9ImRvbWluYW50LWJhc2VsaW5lOiBtaWRkbGU7IGZvbnQtc2l6ZTogMTAuMnB4OyIgdHJhbnNmb3JtPSJ0cmFuc2xhdGUoNDEuNjE5MDk0ODQ4NjMyODEsMjMzKSIgeT0iMCIgeD0iMCIgaWQ9InRleHQtZW50aXR5LUlOVkVOVEFSSU9CT1ZJTk9TLTg3ZjliMDkwLWE0ZmEtNTMwYi1hMTAxLWFiOTI2MTgxNjUxYy1hdHRyLTEwLW5hbWUiIGNsYXNzPSJlciBlbnRpdHlMYWJlbCI+Ym92aW5vc19ub3ZpbGxhX2xldmFudGU8L3RleHQ+PHJlY3QgaGVpZ2h0PSIyMiIgd2lkdGg9IjM2LjYxOTA5NDg0ODYzMjgxIiB5PSIyNDQiIHg9IjAiIGNsYXNzPSJlciBhdHRyaWJ1dGVCb3hPZGQiPjwvcmVjdD48dGV4dCBzdHlsZT0iZG9taW5hbnQtYmFzZWxpbmU6IG1pZGRsZTsgZm9udC1zaXplOiAxMC4ycHg7IiB0cmFuc2Zvcm09InRyYW5zbGF0ZSg1LDI1NSkiIHk9IjAiIHg9IjAiIGlkPSJ0ZXh0LWVudGl0eS1JTlZFTlRBUklPQk9WSU5PUy04N2Y5YjA5MC1hNGZhLTUzMGItYTEwMS1hYjkyNjE4MTY1MWMtYXR0ci0xMS10eXBlIiBjbGFzcz0iZXIgZW50aXR5TGFiZWwiPmludDwvdGV4dD48cmVjdCBoZWlnaHQ9IjIyIiB3aWR0aD0iMTE5LjkxNzI5NzM2MzI4MTI1IiB5PSIyNDQiIHg9IjM2LjYxOTA5NDg0ODYzMjgxIiBjbGFzcz0iZXIgYXR0cmlidXRlQm94T2RkIj48L3JlY3Q+PHRleHQgc3R5bGU9ImRvbWluYW50LWJhc2VsaW5lOiBtaWRkbGU7IGZvbnQtc2l6ZTogMTAuMnB4OyIgdHJhbnNmb3JtPSJ0cmFuc2xhdGUoNDEuNjE5MDk0ODQ4NjMyODEsMjU1KSIgeT0iMCIgeD0iMCIgaWQ9InRleHQtZW50aXR5LUlOVkVOVEFSSU9CT1ZJTk9TLTg3ZjliMDkwLWE0ZmEtNTMwYi1hMTAxLWFiOTI2MTgxNjUxYy1hdHRyLTExLW5hbWUiIGNsYXNzPSJlciBlbnRpdHlMYWJlbCI+Ym92aW5vc19ub3ZpbGxhX3ZpZW50cmU8L3RleHQ+PHJlY3QgaGVpZ2h0PSIyMiIgd2lkdGg9IjM2LjYxOTA5NDg0ODYzMjgxIiB5PSIyNjYiIHg9IjAiIGNsYXNzPSJlciBhdHRyaWJ1dGVCb3hFdmVuIj48L3JlY3Q+PHRleHQgc3R5bGU9ImRvbWluYW50LWJhc2VsaW5lOiBtaWRkbGU7IGZvbnQtc2l6ZTogMTAuMnB4OyIgdHJhbnNmb3JtPSJ0cmFuc2xhdGUoNSwyNzcpIiB5PSIwIiB4PSIwIiBpZD0idGV4dC1lbnRpdHktSU5WRU5UQVJJT0JPVklOT1MtODdmOWIwOTAtYTRmYS01MzBiLWExMDEtYWI5MjYxODE2NTFjLWF0dHItMTItdHlwZSIgY2xhc3M9ImVyIGVudGl0eUxhYmVsIj5pbnQ8L3RleHQ+PHJlY3QgaGVpZ2h0PSIyMiIgd2lkdGg9IjExOS45MTcyOTczNjMyODEyNSIgeT0iMjY2IiB4PSIzNi42MTkwOTQ4NDg2MzI4MSIgY2xhc3M9ImVyIGF0dHJpYnV0ZUJveEV2ZW4iPjwvcmVjdD48dGV4dCBzdHlsZT0iZG9taW5hbnQtYmFzZWxpbmU6IG1pZGRsZTsgZm9udC1zaXplOiAxMC4ycHg7IiB0cmFuc2Zvcm09InRyYW5zbGF0ZSg0MS42MTkwOTQ4NDg2MzI4MSwyNzcpIiB5PSIwIiB4PSIwIiBpZD0idGV4dC1lbnRpdHktSU5WRU5UQVJJT0JPVklOT1MtODdmOWIwOTAtYTRmYS01MzBiLWExMDEtYWI5MjYxODE2NTFjLWF0dHItMTItbmFtZSIgY2xhc3M9ImVyIGVudGl0eUxhYmVsIj5ib3Zpbm9zX3ZhY2E8L3RleHQ+PHJlY3QgaGVpZ2h0PSIyMiIgd2lkdGg9IjM2LjYxOTA5NDg0ODYzMjgxIiB5PSIyODgiIHg9IjAiIGNsYXNzPSJlciBhdHRyaWJ1dGVCb3hPZGQiPjwvcmVjdD48dGV4dCBzdHlsZT0iZG9taW5hbnQtYmFzZWxpbmU6IG1pZGRsZTsgZm9udC1zaXplOiAxMC4ycHg7IiB0cmFuc2Zvcm09InRyYW5zbGF0ZSg1LDI5OSkiIHk9IjAiIHg9IjAiIGlkPSJ0ZXh0LWVudGl0eS1JTlZFTlRBUklPQk9WSU5PUy04N2Y5YjA5MC1hNGZhLTUzMGItYTEwMS1hYjkyNjE4MTY1MWMtYXR0ci0xMy10eXBlIiBjbGFzcz0iZXIgZW50aXR5TGFiZWwiPmludDwvdGV4dD48cmVjdCBoZWlnaHQ9IjIyIiB3aWR0aD0iMTE5LjkxNzI5NzM2MzI4MTI1IiB5PSIyODgiIHg9IjM2LjYxOTA5NDg0ODYzMjgxIiBjbGFzcz0iZXIgYXR0cmlidXRlQm94T2RkIj48L3JlY3Q+PHRleHQgc3R5bGU9ImRvbWluYW50LWJhc2VsaW5lOiBtaWRkbGU7IGZvbnQtc2l6ZTogMTAuMnB4OyIgdHJhbnNmb3JtPSJ0cmFuc2xhdGUoNDEuNjE5MDk0ODQ4NjMyODEsMjk5KSIgeT0iMCIgeD0iMCIgaWQ9InRleHQtZW50aXR5LUlOVkVOVEFSSU9CT1ZJTk9TLTg3ZjliMDkwLWE0ZmEtNTMwYi1hMTAxLWFiOTI2MTgxNjUxYy1hdHRyLTEzLW5hbWUiIGNsYXNzPSJlciBlbnRpdHlMYWJlbCI+dG90YWxfaGVtYnJhczwvdGV4dD48cmVjdCBoZWlnaHQ9IjIyIiB3aWR0aD0iMzYuNjE5MDk0ODQ4NjMyODEiIHk9IjMxMCIgeD0iMCIgY2xhc3M9ImVyIGF0dHJpYnV0ZUJveEV2ZW4iPjwvcmVjdD48dGV4dCBzdHlsZT0iZG9taW5hbnQtYmFzZWxpbmU6IG1pZGRsZTsgZm9udC1zaXplOiAxMC4ycHg7IiB0cmFuc2Zvcm09InRyYW5zbGF0ZSg1LDMyMSkiIHk9IjAiIHg9IjAiIGlkPSJ0ZXh0LWVudGl0eS1JTlZFTlRBUklPQk9WSU5PUy04N2Y5YjA5MC1hNGZhLTUzMGItYTEwMS1hYjkyNjE4MTY1MWMtYXR0ci0xNC10eXBlIiBjbGFzcz0iZXIgZW50aXR5TGFiZWwiPmludDwvdGV4dD48cmVjdCBoZWlnaHQ9IjIyIiB3aWR0aD0iMTE5LjkxNzI5NzM2MzI4MTI1IiB5PSIzMTAiIHg9IjM2LjYxOTA5NDg0ODYzMjgxIiBjbGFzcz0iZXIgYXR0cmlidXRlQm94RXZlbiI+PC9yZWN0Pjx0ZXh0IHN0eWxlPSJkb21pbmFudC1iYXNlbGluZTogbWlkZGxlOyBmb250LXNpemU6IDEwLjJweDsiIHRyYW5zZm9ybT0idHJhbnNsYXRlKDQxLjYxOTA5NDg0ODYzMjgxLDMyMSkiIHk9IjAiIHg9IjAiIGlkPSJ0ZXh0LWVudGl0eS1JTlZFTlRBUklPQk9WSU5PUy04N2Y5YjA5MC1hNGZhLTUzMGItYTEwMS1hYjkyNjE4MTY1MWMtYXR0ci0xNC1uYW1lIiBjbGFzcz0iZXIgZW50aXR5TGFiZWwiPnRvdGFsX2Jvdmlub3M8L3RleHQ+PHJlY3QgaGVpZ2h0PSIyMiIgd2lkdGg9IjM2LjYxOTA5NDg0ODYzMjgxIiB5PSIzMzIiIHg9IjAiIGNsYXNzPSJlciBhdHRyaWJ1dGVCb3hPZGQiPjwvcmVjdD48dGV4dCBzdHlsZT0iZG9taW5hbnQtYmFzZWxpbmU6IG1pZGRsZTsgZm9udC1zaXplOiAxMC4ycHg7IiB0cmFuc2Zvcm09InRyYW5zbGF0ZSg1LDM0MykiIHk9IjAiIHg9IjAiIGlkPSJ0ZXh0LWVudGl0eS1JTlZFTlRBUklPQk9WSU5PUy04N2Y5YjA5MC1hNGZhLTUzMGItYTEwMS1hYjkyNjE4MTY1MWMtYXR0ci0xNS10eXBlIiBjbGFzcz0iZXIgZW50aXR5TGFiZWwiPmZsb2F0PC90ZXh0PjxyZWN0IGhlaWdodD0iMjIiIHdpZHRoPSIxMTkuOTE3Mjk3MzYzMjgxMjUiIHk9IjMzMiIgeD0iMzYuNjE5MDk0ODQ4NjMyODEiIGNsYXNzPSJlciBhdHRyaWJ1dGVCb3hPZGQiPjwvcmVjdD48dGV4dCBzdHlsZT0iZG9taW5hbnQtYmFzZWxpbmU6IG1pZGRsZTsgZm9udC1zaXplOiAxMC4ycHg7IiB0cmFuc2Zvcm09InRyYW5zbGF0ZSg0MS42MTkwOTQ4NDg2MzI4MSwzNDMpIiB5PSIwIiB4PSIwIiBpZD0idGV4dC1lbnRpdHktSU5WRU5UQVJJT0JPVklOT1MtODdmOWIwOTAtYTRmYS01MzBiLWExMDEtYWI5MjYxODE2NTFjLWF0dHItMTUtbmFtZSIgY2xhc3M9ImVyIGVudGl0eUxhYmVsIj50b3RhbF9wYXN0b3M8L3RleHQ+PHJlY3QgaGVpZ2h0PSIyMiIgd2lkdGg9IjM2LjYxOTA5NDg0ODYzMjgxIiB5PSIzNTQiIHg9IjAiIGNsYXNzPSJlciBhdHRyaWJ1dGVCb3hFdmVuIj48L3JlY3Q+PHRleHQgc3R5bGU9ImRvbWluYW50LWJhc2VsaW5lOiBtaWRkbGU7IGZvbnQtc2l6ZTogMTAuMnB4OyIgdHJhbnNmb3JtPSJ0cmFuc2xhdGUoNSwzNjUpIiB5PSIwIiB4PSIwIiBpZD0idGV4dC1lbnRpdHktSU5WRU5UQVJJT0JPVklOT1MtODdmOWIwOTAtYTRmYS01MzBiLWExMDEtYWI5MjYxODE2NTFjLWF0dHItMTYtdHlwZSIgY2xhc3M9ImVyIGVudGl0eUxhYmVsIj5mbG9hdDwvdGV4dD48cmVjdCBoZWlnaHQ9IjIyIiB3aWR0aD0iMTE5LjkxNzI5NzM2MzI4MTI1IiB5PSIzNTQiIHg9IjM2LjYxOTA5NDg0ODYzMjgxIiBjbGFzcz0iZXIgYXR0cmlidXRlQm94RXZlbiI+PC9yZWN0Pjx0ZXh0IHN0eWxlPSJkb21pbmFudC1iYXNlbGluZTogbWlkZGxlOyBmb250LXNpemU6IDEwLjJweDsiIHRyYW5zZm9ybT0idHJhbnNsYXRlKDQxLjYxOTA5NDg0ODYzMjgxLDM2NSkiIHk9IjAiIHg9IjAiIGlkPSJ0ZXh0LWVudGl0eS1JTlZFTlRBUklPQk9WSU5PUy04N2Y5YjA5MC1hNGZhLTUzMGItYTEwMS1hYjkyNjE4MTY1MWMtYXR0ci0xNi1uYW1lIiBjbGFzcz0iZXIgZW50aXR5TGFiZWwiPnBhc3RvX2NvcnRlPC90ZXh0PjxyZWN0IGhlaWdodD0iMjIiIHdpZHRoPSIzNi42MTkwOTQ4NDg2MzI4MSIgeT0iMzc2IiB4PSIwIiBjbGFzcz0iZXIgYXR0cmlidXRlQm94T2RkIj48L3JlY3Q+PHRleHQgc3R5bGU9ImRvbWluYW50LWJhc2VsaW5lOiBtaWRkbGU7IGZvbnQtc2l6ZTogMTAuMnB4OyIgdHJhbnNmb3JtPSJ0cmFuc2xhdGUoNSwzODcpIiB5PSIwIiB4PSIwIiBpZD0idGV4dC1lbnRpdHktSU5WRU5UQVJJT0JPVklOT1MtODdmOWIwOTAtYTRmYS01MzBiLWExMDEtYWI5MjYxODE2NTFjLWF0dHItMTctdHlwZSIgY2xhc3M9ImVyIGVudGl0eUxhYmVsIj5mbG9hdDwvdGV4dD48cmVjdCBoZWlnaHQ9IjIyIiB3aWR0aD0iMTE5LjkxNzI5NzM2MzI4MTI1IiB5PSIzNzYiIHg9IjM2LjYxOTA5NDg0ODYzMjgxIiBjbGFzcz0iZXIgYXR0cmlidXRlQm94T2RkIj48L3JlY3Q+PHRleHQgc3R5bGU9ImRvbWluYW50LWJhc2VsaW5lOiBtaWRkbGU7IGZvbnQtc2l6ZTogMTAuMnB4OyIgdHJhbnNmb3JtPSJ0cmFuc2xhdGUoNDEuNjE5MDk0ODQ4NjMyODEsMzg3KSIgeT0iMCIgeD0iMCIgaWQ9InRleHQtZW50aXR5LUlOVkVOVEFSSU9CT1ZJTk9TLTg3ZjliMDkwLWE0ZmEtNTMwYi1hMTAxLWFiOTI2MTgxNjUxYy1hdHRyLTE3LW5hbWUiIGNsYXNzPSJlciBlbnRpdHlMYWJlbCI+cGFzdG9fbmF0dXJhbDwvdGV4dD48cmVjdCBoZWlnaHQ9IjIyIiB3aWR0aD0iMzYuNjE5MDk0ODQ4NjMyODEiIHk9IjM5OCIgeD0iMCIgY2xhc3M9ImVyIGF0dHJpYnV0ZUJveEV2ZW4iPjwvcmVjdD48dGV4dCBzdHlsZT0iZG9taW5hbnQtYmFzZWxpbmU6IG1pZGRsZTsgZm9udC1zaXplOiAxMC4ycHg7IiB0cmFuc2Zvcm09InRyYW5zbGF0ZSg1LDQwOSkiIHk9IjAiIHg9IjAiIGlkPSJ0ZXh0LWVudGl0eS1JTlZFTlRBUklPQk9WSU5PUy04N2Y5YjA5MC1hNGZhLTUzMGItYTEwMS1hYjkyNjE4MTY1MWMtYXR0ci0xOC10eXBlIiBjbGFzcz0iZXIgZW50aXR5TGFiZWwiPmZsb2F0PC90ZXh0PjxyZWN0IGhlaWdodD0iMjIiIHdpZHRoPSIxMTkuOTE3Mjk3MzYzMjgxMjUiIHk9IjM5OCIgeD0iMzYuNjE5MDk0ODQ4NjMyODEiIGNsYXNzPSJlciBhdHRyaWJ1dGVCb3hFdmVuIj48L3JlY3Q+PHRleHQgc3R5bGU9ImRvbWluYW50LWJhc2VsaW5lOiBtaWRkbGU7IGZvbnQtc2l6ZTogMTAuMnB4OyIgdHJhbnNmb3JtPSJ0cmFuc2xhdGUoNDEuNjE5MDk0ODQ4NjMyODEsNDA5KSIgeT0iMCIgeD0iMCIgaWQ9InRleHQtZW50aXR5LUlOVkVOVEFSSU9CT1ZJTk9TLTg3ZjliMDkwLWE0ZmEtNTMwYi1hMTAxLWFiOTI2MTgxNjUxYy1hdHRyLTE4LW5hbWUiIGNsYXNzPSJlciBlbnRpdHlMYWJlbCI+cGFzdG9fbWVqb3JhZG88L3RleHQ+PC9nPjxnIHRyYW5zZm9ybT0idHJhbnNsYXRlKDI5MC4zMzI3MzMxNTQyOTY5LDU0MCApIiBpZD0iZW50aXR5LURBVE9TRU5SSVFVRUNJRE9TLWJmNmY1OWQ3LWQ5MTAtNWUzMy1hOTQwLTVjN2NmYTI2ZmQ1YSI+PHJlY3QgaGVpZ2h0PSIxMTI0IiB3aWR0aD0iMTgyLjY0Mzk4MTkzMzU5Mzc1IiB5PSIwIiB4PSIwIiBjbGFzcz0iZXIgZW50aXR5Qm94Ij48L3JlY3Q+PHRleHQgc3R5bGU9ImRvbWluYW50LWJhc2VsaW5lOiBtaWRkbGU7IHRleHQtYW5jaG9yOiBtaWRkbGU7IGZvbnQtc2l6ZTogMTJweDsiIHRyYW5zZm9ybT0idHJhbnNsYXRlKDkxLjMyMTk5MDk2Njc5Njg4LDEyKSIgeT0iMCIgeD0iMCIgaWQ9InRleHQtZW50aXR5LURBVE9TRU5SSVFVRUNJRE9TLWJmNmY1OWQ3LWQ5MTAtNWUzMy1hOTQwLTVjN2NmYTI2ZmQ1YSIgY2xhc3M9ImVyIGVudGl0eUxhYmVsIj5EQVRPU19FTlJJUVVFQ0lET1M8L3RleHQ+PHJlY3QgaGVpZ2h0PSIyMiIgd2lkdGg9IjUyLjA2ODQ5NjcwNDEwMTU2IiB5PSIyNCIgeD0iMCIgY2xhc3M9ImVyIGF0dHJpYnV0ZUJveE9kZCI+PC9yZWN0Pjx0ZXh0IHN0eWxlPSJkb21pbmFudC1iYXNlbGluZTogbWlkZGxlOyBmb250LXNpemU6IDEwLjJweDsiIHRyYW5zZm9ybT0idHJhbnNsYXRlKDUsMzUpIiB5PSIwIiB4PSIwIiBpZD0idGV4dC1lbnRpdHktREFUT1NFTlJJUVVFQ0lET1MtYmY2ZjU5ZDctZDkxMC01ZTMzLWE5NDAtNWM3Y2ZhMjZmZDVhLWF0dHItMS10eXBlIiBjbGFzcz0iZXIgZW50aXR5TGFiZWwiPnN0cmluZzwvdGV4dD48cmVjdCBoZWlnaHQ9IjIyIiB3aWR0aD0iMTMwLjU3NTQ4NTIyOTQ5MjIiIHk9IjI0IiB4PSI1Mi4wNjg0OTY3MDQxMDE1NiIgY2xhc3M9ImVyIGF0dHJpYnV0ZUJveE9kZCI+PC9yZWN0Pjx0ZXh0IHN0eWxlPSJkb21pbmFudC1iYXNlbGluZTogbWlkZGxlOyBmb250LXNpemU6IDEwLjJweDsiIHRyYW5zZm9ybT0idHJhbnNsYXRlKDU3LjA2ODQ5NjcwNDEwMTU2LDM1KSIgeT0iMCIgeD0iMCIgaWQ9InRleHQtZW50aXR5LURBVE9TRU5SSVFVRUNJRE9TLWJmNmY1OWQ3LWQ5MTAtNWUzMy1hOTQwLTVjN2NmYTI2ZmQ1YS1hdHRyLTEtbmFtZSIgY2xhc3M9ImVyIGVudGl0eUxhYmVsIj5oYXNoPC90ZXh0PjxyZWN0IGhlaWdodD0iMjIiIHdpZHRoPSI1Mi4wNjg0OTY3MDQxMDE1NiIgeT0iNDYiIHg9IjAiIGNsYXNzPSJlciBhdHRyaWJ1dGVCb3hFdmVuIj48L3JlY3Q+PHRleHQgc3R5bGU9ImRvbWluYW50LWJhc2VsaW5lOiBtaWRkbGU7IGZvbnQtc2l6ZTogMTAuMnB4OyIgdHJhbnNmb3JtPSJ0cmFuc2xhdGUoNSw1NykiIHk9IjAiIHg9IjAiIGlkPSJ0ZXh0LWVudGl0eS1EQVRPU0VOUklRVUVDSURPUy1iZjZmNTlkNy1kOTEwLTVlMzMtYTk0MC01YzdjZmEyNmZkNWEtYXR0ci0yLXR5cGUiIGNsYXNzPSJlciBlbnRpdHlMYWJlbCI+ZGF0ZTwvdGV4dD48cmVjdCBoZWlnaHQ9IjIyIiB3aWR0aD0iMTMwLjU3NTQ4NTIyOTQ5MjIiIHk9IjQ2IiB4PSI1Mi4wNjg0OTY3MDQxMDE1NiIgY2xhc3M9ImVyIGF0dHJpYnV0ZUJveEV2ZW4iPjwvcmVjdD48dGV4dCBzdHlsZT0iZG9taW5hbnQtYmFzZWxpbmU6IG1pZGRsZTsgZm9udC1zaXplOiAxMC4ycHg7IiB0cmFuc2Zvcm09InRyYW5zbGF0ZSg1Ny4wNjg0OTY3MDQxMDE1Niw1NykiIHk9IjAiIHg9IjAiIGlkPSJ0ZXh0LWVudGl0eS1EQVRPU0VOUklRVUVDSURPUy1iZjZmNTlkNy1kOTEwLTVlMzMtYTk0MC01YzdjZmEyNmZkNWEtYXR0ci0yLW5hbWUiIGNsYXNzPSJlciBlbnRpdHlMYWJlbCI+ZmVjaGE8L3RleHQ+PHJlY3QgaGVpZ2h0PSIyMiIgd2lkdGg9IjUyLjA2ODQ5NjcwNDEwMTU2IiB5PSI2OCIgeD0iMCIgY2xhc3M9ImVyIGF0dHJpYnV0ZUJveE9kZCI+PC9yZWN0Pjx0ZXh0IHN0eWxlPSJkb21pbmFudC1iYXNlbGluZTogbWlkZGxlOyBmb250LXNpemU6IDEwLjJweDsiIHRyYW5zZm9ybT0idHJhbnNsYXRlKDUsNzkpIiB5PSIwIiB4PSIwIiBpZD0idGV4dC1lbnRpdHktREFUT1NFTlJJUVVFQ0lET1MtYmY2ZjU5ZDctZDkxMC01ZTMzLWE5NDAtNWM3Y2ZhMjZmZDVhLWF0dHItMy10eXBlIiBjbGFzcz0iZXIgZW50aXR5TGFiZWwiPmludDwvdGV4dD48cmVjdCBoZWlnaHQ9IjIyIiB3aWR0aD0iMTMwLjU3NTQ4NTIyOTQ5MjIiIHk9IjY4IiB4PSI1Mi4wNjg0OTY3MDQxMDE1NiIgY2xhc3M9ImVyIGF0dHJpYnV0ZUJveE9kZCI+PC9yZWN0Pjx0ZXh0IHN0eWxlPSJkb21pbmFudC1iYXNlbGluZTogbWlkZGxlOyBmb250LXNpemU6IDEwLjJweDsiIHRyYW5zZm9ybT0idHJhbnNsYXRlKDU3LjA2ODQ5NjcwNDEwMTU2LDc5KSIgeT0iMCIgeD0iMCIgaWQ9InRleHQtZW50aXR5LURBVE9TRU5SSVFVRUNJRE9TLWJmNmY1OWQ3LWQ5MTAtNWUzMy1hOTQwLTVjN2NmYTI2ZmQ1YS1hdHRyLTMtbmFtZSIgY2xhc3M9ImVyIGVudGl0eUxhYmVsIj5jYXNvc19wb3NpdGl2b3M8L3RleHQ+PHJlY3QgaGVpZ2h0PSIyMiIgd2lkdGg9IjUyLjA2ODQ5NjcwNDEwMTU2IiB5PSI5MCIgeD0iMCIgY2xhc3M9ImVyIGF0dHJpYnV0ZUJveEV2ZW4iPjwvcmVjdD48dGV4dCBzdHlsZT0iZG9taW5hbnQtYmFzZWxpbmU6IG1pZGRsZTsgZm9udC1zaXplOiAxMC4ycHg7IiB0cmFuc2Zvcm09InRyYW5zbGF0ZSg1LDEwMSkiIHk9IjAiIHg9IjAiIGlkPSJ0ZXh0LWVudGl0eS1EQVRPU0VOUklRVUVDSURPUy1iZjZmNTlkNy1kOTEwLTVlMzMtYTk0MC01YzdjZmEyNmZkNWEtYXR0ci00LXR5cGUiIGNsYXNzPSJlciBlbnRpdHlMYWJlbCI+aW50PC90ZXh0PjxyZWN0IGhlaWdodD0iMjIiIHdpZHRoPSIxMzAuNTc1NDg1MjI5NDkyMiIgeT0iOTAiIHg9IjUyLjA2ODQ5NjcwNDEwMTU2IiBjbGFzcz0iZXIgYXR0cmlidXRlQm94RXZlbiI+PC9yZWN0Pjx0ZXh0IHN0eWxlPSJkb21pbmFudC1iYXNlbGluZTogbWlkZGxlOyBmb250LXNpemU6IDEwLjJweDsiIHRyYW5zZm9ybT0idHJhbnNsYXRlKDU3LjA2ODQ5NjcwNDEwMTU2LDEwMSkiIHk9IjAiIHg9IjAiIGlkPSJ0ZXh0LWVudGl0eS1EQVRPU0VOUklRVUVDSURPUy1iZjZmNTlkNy1kOTEwLTVlMzMtYTk0MC01YzdjZmEyNmZkNWEtYXR0ci00LW5hbWUiIGNsYXNzPSJlciBlbnRpdHlMYWJlbCI+ZmFsbGVjaWRvczwvdGV4dD48cmVjdCBoZWlnaHQ9IjIyIiB3aWR0aD0iNTIuMDY4NDk2NzA0MTAxNTYiIHk9IjExMiIgeD0iMCIgY2xhc3M9ImVyIGF0dHJpYnV0ZUJveE9kZCI+PC9yZWN0Pjx0ZXh0IHN0eWxlPSJkb21pbmFudC1iYXNlbGluZTogbWlkZGxlOyBmb250LXNpemU6IDEwLjJweDsiIHRyYW5zZm9ybT0idHJhbnNsYXRlKDUsMTIzKSIgeT0iMCIgeD0iMCIgaWQ9InRleHQtZW50aXR5LURBVE9TRU5SSVFVRUNJRE9TLWJmNmY1OWQ3LWQ5MTAtNWUzMy1hOTQwLTVjN2NmYTI2ZmQ1YS1hdHRyLTUtdHlwZSIgY2xhc3M9ImVyIGVudGl0eUxhYmVsIj5pbnQ8L3RleHQ+PHJlY3QgaGVpZ2h0PSIyMiIgd2lkdGg9IjEzMC41NzU0ODUyMjk0OTIyIiB5PSIxMTIiIHg9IjUyLjA2ODQ5NjcwNDEwMTU2IiBjbGFzcz0iZXIgYXR0cmlidXRlQm94T2RkIj48L3JlY3Q+PHRleHQgc3R5bGU9ImRvbWluYW50LWJhc2VsaW5lOiBtaWRkbGU7IGZvbnQtc2l6ZTogMTAuMnB4OyIgdHJhbnNmb3JtPSJ0cmFuc2xhdGUoNTcuMDY4NDk2NzA0MTAxNTYsMTIzKSIgeT0iMCIgeD0iMCIgaWQ9InRleHQtZW50aXR5LURBVE9TRU5SSVFVRUNJRE9TLWJmNmY1OWQ3LWQ5MTAtNWUzMy1hOTQwLTVjN2NmYTI2ZmQ1YS1hdHRyLTUtbmFtZSIgY2xhc3M9ImVyIGVudGl0eUxhYmVsIj5ob3NwaXRhbGl6YWRvczwvdGV4dD48cmVjdCBoZWlnaHQ9IjIyIiB3aWR0aD0iNTIuMDY4NDk2NzA0MTAxNTYiIHk9IjEzNCIgeD0iMCIgY2xhc3M9ImVyIGF0dHJpYnV0ZUJveEV2ZW4iPjwvcmVjdD48dGV4dCBzdHlsZT0iZG9taW5hbnQtYmFzZWxpbmU6IG1pZGRsZTsgZm9udC1zaXplOiAxMC4ycHg7IiB0cmFuc2Zvcm09InRyYW5zbGF0ZSg1LDE0NSkiIHk9IjAiIHg9IjAiIGlkPSJ0ZXh0LWVudGl0eS1EQVRPU0VOUklRVUVDSURPUy1iZjZmNTlkNy1kOTEwLTVlMzMtYTk0MC01YzdjZmEyNmZkNWEtYXR0ci02LXR5cGUiIGNsYXNzPSJlciBlbnRpdHlMYWJlbCI+aW50PC90ZXh0PjxyZWN0IGhlaWdodD0iMjIiIHdpZHRoPSIxMzAuNTc1NDg1MjI5NDkyMiIgeT0iMTM0IiB4PSI1Mi4wNjg0OTY3MDQxMDE1NiIgY2xhc3M9ImVyIGF0dHJpYnV0ZUJveEV2ZW4iPjwvcmVjdD48dGV4dCBzdHlsZT0iZG9taW5hbnQtYmFzZWxpbmU6IG1pZGRsZTsgZm9udC1zaXplOiAxMC4ycHg7IiB0cmFuc2Zvcm09InRyYW5zbGF0ZSg1Ny4wNjg0OTY3MDQxMDE1NiwxNDUpIiB5PSIwIiB4PSIwIiBpZD0idGV4dC1lbnRpdHktREFUT1NFTlJJUVVFQ0lET1MtYmY2ZjU5ZDctZDkxMC01ZTMzLWE5NDAtNWM3Y2ZhMjZmZDVhLWF0dHItNi1uYW1lIiBjbGFzcz0iZXIgZW50aXR5TGFiZWwiPnRvdGFsX3Jlc3VsdGFkb3M8L3RleHQ+PHJlY3QgaGVpZ2h0PSIyMiIgd2lkdGg9IjUyLjA2ODQ5NjcwNDEwMTU2IiB5PSIxNTYiIHg9IjAiIGNsYXNzPSJlciBhdHRyaWJ1dGVCb3hPZGQiPjwvcmVjdD48dGV4dCBzdHlsZT0iZG9taW5hbnQtYmFzZWxpbmU6IG1pZGRsZTsgZm9udC1zaXplOiAxMC4ycHg7IiB0cmFuc2Zvcm09InRyYW5zbGF0ZSg1LDE2NykiIHk9IjAiIHg9IjAiIGlkPSJ0ZXh0LWVudGl0eS1EQVRPU0VOUklRVUVDSURPUy1iZjZmNTlkNy1kOTEwLTVlMzMtYTk0MC01YzdjZmEyNmZkNWEtYXR0ci03LXR5cGUiIGNsYXNzPSJlciBlbnRpdHlMYWJlbCI+aW50PC90ZXh0PjxyZWN0IGhlaWdodD0iMjIiIHdpZHRoPSIxMzAuNTc1NDg1MjI5NDkyMiIgeT0iMTU2IiB4PSI1Mi4wNjg0OTY3MDQxMDE1NiIgY2xhc3M9ImVyIGF0dHJpYnV0ZUJveE9kZCI+PC9yZWN0Pjx0ZXh0IHN0eWxlPSJkb21pbmFudC1iYXNlbGluZTogbWlkZGxlOyBmb250LXNpemU6IDEwLjJweDsiIHRyYW5zZm9ybT0idHJhbnNsYXRlKDU3LjA2ODQ5NjcwNDEwMTU2LDE2NykiIHk9IjAiIHg9IjAiIGlkPSJ0ZXh0LWVudGl0eS1EQVRPU0VOUklRVUVDSURPUy1iZjZmNTlkNy1kOTEwLTVlMzMtYTk0MC01YzdjZmEyNmZkNWEtYXR0ci03LW5hbWUiIGNsYXNzPSJlciBlbnRpdHlMYWJlbCI+aW5jcmVtZW50b19wb3NpdGl2b3M8L3RleHQ+PHJlY3QgaGVpZ2h0PSIyMiIgd2lkdGg9IjUyLjA2ODQ5NjcwNDEwMTU2IiB5PSIxNzgiIHg9IjAiIGNsYXNzPSJlciBhdHRyaWJ1dGVCb3hFdmVuIj48L3JlY3Q+PHRleHQgc3R5bGU9ImRvbWluYW50LWJhc2VsaW5lOiBtaWRkbGU7IGZvbnQtc2l6ZTogMTAuMnB4OyIgdHJhbnNmb3JtPSJ0cmFuc2xhdGUoNSwxODkpIiB5PSIwIiB4PSIwIiBpZD0idGV4dC1lbnRpdHktREFUT1NFTlJJUVVFQ0lET1MtYmY2ZjU5ZDctZDkxMC01ZTMzLWE5NDAtNWM3Y2ZhMjZmZDVhLWF0dHItOC10eXBlIiBjbGFzcz0iZXIgZW50aXR5TGFiZWwiPmludDwvdGV4dD48cmVjdCBoZWlnaHQ9IjIyIiB3aWR0aD0iMTMwLjU3NTQ4NTIyOTQ5MjIiIHk9IjE3OCIgeD0iNTIuMDY4NDk2NzA0MTAxNTYiIGNsYXNzPSJlciBhdHRyaWJ1dGVCb3hFdmVuIj48L3JlY3Q+PHRleHQgc3R5bGU9ImRvbWluYW50LWJhc2VsaW5lOiBtaWRkbGU7IGZvbnQtc2l6ZTogMTAuMnB4OyIgdHJhbnNmb3JtPSJ0cmFuc2xhdGUoNTcuMDY4NDk2NzA0MTAxNTYsMTg5KSIgeT0iMCIgeD0iMCIgaWQ9InRleHQtZW50aXR5LURBVE9TRU5SSVFVRUNJRE9TLWJmNmY1OWQ3LWQ5MTAtNWUzMy1hOTQwLTVjN2NmYTI2ZmQ1YS1hdHRyLTgtbmFtZSIgY2xhc3M9ImVyIGVudGl0eUxhYmVsIj5pbmNyZW1lbnRvX2ZhbGxlY2lkb3M8L3RleHQ+PHJlY3QgaGVpZ2h0PSIyMiIgd2lkdGg9IjUyLjA2ODQ5NjcwNDEwMTU2IiB5PSIyMDAiIHg9IjAiIGNsYXNzPSJlciBhdHRyaWJ1dGVCb3hPZGQiPjwvcmVjdD48dGV4dCBzdHlsZT0iZG9taW5hbnQtYmFzZWxpbmU6IG1pZGRsZTsgZm9udC1zaXplOiAxMC4ycHg7IiB0cmFuc2Zvcm09InRyYW5zbGF0ZSg1LDIxMSkiIHk9IjAiIHg9IjAiIGlkPSJ0ZXh0LWVudGl0eS1EQVRPU0VOUklRVUVDSURPUy1iZjZmNTlkNy1kOTEwLTVlMzMtYTk0MC01YzdjZmEyNmZkNWEtYXR0ci05LXR5cGUiIGNsYXNzPSJlciBlbnRpdHlMYWJlbCI+c3RyaW5nPC90ZXh0PjxyZWN0IGhlaWdodD0iMjIiIHdpZHRoPSIxMzAuNTc1NDg1MjI5NDkyMiIgeT0iMjAwIiB4PSI1Mi4wNjg0OTY3MDQxMDE1NiIgY2xhc3M9ImVyIGF0dHJpYnV0ZUJveE9kZCI+PC9yZWN0Pjx0ZXh0IHN0eWxlPSJkb21pbmFudC1iYXNlbGluZTogbWlkZGxlOyBmb250LXNpemU6IDEwLjJweDsiIHRyYW5zZm9ybT0idHJhbnNsYXRlKDU3LjA2ODQ5NjcwNDEwMTU2LDIxMSkiIHk9IjAiIHg9IjAiIGlkPSJ0ZXh0LWVudGl0eS1EQVRPU0VOUklRVUVDSURPUy1iZjZmNTlkNy1kOTEwLTVlMzMtYTk0MC01YzdjZmEyNmZkNWEtYXR0ci05LW5hbWUiIGNsYXNzPSJlciBlbnRpdHlMYWJlbCI+dWx0aW1hX21vZGlmaWNhY2lvbjwvdGV4dD48cmVjdCBoZWlnaHQ9IjIyIiB3aWR0aD0iNTIuMDY4NDk2NzA0MTAxNTYiIHk9IjIyMiIgeD0iMCIgY2xhc3M9ImVyIGF0dHJpYnV0ZUJveEV2ZW4iPjwvcmVjdD48dGV4dCBzdHlsZT0iZG9taW5hbnQtYmFzZWxpbmU6IG1pZGRsZTsgZm9udC1zaXplOiAxMC4ycHg7IiB0cmFuc2Zvcm09InRyYW5zbGF0ZSg1LDIzMykiIHk9IjAiIHg9IjAiIGlkPSJ0ZXh0LWVudGl0eS1EQVRPU0VOUklRVUVDSURPUy1iZjZmNTlkNy1kOTEwLTVlMzMtYTk0MC01YzdjZmEyNmZkNWEtYXR0ci0xMC10eXBlIiBjbGFzcz0iZXIgZW50aXR5TGFiZWwiPmludDwvdGV4dD48cmVjdCBoZWlnaHQ9IjIyIiB3aWR0aD0iMTMwLjU3NTQ4NTIyOTQ5MjIiIHk9IjIyMiIgeD0iNTIuMDY4NDk2NzA0MTAxNTYiIGNsYXNzPSJlciBhdHRyaWJ1dGVCb3hFdmVuIj48L3JlY3Q+PHRleHQgc3R5bGU9ImRvbWluYW50LWJhc2VsaW5lOiBtaWRkbGU7IGZvbnQtc2l6ZTogMTAuMnB4OyIgdHJhbnNmb3JtPSJ0cmFuc2xhdGUoNTcuMDY4NDk2NzA0MTAxNTYsMjMzKSIgeT0iMCIgeD0iMCIgaWQ9InRleHQtZW50aXR5LURBVE9TRU5SSVFVRUNJRE9TLWJmNmY1OWQ3LWQ5MTAtNWUzMy1hOTQwLTVjN2NmYTI2ZmQ1YS1hdHRyLTEwLW5hbWUiIGNsYXNzPSJlciBlbnRpdHlMYWJlbCI+YW5pb19hdWRpdG9yaWE8L3RleHQ+PHJlY3QgaGVpZ2h0PSIyMiIgd2lkdGg9IjUyLjA2ODQ5NjcwNDEwMTU2IiB5PSIyNDQiIHg9IjAiIGNsYXNzPSJlciBhdHRyaWJ1dGVCb3hPZGQiPjwvcmVjdD48dGV4dCBzdHlsZT0iZG9taW5hbnQtYmFzZWxpbmU6IG1pZGRsZTsgZm9udC1zaXplOiAxMC4ycHg7IiB0cmFuc2Zvcm09InRyYW5zbGF0ZSg1LDI1NSkiIHk9IjAiIHg9IjAiIGlkPSJ0ZXh0LWVudGl0eS1EQVRPU0VOUklRVUVDSURPUy1iZjZmNTlkNy1kOTEwLTVlMzMtYTk0MC01YzdjZmEyNmZkNWEtYXR0ci0xMS10eXBlIiBjbGFzcz0iZXIgZW50aXR5TGFiZWwiPmludDwvdGV4dD48cmVjdCBoZWlnaHQ9IjIyIiB3aWR0aD0iMTMwLjU3NTQ4NTIyOTQ5MjIiIHk9IjI0NCIgeD0iNTIuMDY4NDk2NzA0MTAxNTYiIGNsYXNzPSJlciBhdHRyaWJ1dGVCb3hPZGQiPjwvcmVjdD48dGV4dCBzdHlsZT0iZG9taW5hbnQtYmFzZWxpbmU6IG1pZGRsZTsgZm9udC1zaXplOiAxMC4ycHg7IiB0cmFuc2Zvcm09InRyYW5zbGF0ZSg1Ny4wNjg0OTY3MDQxMDE1NiwyNTUpIiB5PSIwIiB4PSIwIiBpZD0idGV4dC1lbnRpdHktREFUT1NFTlJJUVVFQ0lET1MtYmY2ZjU5ZDctZDkxMC01ZTMzLWE5NDAtNWM3Y2ZhMjZmZDVhLWF0dHItMTEtbmFtZSIgY2xhc3M9ImVyIGVudGl0eUxhYmVsIj5tZXNfYXVkaXRvcmlhPC90ZXh0PjxyZWN0IGhlaWdodD0iMjIiIHdpZHRoPSI1Mi4wNjg0OTY3MDQxMDE1NiIgeT0iMjY2IiB4PSIwIiBjbGFzcz0iZXIgYXR0cmlidXRlQm94RXZlbiI+PC9yZWN0Pjx0ZXh0IHN0eWxlPSJkb21pbmFudC1iYXNlbGluZTogbWlkZGxlOyBmb250LXNpemU6IDEwLjJweDsiIHRyYW5zZm9ybT0idHJhbnNsYXRlKDUsMjc3KSIgeT0iMCIgeD0iMCIgaWQ9InRleHQtZW50aXR5LURBVE9TRU5SSVFVRUNJRE9TLWJmNmY1OWQ3LWQ5MTAtNWUzMy1hOTQwLTVjN2NmYTI2ZmQ1YS1hdHRyLTEyLXR5cGUiIGNsYXNzPSJlciBlbnRpdHlMYWJlbCI+aW50PC90ZXh0PjxyZWN0IGhlaWdodD0iMjIiIHdpZHRoPSIxMzAuNTc1NDg1MjI5NDkyMiIgeT0iMjY2IiB4PSI1Mi4wNjg0OTY3MDQxMDE1NiIgY2xhc3M9ImVyIGF0dHJpYnV0ZUJveEV2ZW4iPjwvcmVjdD48dGV4dCBzdHlsZT0iZG9taW5hbnQtYmFzZWxpbmU6IG1pZGRsZTsgZm9udC1zaXplOiAxMC4ycHg7IiB0cmFuc2Zvcm09InRyYW5zbGF0ZSg1Ny4wNjg0OTY3MDQxMDE1NiwyNzcpIiB5PSIwIiB4PSIwIiBpZD0idGV4dC1lbnRpdHktREFUT1NFTlJJUVVFQ0lET1MtYmY2ZjU5ZDctZDkxMC01ZTMzLWE5NDAtNWM3Y2ZhMjZmZDVhLWF0dHItMTItbmFtZSIgY2xhc3M9ImVyIGVudGl0eUxhYmVsIj5kaWFfYXVkaXRvcmlhPC90ZXh0PjxyZWN0IGhlaWdodD0iMjIiIHdpZHRoPSI1Mi4wNjg0OTY3MDQxMDE1NiIgeT0iMjg4IiB4PSIwIiBjbGFzcz0iZXIgYXR0cmlidXRlQm94T2RkIj48L3JlY3Q+PHRleHQgc3R5bGU9ImRvbWluYW50LWJhc2VsaW5lOiBtaWRkbGU7IGZvbnQtc2l6ZTogMTAuMnB4OyIgdHJhbnNmb3JtPSJ0cmFuc2xhdGUoNSwyOTkpIiB5PSIwIiB4PSIwIiBpZD0idGV4dC1lbnRpdHktREFUT1NFTlJJUVVFQ0lET1MtYmY2ZjU5ZDctZDkxMC01ZTMzLWE5NDAtNWM3Y2ZhMjZmZDVhLWF0dHItMTMtdHlwZSIgY2xhc3M9ImVyIGVudGl0eUxhYmVsIj5kYXRldGltZTwvdGV4dD48cmVjdCBoZWlnaHQ9IjIyIiB3aWR0aD0iMTMwLjU3NTQ4NTIyOTQ5MjIiIHk9IjI4OCIgeD0iNTIuMDY4NDk2NzA0MTAxNTYiIGNsYXNzPSJlciBhdHRyaWJ1dGVCb3hPZGQiPjwvcmVjdD48dGV4dCBzdHlsZT0iZG9taW5hbnQtYmFzZWxpbmU6IG1pZGRsZTsgZm9udC1zaXplOiAxMC4ycHg7IiB0cmFuc2Zvcm09InRyYW5zbGF0ZSg1Ny4wNjg0OTY3MDQxMDE1NiwyOTkpIiB5PSIwIiB4PSIwIiBpZD0idGV4dC1lbnRpdHktREFUT1NFTlJJUVVFQ0lET1MtYmY2ZjU5ZDctZDkxMC01ZTMzLWE5NDAtNWM3Y2ZhMjZmZDVhLWF0dHItMTMtbmFtZSIgY2xhc3M9ImVyIGVudGl0eUxhYmVsIj5mZWNoYV9jb21wbGV0YV9hdWRpdG9yaWE8L3RleHQ+PHJlY3QgaGVpZ2h0PSIyMiIgd2lkdGg9IjUyLjA2ODQ5NjcwNDEwMTU2IiB5PSIzMTAiIHg9IjAiIGNsYXNzPSJlciBhdHRyaWJ1dGVCb3hFdmVuIj48L3JlY3Q+PHRleHQgc3R5bGU9ImRvbWluYW50LWJhc2VsaW5lOiBtaWRkbGU7IGZvbnQtc2l6ZTogMTAuMnB4OyIgdHJhbnNmb3JtPSJ0cmFuc2xhdGUoNSwzMjEpIiB5PSIwIiB4PSIwIiBpZD0idGV4dC1lbnRpdHktREFUT1NFTlJJUVVFQ0lET1MtYmY2ZjU5ZDctZDkxMC01ZTMzLWE5NDAtNWM3Y2ZhMjZmZDVhLWF0dHItMTQtdHlwZSIgY2xhc3M9ImVyIGVudGl0eUxhYmVsIj5mbG9hdDwvdGV4dD48cmVjdCBoZWlnaHQ9IjIyIiB3aWR0aD0iMTMwLjU3NTQ4NTIyOTQ5MjIiIHk9IjMxMCIgeD0iNTIuMDY4NDk2NzA0MTAxNTYiIGNsYXNzPSJlciBhdHRyaWJ1dGVCb3hFdmVuIj48L3JlY3Q+PHRleHQgc3R5bGU9ImRvbWluYW50LWJhc2VsaW5lOiBtaWRkbGU7IGZvbnQtc2l6ZTogMTAuMnB4OyIgdHJhbnNmb3JtPSJ0cmFuc2xhdGUoNTcuMDY4NDk2NzA0MTAxNTYsMzIxKSIgeT0iMCIgeD0iMCIgaWQ9InRleHQtZW50aXR5LURBVE9TRU5SSVFVRUNJRE9TLWJmNmY1OWQ3LWQ5MTAtNWUzMy1hOTQwLTVjN2NmYTI2ZmQ1YS1hdHRyLTE0LW5hbWUiIGNsYXNzPSJlciBlbnRpdHlMYWJlbCI+dGFzYV9wb3NpdGl2aWRhZDwvdGV4dD48cmVjdCBoZWlnaHQ9IjIyIiB3aWR0aD0iNTIuMDY4NDk2NzA0MTAxNTYiIHk9IjMzMiIgeD0iMCIgY2xhc3M9ImVyIGF0dHJpYnV0ZUJveE9kZCI+PC9yZWN0Pjx0ZXh0IHN0eWxlPSJkb21pbmFudC1iYXNlbGluZTogbWlkZGxlOyBmb250LXNpemU6IDEwLjJweDsiIHRyYW5zZm9ybT0idHJhbnNsYXRlKDUsMzQzKSIgeT0iMCIgeD0iMCIgaWQ9InRleHQtZW50aXR5LURBVE9TRU5SSVFVRUNJRE9TLWJmNmY1OWQ3LWQ5MTAtNWUzMy1hOTQwLTVjN2NmYTI2ZmQ1YS1hdHRyLTE1LXR5cGUiIGNsYXNzPSJlciBlbnRpdHlMYWJlbCI+ZmxvYXQ8L3RleHQ+PHJlY3QgaGVpZ2h0PSIyMiIgd2lkdGg9IjEzMC41NzU0ODUyMjk0OTIyIiB5PSIzMzIiIHg9IjUyLjA2ODQ5NjcwNDEwMTU2IiBjbGFzcz0iZXIgYXR0cmlidXRlQm94T2RkIj48L3JlY3Q+PHRleHQgc3R5bGU9ImRvbWluYW50LWJhc2VsaW5lOiBtaWRkbGU7IGZvbnQtc2l6ZTogMTAuMnB4OyIgdHJhbnNmb3JtPSJ0cmFuc2xhdGUoNTcuMDY4NDk2NzA0MTAxNTYsMzQzKSIgeT0iMCIgeD0iMCIgaWQ9InRleHQtZW50aXR5LURBVE9TRU5SSVFVRUNJRE9TLWJmNmY1OWQ3LWQ5MTAtNWUzMy1hOTQwLTVjN2NmYTI2ZmQ1YS1hdHRyLTE1LW5hbWUiIGNsYXNzPSJlciBlbnRpdHlMYWJlbCI+dGFzYV9tb3J0YWxpZGFkPC90ZXh0PjxyZWN0IGhlaWdodD0iMjIiIHdpZHRoPSI1Mi4wNjg0OTY3MDQxMDE1NiIgeT0iMzU0IiB4PSIwIiBjbGFzcz0iZXIgYXR0cmlidXRlQm94RXZlbiI+PC9yZWN0Pjx0ZXh0IHN0eWxlPSJkb21pbmFudC1iYXNlbGluZTogbWlkZGxlOyBmb250LXNpemU6IDEwLjJweDsiIHRyYW5zZm9ybT0idHJhbnNsYXRlKDUsMzY1KSIgeT0iMCIgeD0iMCIgaWQ9InRleHQtZW50aXR5LURBVE9TRU5SSVFVRUNJRE9TLWJmNmY1OWQ3LWQ5MTAtNWUzMy1hOTQwLTVjN2NmYTI2ZmQ1YS1hdHRyLTE2LXR5cGUiIGNsYXNzPSJlciBlbnRpdHlMYWJlbCI+c3RyaW5nPC90ZXh0PjxyZWN0IGhlaWdodD0iMjIiIHdpZHRoPSIxMzAuNTc1NDg1MjI5NDkyMiIgeT0iMzU0IiB4PSI1Mi4wNjg0OTY3MDQxMDE1NiIgY2xhc3M9ImVyIGF0dHJpYnV0ZUJveEV2ZW4iPjwvcmVjdD48dGV4dCBzdHlsZT0iZG9taW5hbnQtYmFzZWxpbmU6IG1pZGRsZTsgZm9udC1zaXplOiAxMC4ycHg7IiB0cmFuc2Zvcm09InRyYW5zbGF0ZSg1Ny4wNjg0OTY3MDQxMDE1NiwzNjUpIiB5PSIwIiB4PSIwIiBpZD0idGV4dC1lbnRpdHktREFUT1NFTlJJUVVFQ0lET1MtYmY2ZjU5ZDctZDkxMC01ZTMzLWE5NDAtNWM3Y2ZhMjZmZDVhLWF0dHItMTYtbmFtZSIgY2xhc3M9ImVyIGVudGl0eUxhYmVsIj5jcmltaW5hbGlkYWQ8L3RleHQ+PHJlY3QgaGVpZ2h0PSIyMiIgd2lkdGg9IjUyLjA2ODQ5NjcwNDEwMTU2IiB5PSIzNzYiIHg9IjAiIGNsYXNzPSJlciBhdHRyaWJ1dGVCb3hPZGQiPjwvcmVjdD48dGV4dCBzdHlsZT0iZG9taW5hbnQtYmFzZWxpbmU6IG1pZGRsZTsgZm9udC1zaXplOiAxMC4ycHg7IiB0cmFuc2Zvcm09InRyYW5zbGF0ZSg1LDM4NykiIHk9IjAiIHg9IjAiIGlkPSJ0ZXh0LWVudGl0eS1EQVRPU0VOUklRVUVDSURPUy1iZjZmNTlkNy1kOTEwLTVlMzMtYTk0MC01YzdjZmEyNmZkNWEtYXR0ci0xNy10eXBlIiBjbGFzcz0iZXIgZW50aXR5TGFiZWwiPmJvb2w8L3RleHQ+PHJlY3QgaGVpZ2h0PSIyMiIgd2lkdGg9IjEzMC41NzU0ODUyMjk0OTIyIiB5PSIzNzYiIHg9IjUyLjA2ODQ5NjcwNDEwMTU2IiBjbGFzcz0iZXIgYXR0cmlidXRlQm94T2RkIj48L3JlY3Q+PHRleHQgc3R5bGU9ImRvbWluYW50LWJhc2VsaW5lOiBtaWRkbGU7IGZvbnQtc2l6ZTogMTAuMnB4OyIgdHJhbnNmb3JtPSJ0cmFuc2xhdGUoNTcuMDY4NDk2NzA0MTAxNTYsMzg3KSIgeT0iMCIgeD0iMCIgaWQ9InRleHQtZW50aXR5LURBVE9TRU5SSVFVRUNJRE9TLWJmNmY1OWQ3LWQ5MTAtNWUzMy1hOTQwLTVjN2NmYTI2ZmQ1YS1hdHRyLTE3LW5hbWUiIGNsYXNzPSJlciBlbnRpdHlMYWJlbCI+ZXNfYXJjaGl2bzwvdGV4dD48cmVjdCBoZWlnaHQ9IjIyIiB3aWR0aD0iNTIuMDY4NDk2NzA0MTAxNTYiIHk9IjM5OCIgeD0iMCIgY2xhc3M9ImVyIGF0dHJpYnV0ZUJveEV2ZW4iPjwvcmVjdD48dGV4dCBzdHlsZT0iZG9taW5hbnQtYmFzZWxpbmU6IG1pZGRsZTsgZm9udC1zaXplOiAxMC4ycHg7IiB0cmFuc2Zvcm09InRyYW5zbGF0ZSg1LDQwOSkiIHk9IjAiIHg9IjAiIGlkPSJ0ZXh0LWVudGl0eS1EQVRPU0VOUklRVUVDSURPUy1iZjZmNTlkNy1kOTEwLTVlMzMtYTk0MC01YzdjZmEyNmZkNWEtYXR0ci0xOC10eXBlIiBjbGFzcz0iZXIgZW50aXR5TGFiZWwiPmJvb2w8L3RleHQ+PHJlY3QgaGVpZ2h0PSIyMiIgd2lkdGg9IjEzMC41NzU0ODUyMjk0OTIyIiB5PSIzOTgiIHg9IjUyLjA2ODQ5NjcwNDEwMTU2IiBjbGFzcz0iZXIgYXR0cmlidXRlQm94RXZlbiI+PC9yZWN0Pjx0ZXh0IHN0eWxlPSJkb21pbmFudC1iYXNlbGluZTogbWlkZGxlOyBmb250LXNpemU6IDEwLjJweDsiIHRyYW5zZm9ybT0idHJhbnNsYXRlKDU3LjA2ODQ5NjcwNDEwMTU2LDQwOSkiIHk9IjAiIHg9IjAiIGlkPSJ0ZXh0LWVudGl0eS1EQVRPU0VOUklRVUVDSURPUy1iZjZmNTlkNy1kOTEwLTVlMzMtYTk0MC01YzdjZmEyNmZkNWEtYXR0ci0xOC1uYW1lIiBjbGFzcz0iZXIgZW50aXR5TGFiZWwiPmVzX3ByZWNsdXNpb248L3RleHQ+PHJlY3QgaGVpZ2h0PSIyMiIgd2lkdGg9IjUyLjA2ODQ5NjcwNDEwMTU2IiB5PSI0MjAiIHg9IjAiIGNsYXNzPSJlciBhdHRyaWJ1dGVCb3hPZGQiPjwvcmVjdD48dGV4dCBzdHlsZT0iZG9taW5hbnQtYmFzZWxpbmU6IG1pZGRsZTsgZm9udC1zaXplOiAxMC4ycHg7IiB0cmFuc2Zvcm09InRyYW5zbGF0ZSg1LDQzMSkiIHk9IjAiIHg9IjAiIGlkPSJ0ZXh0LWVudGl0eS1EQVRPU0VOUklRVUVDSURPUy1iZjZmNTlkNy1kOTEwLTVlMzMtYTk0MC01YzdjZmEyNmZkNWEtYXR0ci0xOS10eXBlIiBjbGFzcz0iZXIgZW50aXR5TGFiZWwiPnN0cmluZzwvdGV4dD48cmVjdCBoZWlnaHQ9IjIyIiB3aWR0aD0iMTMwLjU3NTQ4NTIyOTQ5MjIiIHk9IjQyMCIgeD0iNTIuMDY4NDk2NzA0MTAxNTYiIGNsYXNzPSJlciBhdHRyaWJ1dGVCb3hPZGQiPjwvcmVjdD48dGV4dCBzdHlsZT0iZG9taW5hbnQtYmFzZWxpbmU6IG1pZGRsZTsgZm9udC1zaXplOiAxMC4ycHg7IiB0cmFuc2Zvcm09InRyYW5zbGF0ZSg1Ny4wNjg0OTY3MDQxMDE1Niw0MzEpIiB5PSIwIiB4PSIwIiBpZD0idGV4dC1lbnRpdHktREFUT1NFTlJJUVVFQ0lET1MtYmY2ZjU5ZDctZDkxMC01ZTMzLWE5NDAtNWM3Y2ZhMjZmZDVhLWF0dHItMTktbmFtZSIgY2xhc3M9ImVyIGVudGl0eUxhYmVsIj5lc3RhZG88L3RleHQ+PHJlY3QgaGVpZ2h0PSIyMiIgd2lkdGg9IjUyLjA2ODQ5NjcwNDEwMTU2IiB5PSI0NDIiIHg9IjAiIGNsYXNzPSJlciBhdHRyaWJ1dGVCb3hFdmVuIj48L3JlY3Q+PHRleHQgc3R5bGU9ImRvbWluYW50LWJhc2VsaW5lOiBtaWRkbGU7IGZvbnQtc2l6ZTogMTAuMnB4OyIgdHJhbnNmb3JtPSJ0cmFuc2xhdGUoNSw0NTMpIiB5PSIwIiB4PSIwIiBpZD0idGV4dC1lbnRpdHktREFUT1NFTlJJUVVFQ0lET1MtYmY2ZjU5ZDctZDkxMC01ZTMzLWE5NDAtNWM3Y2ZhMjZmZDVhLWF0dHItMjAtdHlwZSIgY2xhc3M9ImVyIGVudGl0eUxhYmVsIj5zdHJpbmc8L3RleHQ+PHJlY3QgaGVpZ2h0PSIyMiIgd2lkdGg9IjEzMC41NzU0ODUyMjk0OTIyIiB5PSI0NDIiIHg9IjUyLjA2ODQ5NjcwNDEwMTU2IiBjbGFzcz0iZXIgYXR0cmlidXRlQm94RXZlbiI+PC9yZWN0Pjx0ZXh0IHN0eWxlPSJkb21pbmFudC1iYXNlbGluZTogbWlkZGxlOyBmb250LXNpemU6IDEwLjJweDsiIHRyYW5zZm9ybT0idHJhbnNsYXRlKDU3LjA2ODQ5NjcwNDEwMTU2LDQ1MykiIHk9IjAiIHg9IjAiIGlkPSJ0ZXh0LWVudGl0eS1EQVRPU0VOUklRVUVDSURPUy1iZjZmNTlkNy1kOTEwLTVlMzMtYTk0MC01YzdjZmEyNmZkNWEtYXR0ci0yMC1uYW1lIiBjbGFzcz0iZXIgZW50aXR5TGFiZWwiPmV0YXBhX2Nhc288L3RleHQ+PHJlY3QgaGVpZ2h0PSIyMiIgd2lkdGg9IjUyLjA2ODQ5NjcwNDEwMTU2IiB5PSI0NjQiIHg9IjAiIGNsYXNzPSJlciBhdHRyaWJ1dGVCb3hPZGQiPjwvcmVjdD48dGV4dCBzdHlsZT0iZG9taW5hbnQtYmFzZWxpbmU6IG1pZGRsZTsgZm9udC1zaXplOiAxMC4ycHg7IiB0cmFuc2Zvcm09InRyYW5zbGF0ZSg1LDQ3NSkiIHk9IjAiIHg9IjAiIGlkPSJ0ZXh0LWVudGl0eS1EQVRPU0VOUklRVUVDSURPUy1iZjZmNTlkNy1kOTEwLTVlMzMtYTk0MC01YzdjZmEyNmZkNWEtYXR0ci0yMS10eXBlIiBjbGFzcz0iZXIgZW50aXR5TGFiZWwiPnN0cmluZzwvdGV4dD48cmVjdCBoZWlnaHQ9IjIyIiB3aWR0aD0iMTMwLjU3NTQ4NTIyOTQ5MjIiIHk9IjQ2NCIgeD0iNTIuMDY4NDk2NzA0MTAxNTYiIGNsYXNzPSJlciBhdHRyaWJ1dGVCb3hPZGQiPjwvcmVjdD48dGV4dCBzdHlsZT0iZG9taW5hbnQtYmFzZWxpbmU6IG1pZGRsZTsgZm9udC1zaXplOiAxMC4ycHg7IiB0cmFuc2Zvcm09InRyYW5zbGF0ZSg1Ny4wNjg0OTY3MDQxMDE1Niw0NzUpIiB5PSIwIiB4PSIwIiBpZD0idGV4dC1lbnRpdHktREFUT1NFTlJJUVVFQ0lET1MtYmY2ZjU5ZDctZDkxMC01ZTMzLWE5NDAtNWM3Y2ZhMjZmZDVhLWF0dHItMjEtbmFtZSIgY2xhc3M9ImVyIGVudGl0eUxhYmVsIj5sZXk8L3RleHQ+PHJlY3QgaGVpZ2h0PSIyMiIgd2lkdGg9IjUyLjA2ODQ5NjcwNDEwMTU2IiB5PSI0ODYiIHg9IjAiIGNsYXNzPSJlciBhdHRyaWJ1dGVCb3hFdmVuIj48L3JlY3Q+PHRleHQgc3R5bGU9ImRvbWluYW50LWJhc2VsaW5lOiBtaWRkbGU7IGZvbnQtc2l6ZTogMTAuMnB4OyIgdHJhbnNmb3JtPSJ0cmFuc2xhdGUoNSw0OTcpIiB5PSIwIiB4PSIwIiBpZD0idGV4dC1lbnRpdHktREFUT1NFTlJJUVVFQ0lET1MtYmY2ZjU5ZDctZDkxMC01ZTMzLWE5NDAtNWM3Y2ZhMjZmZDVhLWF0dHItMjItdHlwZSIgY2xhc3M9ImVyIGVudGl0eUxhYmVsIj5zdHJpbmc8L3RleHQ+PHJlY3QgaGVpZ2h0PSIyMiIgd2lkdGg9IjEzMC41NzU0ODUyMjk0OTIyIiB5PSI0ODYiIHg9IjUyLjA2ODQ5NjcwNDEwMTU2IiBjbGFzcz0iZXIgYXR0cmlidXRlQm94RXZlbiI+PC9yZWN0Pjx0ZXh0IHN0eWxlPSJkb21pbmFudC1iYXNlbGluZTogbWlkZGxlOyBmb250LXNpemU6IDEwLjJweDsiIHRyYW5zZm9ybT0idHJhbnNsYXRlKDU3LjA2ODQ5NjcwNDEwMTU2LDQ5NykiIHk9IjAiIHg9IjAiIGlkPSJ0ZXh0LWVudGl0eS1EQVRPU0VOUklRVUVDSURPUy1iZjZmNTlkNy1kOTEwLTVlMzMtYTk0MC01YzdjZmEyNmZkNWEtYXR0ci0yMi1uYW1lIiBjbGFzcz0iZXIgZW50aXR5TGFiZWwiPnBhaXNfaGVjaG88L3RleHQ+PHJlY3QgaGVpZ2h0PSIyMiIgd2lkdGg9IjUyLjA2ODQ5NjcwNDEwMTU2IiB5PSI1MDgiIHg9IjAiIGNsYXNzPSJlciBhdHRyaWJ1dGVCb3hPZGQiPjwvcmVjdD48dGV4dCBzdHlsZT0iZG9taW5hbnQtYmFzZWxpbmU6IG1pZGRsZTsgZm9udC1zaXplOiAxMC4ycHg7IiB0cmFuc2Zvcm09InRyYW5zbGF0ZSg1LDUxOSkiIHk9IjAiIHg9IjAiIGlkPSJ0ZXh0LWVudGl0eS1EQVRPU0VOUklRVUVDSURPUy1iZjZmNTlkNy1kOTEwLTVlMzMtYTk0MC01YzdjZmEyNmZkNWEtYXR0ci0yMy10eXBlIiBjbGFzcz0iZXIgZW50aXR5TGFiZWwiPnN0cmluZzwvdGV4dD48cmVjdCBoZWlnaHQ9IjIyIiB3aWR0aD0iMTMwLjU3NTQ4NTIyOTQ5MjIiIHk9IjUwOCIgeD0iNTIuMDY4NDk2NzA0MTAxNTYiIGNsYXNzPSJlciBhdHRyaWJ1dGVCb3hPZGQiPjwvcmVjdD48dGV4dCBzdHlsZT0iZG9taW5hbnQtYmFzZWxpbmU6IG1pZGRsZTsgZm9udC1zaXplOiAxMC4ycHg7IiB0cmFuc2Zvcm09InRyYW5zbGF0ZSg1Ny4wNjg0OTY3MDQxMDE1Niw1MTkpIiB5PSIwIiB4PSIwIiBpZD0idGV4dC1lbnRpdHktREFUT1NFTlJJUVVFQ0lET1MtYmY2ZjU5ZDctZDkxMC01ZTMzLWE5NDAtNWM3Y2ZhMjZmZDVhLWF0dHItMjMtbmFtZSIgY2xhc3M9ImVyIGVudGl0eUxhYmVsIj5kZXBhcnRhbWVudG9faGVjaG88L3RleHQ+PHJlY3QgaGVpZ2h0PSIyMiIgd2lkdGg9IjUyLjA2ODQ5NjcwNDEwMTU2IiB5PSI1MzAiIHg9IjAiIGNsYXNzPSJlciBhdHRyaWJ1dGVCb3hFdmVuIj48L3JlY3Q+PHRleHQgc3R5bGU9ImRvbWluYW50LWJhc2VsaW5lOiBtaWRkbGU7IGZvbnQtc2l6ZTogMTAuMnB4OyIgdHJhbnNmb3JtPSJ0cmFuc2xhdGUoNSw1NDEpIiB5PSIwIiB4PSIwIiBpZD0idGV4dC1lbnRpdHktREFUT1NFTlJJUVVFQ0lET1MtYmY2ZjU5ZDctZDkxMC01ZTMzLWE5NDAtNWM3Y2ZhMjZmZDVhLWF0dHItMjQtdHlwZSIgY2xhc3M9ImVyIGVudGl0eUxhYmVsIj5zdHJpbmc8L3RleHQ+PHJlY3QgaGVpZ2h0PSIyMiIgd2lkdGg9IjEzMC41NzU0ODUyMjk0OTIyIiB5PSI1MzAiIHg9IjUyLjA2ODQ5NjcwNDEwMTU2IiBjbGFzcz0iZXIgYXR0cmlidXRlQm94RXZlbiI+PC9yZWN0Pjx0ZXh0IHN0eWxlPSJkb21pbmFudC1iYXNlbGluZTogbWlkZGxlOyBmb250LXNpemU6IDEwLjJweDsiIHRyYW5zZm9ybT0idHJhbnNsYXRlKDU3LjA2ODQ5NjcwNDEwMTU2LDU0MSkiIHk9IjAiIHg9IjAiIGlkPSJ0ZXh0LWVudGl0eS1EQVRPU0VOUklRVUVDSURPUy1iZjZmNTlkNy1kOTEwLTVlMzMtYTk0MC01YzdjZmEyNmZkNWEtYXR0ci0yNC1uYW1lIiBjbGFzcz0iZXIgZW50aXR5TGFiZWwiPm11bmljaXBpbzwvdGV4dD48cmVjdCBoZWlnaHQ9IjIyIiB3aWR0aD0iNTIuMDY4NDk2NzA0MTAxNTYiIHk9IjU1MiIgeD0iMCIgY2xhc3M9ImVyIGF0dHJpYnV0ZUJveE9kZCI+PC9yZWN0Pjx0ZXh0IHN0eWxlPSJkb21pbmFudC1iYXNlbGluZTogbWlkZGxlOyBmb250LXNpemU6IDEwLjJweDsiIHRyYW5zZm9ybT0idHJhbnNsYXRlKDUsNTYzKSIgeT0iMCIgeD0iMCIgaWQ9InRleHQtZW50aXR5LURBVE9TRU5SSVFVRUNJRE9TLWJmNmY1OWQ3LWQ5MTAtNWUzMy1hOTQwLTVjN2NmYTI2ZmQ1YS1hdHRyLTI1LXR5cGUiIGNsYXNzPSJlciBlbnRpdHlMYWJlbCI+c3RyaW5nPC90ZXh0PjxyZWN0IGhlaWdodD0iMjIiIHdpZHRoPSIxMzAuNTc1NDg1MjI5NDkyMiIgeT0iNTUyIiB4PSI1Mi4wNjg0OTY3MDQxMDE1NiIgY2xhc3M9ImVyIGF0dHJpYnV0ZUJveE9kZCI+PC9yZWN0Pjx0ZXh0IHN0eWxlPSJkb21pbmFudC1iYXNlbGluZTogbWlkZGxlOyBmb250LXNpemU6IDEwLjJweDsiIHRyYW5zZm9ybT0idHJhbnNsYXRlKDU3LjA2ODQ5NjcwNDEwMTU2LDU2MykiIHk9IjAiIHg9IjAiIGlkPSJ0ZXh0LWVudGl0eS1EQVRPU0VOUklRVUVDSURPUy1iZjZmNTlkNy1kOTEwLTVlMzMtYTk0MC01YzdjZmEyNmZkNWEtYXR0ci0yNS1uYW1lIiBjbGFzcz0iZXIgZW50aXR5TGFiZWwiPnNlY2Npb25hbDwvdGV4dD48cmVjdCBoZWlnaHQ9IjIyIiB3aWR0aD0iNTIuMDY4NDk2NzA0MTAxNTYiIHk9IjU3NCIgeD0iMCIgY2xhc3M9ImVyIGF0dHJpYnV0ZUJveEV2ZW4iPjwvcmVjdD48dGV4dCBzdHlsZT0iZG9taW5hbnQtYmFzZWxpbmU6IG1pZGRsZTsgZm9udC1zaXplOiAxMC4ycHg7IiB0cmFuc2Zvcm09InRyYW5zbGF0ZSg1LDU4NSkiIHk9IjAiIHg9IjAiIGlkPSJ0ZXh0LWVudGl0eS1EQVRPU0VOUklRVUVDSURPUy1iZjZmNTlkNy1kOTEwLTVlMzMtYTk0MC01YzdjZmEyNmZkNWEtYXR0ci0yNi10eXBlIiBjbGFzcz0iZXIgZW50aXR5TGFiZWwiPmludDwvdGV4dD48cmVjdCBoZWlnaHQ9IjIyIiB3aWR0aD0iMTMwLjU3NTQ4NTIyOTQ5MjIiIHk9IjU3NCIgeD0iNTIuMDY4NDk2NzA0MTAxNTYiIGNsYXNzPSJlciBhdHRyaWJ1dGVCb3hFdmVuIj48L3JlY3Q+PHRleHQgc3R5bGU9ImRvbWluYW50LWJhc2VsaW5lOiBtaWRkbGU7IGZvbnQtc2l6ZTogMTAuMnB4OyIgdHJhbnNmb3JtPSJ0cmFuc2xhdGUoNTcuMDY4NDk2NzA0MTAxNTYsNTg1KSIgeT0iMCIgeD0iMCIgaWQ9InRleHQtZW50aXR5LURBVE9TRU5SSVFVRUNJRE9TLWJmNmY1OWQ3LWQ5MTAtNWUzMy1hOTQwLTVjN2NmYTI2ZmQ1YS1hdHRyLTI2LW5hbWUiIGNsYXNzPSJlciBlbnRpdHlMYWJlbCI+YV9vX2hlY2hvczwvdGV4dD48cmVjdCBoZWlnaHQ9IjIyIiB3aWR0aD0iNTIuMDY4NDk2NzA0MTAxNTYiIHk9IjU5NiIgeD0iMCIgY2xhc3M9ImVyIGF0dHJpYnV0ZUJveE9kZCI+PC9yZWN0Pjx0ZXh0IHN0eWxlPSJkb21pbmFudC1iYXNlbGluZTogbWlkZGxlOyBmb250LXNpemU6IDEwLjJweDsiIHRyYW5zZm9ybT0idHJhbnNsYXRlKDUsNjA3KSIgeT0iMCIgeD0iMCIgaWQ9InRleHQtZW50aXR5LURBVE9TRU5SSVFVRUNJRE9TLWJmNmY1OWQ3LWQ5MTAtNWUzMy1hOTQwLTVjN2NmYTI2ZmQ1YS1hdHRyLTI3LXR5cGUiIGNsYXNzPSJlciBlbnRpdHlMYWJlbCI+aW50PC90ZXh0PjxyZWN0IGhlaWdodD0iMjIiIHdpZHRoPSIxMzAuNTc1NDg1MjI5NDkyMiIgeT0iNTk2IiB4PSI1Mi4wNjg0OTY3MDQxMDE1NiIgY2xhc3M9ImVyIGF0dHJpYnV0ZUJveE9kZCI+PC9yZWN0Pjx0ZXh0IHN0eWxlPSJkb21pbmFudC1iYXNlbGluZTogbWlkZGxlOyBmb250LXNpemU6IDEwLjJweDsiIHRyYW5zZm9ybT0idHJhbnNsYXRlKDU3LjA2ODQ5NjcwNDEwMTU2LDYwNykiIHk9IjAiIHg9IjAiIGlkPSJ0ZXh0LWVudGl0eS1EQVRPU0VOUklRVUVDSURPUy1iZjZmNTlkNy1kOTEwLTVlMzMtYTk0MC01YzdjZmEyNmZkNWEtYXR0ci0yNy1uYW1lIiBjbGFzcz0iZXIgZW50aXR5TGFiZWwiPmFfb19lbnRyYWRhPC90ZXh0PjxyZWN0IGhlaWdodD0iMjIiIHdpZHRoPSI1Mi4wNjg0OTY3MDQxMDE1NiIgeT0iNjE4IiB4PSIwIiBjbGFzcz0iZXIgYXR0cmlidXRlQm94RXZlbiI+PC9yZWN0Pjx0ZXh0IHN0eWxlPSJkb21pbmFudC1iYXNlbGluZTogbWlkZGxlOyBmb250LXNpemU6IDEwLjJweDsiIHRyYW5zZm9ybT0idHJhbnNsYXRlKDUsNjI5KSIgeT0iMCIgeD0iMCIgaWQ9InRleHQtZW50aXR5LURBVE9TRU5SSVFVRUNJRE9TLWJmNmY1OWQ3LWQ5MTAtNWUzMy1hOTQwLTVjN2NmYTI2ZmQ1YS1hdHRyLTI4LXR5cGUiIGNsYXNzPSJlciBlbnRpdHlMYWJlbCI+aW50PC90ZXh0PjxyZWN0IGhlaWdodD0iMjIiIHdpZHRoPSIxMzAuNTc1NDg1MjI5NDkyMiIgeT0iNjE4IiB4PSI1Mi4wNjg0OTY3MDQxMDE1NiIgY2xhc3M9ImVyIGF0dHJpYnV0ZUJveEV2ZW4iPjwvcmVjdD48dGV4dCBzdHlsZT0iZG9taW5hbnQtYmFzZWxpbmU6IG1pZGRsZTsgZm9udC1zaXplOiAxMC4ycHg7IiB0cmFuc2Zvcm09InRyYW5zbGF0ZSg1Ny4wNjg0OTY3MDQxMDE1Niw2MjkpIiB5PSIwIiB4PSIwIiBpZD0idGV4dC1lbnRpdHktREFUT1NFTlJJUVVFQ0lET1MtYmY2ZjU5ZDctZDkxMC01ZTMzLWE5NDAtNWM3Y2ZhMjZmZDVhLWF0dHItMjgtbmFtZSIgY2xhc3M9ImVyIGVudGl0eUxhYmVsIj5hX29fZGVudW5jaWE8L3RleHQ+PHJlY3QgaGVpZ2h0PSIyMiIgd2lkdGg9IjUyLjA2ODQ5NjcwNDEwMTU2IiB5PSI2NDAiIHg9IjAiIGNsYXNzPSJlciBhdHRyaWJ1dGVCb3hPZGQiPjwvcmVjdD48dGV4dCBzdHlsZT0iZG9taW5hbnQtYmFzZWxpbmU6IG1pZGRsZTsgZm9udC1zaXplOiAxMC4ycHg7IiB0cmFuc2Zvcm09InRyYW5zbGF0ZSg1LDY1MSkiIHk9IjAiIHg9IjAiIGlkPSJ0ZXh0LWVudGl0eS1EQVRPU0VOUklRVUVDSURPUy1iZjZmNTlkNy1kOTEwLTVlMzMtYTk0MC01YzdjZmEyNmZkNWEtYXR0ci0yOS10eXBlIiBjbGFzcz0iZXIgZW50aXR5TGFiZWwiPnN0cmluZzwvdGV4dD48cmVjdCBoZWlnaHQ9IjIyIiB3aWR0aD0iMTMwLjU3NTQ4NTIyOTQ5MjIiIHk9IjY0MCIgeD0iNTIuMDY4NDk2NzA0MTAxNTYiIGNsYXNzPSJlciBhdHRyaWJ1dGVCb3hPZGQiPjwvcmVjdD48dGV4dCBzdHlsZT0iZG9taW5hbnQtYmFzZWxpbmU6IG1pZGRsZTsgZm9udC1zaXplOiAxMC4ycHg7IiB0cmFuc2Zvcm09InRyYW5zbGF0ZSg1Ny4wNjg0OTY3MDQxMDE1Niw2NTEpIiB5PSIwIiB4PSIwIiBpZD0idGV4dC1lbnRpdHktREFUT1NFTlJJUVVFQ0lET1MtYmY2ZjU5ZDctZDkxMC01ZTMzLWE5NDAtNWM3Y2ZhMjZmZDVhLWF0dHItMjktbmFtZSIgY2xhc3M9ImVyIGVudGl0eUxhYmVsIj5kZWxpdG88L3RleHQ+PHJlY3QgaGVpZ2h0PSIyMiIgd2lkdGg9IjUyLjA2ODQ5NjcwNDEwMTU2IiB5PSI2NjIiIHg9IjAiIGNsYXNzPSJlciBhdHRyaWJ1dGVCb3hFdmVuIj48L3JlY3Q+PHRleHQgc3R5bGU9ImRvbWluYW50LWJhc2VsaW5lOiBtaWRkbGU7IGZvbnQtc2l6ZTogMTAuMnB4OyIgdHJhbnNmb3JtPSJ0cmFuc2xhdGUoNSw2NzMpIiB5PSIwIiB4PSIwIiBpZD0idGV4dC1lbnRpdHktREFUT1NFTlJJUVVFQ0lET1MtYmY2ZjU5ZDctZDkxMC01ZTMzLWE5NDAtNWM3Y2ZhMjZmZDVhLWF0dHItMzAtdHlwZSIgY2xhc3M9ImVyIGVudGl0eUxhYmVsIj5zdHJpbmc8L3RleHQ+PHJlY3QgaGVpZ2h0PSIyMiIgd2lkdGg9IjEzMC41NzU0ODUyMjk0OTIyIiB5PSI2NjIiIHg9IjUyLjA2ODQ5NjcwNDEwMTU2IiBjbGFzcz0iZXIgYXR0cmlidXRlQm94RXZlbiI+PC9yZWN0Pjx0ZXh0IHN0eWxlPSJkb21pbmFudC1iYXNlbGluZTogbWlkZGxlOyBmb250LXNpemU6IDEwLjJweDsiIHRyYW5zZm9ybT0idHJhbnNsYXRlKDU3LjA2ODQ5NjcwNDEwMTU2LDY3MykiIHk9IjAiIHg9IjAiIGlkPSJ0ZXh0LWVudGl0eS1EQVRPU0VOUklRVUVDSURPUy1iZjZmNTlkNy1kOTEwLTVlMzMtYTk0MC01YzdjZmEyNmZkNWEtYXR0ci0zMC1uYW1lIiBjbGFzcz0iZXIgZW50aXR5TGFiZWwiPmdydXBvX2RlbGl0bzwvdGV4dD48cmVjdCBoZWlnaHQ9IjIyIiB3aWR0aD0iNTIuMDY4NDk2NzA0MTAxNTYiIHk9IjY4NCIgeD0iMCIgY2xhc3M9ImVyIGF0dHJpYnV0ZUJveE9kZCI+PC9yZWN0Pjx0ZXh0IHN0eWxlPSJkb21pbmFudC1iYXNlbGluZTogbWlkZGxlOyBmb250LXNpemU6IDEwLjJweDsiIHRyYW5zZm9ybT0idHJhbnNsYXRlKDUsNjk1KSIgeT0iMCIgeD0iMCIgaWQ9InRleHQtZW50aXR5LURBVE9TRU5SSVFVRUNJRE9TLWJmNmY1OWQ3LWQ5MTAtNWUzMy1hOTQwLTVjN2NmYTI2ZmQ1YS1hdHRyLTMxLXR5cGUiIGNsYXNzPSJlciBlbnRpdHlMYWJlbCI+Ym9vbDwvdGV4dD48cmVjdCBoZWlnaHQ9IjIyIiB3aWR0aD0iMTMwLjU3NTQ4NTIyOTQ5MjIiIHk9IjY4NCIgeD0iNTIuMDY4NDk2NzA0MTAxNTYiIGNsYXNzPSJlciBhdHRyaWJ1dGVCb3hPZGQiPjwvcmVjdD48dGV4dCBzdHlsZT0iZG9taW5hbnQtYmFzZWxpbmU6IG1pZGRsZTsgZm9udC1zaXplOiAxMC4ycHg7IiB0cmFuc2Zvcm09InRyYW5zbGF0ZSg1Ny4wNjg0OTY3MDQxMDE1Niw2OTUpIiB5PSIwIiB4PSIwIiBpZD0idGV4dC1lbnRpdHktREFUT1NFTlJJUVVFQ0lET1MtYmY2ZjU5ZDctZDkxMC01ZTMzLWE5NDAtNWM3Y2ZhMjZmZDVhLWF0dHItMzEtbmFtZSIgY2xhc3M9ImVyIGVudGl0eUxhYmVsIj5jb25zdW1hZG88L3RleHQ+PHJlY3QgaGVpZ2h0PSIyMiIgd2lkdGg9IjUyLjA2ODQ5NjcwNDEwMTU2IiB5PSI3MDYiIHg9IjAiIGNsYXNzPSJlciBhdHRyaWJ1dGVCb3hFdmVuIj48L3JlY3Q+PHRleHQgc3R5bGU9ImRvbWluYW50LWJhc2VsaW5lOiBtaWRkbGU7IGZvbnQtc2l6ZTogMTAuMnB4OyIgdHJhbnNmb3JtPSJ0cmFuc2xhdGUoNSw3MTcpIiB5PSIwIiB4PSIwIiBpZD0idGV4dC1lbnRpdHktREFUT1NFTlJJUVVFQ0lET1MtYmY2ZjU5ZDctZDkxMC01ZTMzLWE5NDAtNWM3Y2ZhMjZmZDVhLWF0dHItMzItdHlwZSIgY2xhc3M9ImVyIGVudGl0eUxhYmVsIj5pbnQ8L3RleHQ+PHJlY3QgaGVpZ2h0PSIyMiIgd2lkdGg9IjEzMC41NzU0ODUyMjk0OTIyIiB5PSI3MDYiIHg9IjUyLjA2ODQ5NjcwNDEwMTU2IiBjbGFzcz0iZXIgYXR0cmlidXRlQm94RXZlbiI+PC9yZWN0Pjx0ZXh0IHN0eWxlPSJkb21pbmFudC1iYXNlbGluZTogbWlkZGxlOyBmb250LXNpemU6IDEwLjJweDsiIHRyYW5zZm9ybT0idHJhbnNsYXRlKDU3LjA2ODQ5NjcwNDEwMTU2LDcxNykiIHk9IjAiIHg9IjAiIGlkPSJ0ZXh0LWVudGl0eS1EQVRPU0VOUklRVUVDSURPUy1iZjZmNTlkNy1kOTEwLTVlMzMtYTk0MC01YzdjZmEyNmZkNWEtYXR0ci0zMi1uYW1lIiBjbGFzcz0iZXIgZW50aXR5TGFiZWwiPnRvdGFsX3Byb2Nlc29zPC90ZXh0PjxyZWN0IGhlaWdodD0iMjIiIHdpZHRoPSI1Mi4wNjg0OTY3MDQxMDE1NiIgeT0iNzI4IiB4PSIwIiBjbGFzcz0iZXIgYXR0cmlidXRlQm94T2RkIj48L3JlY3Q+PHRleHQgc3R5bGU9ImRvbWluYW50LWJhc2VsaW5lOiBtaWRkbGU7IGZvbnQtc2l6ZTogMTAuMnB4OyIgdHJhbnNmb3JtPSJ0cmFuc2xhdGUoNSw3MzkpIiB5PSIwIiB4PSIwIiBpZD0idGV4dC1lbnRpdHktREFUT1NFTlJJUVVFQ0lET1MtYmY2ZjU5ZDctZDkxMC01ZTMzLWE5NDAtNWM3Y2ZhMjZmZDVhLWF0dHItMzMtdHlwZSIgY2xhc3M9ImVyIGVudGl0eUxhYmVsIj5pbnQ8L3RleHQ+PHJlY3QgaGVpZ2h0PSIyMiIgd2lkdGg9IjEzMC41NzU0ODUyMjk0OTIyIiB5PSI3MjgiIHg9IjUyLjA2ODQ5NjcwNDEwMTU2IiBjbGFzcz0iZXIgYXR0cmlidXRlQm94T2RkIj48L3JlY3Q+PHRleHQgc3R5bGU9ImRvbWluYW50LWJhc2VsaW5lOiBtaWRkbGU7IGZvbnQtc2l6ZTogMTAuMnB4OyIgdHJhbnNmb3JtPSJ0cmFuc2xhdGUoNTcuMDY4NDk2NzA0MTAxNTYsNzM5KSIgeT0iMCIgeD0iMCIgaWQ9InRleHQtZW50aXR5LURBVE9TRU5SSVFVRUNJRE9TLWJmNmY1OWQ3LWQ5MTAtNWUzMy1hOTQwLTVjN2NmYTI2ZmQ1YS1hdHRyLTMzLW5hbWUiIGNsYXNzPSJlciBlbnRpdHlMYWJlbCI+YW5pbzwvdGV4dD48cmVjdCBoZWlnaHQ9IjIyIiB3aWR0aD0iNTIuMDY4NDk2NzA0MTAxNTYiIHk9Ijc1MCIgeD0iMCIgY2xhc3M9ImVyIGF0dHJpYnV0ZUJveEV2ZW4iPjwvcmVjdD48dGV4dCBzdHlsZT0iZG9taW5hbnQtYmFzZWxpbmU6IG1pZGRsZTsgZm9udC1zaXplOiAxMC4ycHg7IiB0cmFuc2Zvcm09InRyYW5zbGF0ZSg1LDc2MSkiIHk9IjAiIHg9IjAiIGlkPSJ0ZXh0LWVudGl0eS1EQVRPU0VOUklRVUVDSURPUy1iZjZmNTlkNy1kOTEwLTVlMzMtYTk0MC01YzdjZmEyNmZkNWEtYXR0ci0zNC10eXBlIiBjbGFzcz0iZXIgZW50aXR5TGFiZWwiPnN0cmluZzwvdGV4dD48cmVjdCBoZWlnaHQ9IjIyIiB3aWR0aD0iMTMwLjU3NTQ4NTIyOTQ5MjIiIHk9Ijc1MCIgeD0iNTIuMDY4NDk2NzA0MTAxNTYiIGNsYXNzPSJlciBhdHRyaWJ1dGVCb3hFdmVuIj48L3JlY3Q+PHRleHQgc3R5bGU9ImRvbWluYW50LWJhc2VsaW5lOiBtaWRkbGU7IGZvbnQtc2l6ZTogMTAuMnB4OyIgdHJhbnNmb3JtPSJ0cmFuc2xhdGUoNTcuMDY4NDk2NzA0MTAxNTYsNzYxKSIgeT0iMCIgeD0iMCIgaWQ9InRleHQtZW50aXR5LURBVE9TRU5SSVFVRUNJRE9TLWJmNmY1OWQ3LWQ5MTAtNWUzMy1hOTQwLTVjN2NmYTI2ZmQ1YS1hdHRyLTM0LW5hbWUiIGNsYXNzPSJlciBlbnRpdHlMYWJlbCI+c3VicmVnaW9uPC90ZXh0PjxyZWN0IGhlaWdodD0iMjIiIHdpZHRoPSI1Mi4wNjg0OTY3MDQxMDE1NiIgeT0iNzcyIiB4PSIwIiBjbGFzcz0iZXIgYXR0cmlidXRlQm94T2RkIj48L3JlY3Q+PHRleHQgc3R5bGU9ImRvbWluYW50LWJhc2VsaW5lOiBtaWRkbGU7IGZvbnQtc2l6ZTogMTAuMnB4OyIgdHJhbnNmb3JtPSJ0cmFuc2xhdGUoNSw3ODMpIiB5PSIwIiB4PSIwIiBpZD0idGV4dC1lbnRpdHktREFUT1NFTlJJUVVFQ0lET1MtYmY2ZjU5ZDctZDkxMC01ZTMzLWE5NDAtNWM3Y2ZhMjZmZDVhLWF0dHItMzUtdHlwZSIgY2xhc3M9ImVyIGVudGl0eUxhYmVsIj5zdHJpbmc8L3RleHQ+PHJlY3QgaGVpZ2h0PSIyMiIgd2lkdGg9IjEzMC41NzU0ODUyMjk0OTIyIiB5PSI3NzIiIHg9IjUyLjA2ODQ5NjcwNDEwMTU2IiBjbGFzcz0iZXIgYXR0cmlidXRlQm94T2RkIj48L3JlY3Q+PHRleHQgc3R5bGU9ImRvbWluYW50LWJhc2VsaW5lOiBtaWRkbGU7IGZvbnQtc2l6ZTogMTAuMnB4OyIgdHJhbnNmb3JtPSJ0cmFuc2xhdGUoNTcuMDY4NDk2NzA0MTAxNTYsNzgzKSIgeT0iMCIgeD0iMCIgaWQ9InRleHQtZW50aXR5LURBVE9TRU5SSVFVRUNJRE9TLWJmNmY1OWQ3LWQ5MTAtNWUzMy1hOTQwLTVjN2NmYTI2ZmQ1YS1hdHRyLTM1LW5hbWUiIGNsYXNzPSJlciBlbnRpdHlMYWJlbCI+cnVicm88L3RleHQ+PHJlY3QgaGVpZ2h0PSIyMiIgd2lkdGg9IjUyLjA2ODQ5NjcwNDEwMTU2IiB5PSI3OTQiIHg9IjAiIGNsYXNzPSJlciBhdHRyaWJ1dGVCb3hFdmVuIj48L3JlY3Q+PHRleHQgc3R5bGU9ImRvbWluYW50LWJhc2VsaW5lOiBtaWRkbGU7IGZvbnQtc2l6ZTogMTAuMnB4OyIgdHJhbnNmb3JtPSJ0cmFuc2xhdGUoNSw4MDUpIiB5PSIwIiB4PSIwIiBpZD0idGV4dC1lbnRpdHktREFUT1NFTlJJUVVFQ0lET1MtYmY2ZjU5ZDctZDkxMC01ZTMzLWE5NDAtNWM3Y2ZhMjZmZDVhLWF0dHItMzYtdHlwZSIgY2xhc3M9ImVyIGVudGl0eUxhYmVsIj5pbnQ8L3RleHQ+PHJlY3QgaGVpZ2h0PSIyMiIgd2lkdGg9IjEzMC41NzU0ODUyMjk0OTIyIiB5PSI3OTQiIHg9IjUyLjA2ODQ5NjcwNDEwMTU2IiBjbGFzcz0iZXIgYXR0cmlidXRlQm94RXZlbiI+PC9yZWN0Pjx0ZXh0IHN0eWxlPSJkb21pbmFudC1iYXNlbGluZTogbWlkZGxlOyBmb250LXNpemU6IDEwLjJweDsiIHRyYW5zZm9ybT0idHJhbnNsYXRlKDU3LjA2ODQ5NjcwNDEwMTU2LDgwNSkiIHk9IjAiIHg9IjAiIGlkPSJ0ZXh0LWVudGl0eS1EQVRPU0VOUklRVUVDSURPUy1iZjZmNTlkNy1kOTEwLTVlMzMtYTk0MC01YzdjZmEyNmZkNWEtYXR0ci0zNi1uYW1lIiBjbGFzcz0iZXIgZW50aXR5TGFiZWwiPmJvdmlub3NfY3JpYV9tYWNobzwvdGV4dD48cmVjdCBoZWlnaHQ9IjIyIiB3aWR0aD0iNTIuMDY4NDk2NzA0MTAxNTYiIHk9IjgxNiIgeD0iMCIgY2xhc3M9ImVyIGF0dHJpYnV0ZUJveE9kZCI+PC9yZWN0Pjx0ZXh0IHN0eWxlPSJkb21pbmFudC1iYXNlbGluZTogbWlkZGxlOyBmb250LXNpemU6IDEwLjJweDsiIHRyYW5zZm9ybT0idHJhbnNsYXRlKDUsODI3KSIgeT0iMCIgeD0iMCIgaWQ9InRleHQtZW50aXR5LURBVE9TRU5SSVFVRUNJRE9TLWJmNmY1OWQ3LWQ5MTAtNWUzMy1hOTQwLTVjN2NmYTI2ZmQ1YS1hdHRyLTM3LXR5cGUiIGNsYXNzPSJlciBlbnRpdHlMYWJlbCI+aW50PC90ZXh0PjxyZWN0IGhlaWdodD0iMjIiIHdpZHRoPSIxMzAuNTc1NDg1MjI5NDkyMiIgeT0iODE2IiB4PSI1Mi4wNjg0OTY3MDQxMDE1NiIgY2xhc3M9ImVyIGF0dHJpYnV0ZUJveE9kZCI+PC9yZWN0Pjx0ZXh0IHN0eWxlPSJkb21pbmFudC1iYXNlbGluZTogbWlkZGxlOyBmb250LXNpemU6IDEwLjJweDsiIHRyYW5zZm9ybT0idHJhbnNsYXRlKDU3LjA2ODQ5NjcwNDEwMTU2LDgyNykiIHk9IjAiIHg9IjAiIGlkPSJ0ZXh0LWVudGl0eS1EQVRPU0VOUklRVUVDSURPUy1iZjZmNTlkNy1kOTEwLTVlMzMtYTk0MC01YzdjZmEyNmZkNWEtYXR0ci0zNy1uYW1lIiBjbGFzcz0iZXIgZW50aXR5TGFiZWwiPmJvdmlub3Nfbm92aWxsb19sZXZhbnRlPC90ZXh0PjxyZWN0IGhlaWdodD0iMjIiIHdpZHRoPSI1Mi4wNjg0OTY3MDQxMDE1NiIgeT0iODM4IiB4PSIwIiBjbGFzcz0iZXIgYXR0cmlidXRlQm94RXZlbiI+PC9yZWN0Pjx0ZXh0IHN0eWxlPSJkb21pbmFudC1iYXNlbGluZTogbWlkZGxlOyBmb250LXNpemU6IDEwLjJweDsiIHRyYW5zZm9ybT0idHJhbnNsYXRlKDUsODQ5KSIgeT0iMCIgeD0iMCIgaWQ9InRleHQtZW50aXR5LURBVE9TRU5SSVFVRUNJRE9TLWJmNmY1OWQ3LWQ5MTAtNWUzMy1hOTQwLTVjN2NmYTI2ZmQ1YS1hdHRyLTM4LXR5cGUiIGNsYXNzPSJlciBlbnRpdHlMYWJlbCI+aW50PC90ZXh0PjxyZWN0IGhlaWdodD0iMjIiIHdpZHRoPSIxMzAuNTc1NDg1MjI5NDkyMiIgeT0iODM4IiB4PSI1Mi4wNjg0OTY3MDQxMDE1NiIgY2xhc3M9ImVyIGF0dHJpYnV0ZUJveEV2ZW4iPjwvcmVjdD48dGV4dCBzdHlsZT0iZG9taW5hbnQtYmFzZWxpbmU6IG1pZGRsZTsgZm9udC1zaXplOiAxMC4ycHg7IiB0cmFuc2Zvcm09InRyYW5zbGF0ZSg1Ny4wNjg0OTY3MDQxMDE1Niw4NDkpIiB5PSIwIiB4PSIwIiBpZD0idGV4dC1lbnRpdHktREFUT1NFTlJJUVVFQ0lET1MtYmY2ZjU5ZDctZDkxMC01ZTMzLWE5NDAtNWM3Y2ZhMjZmZDVhLWF0dHItMzgtbmFtZSIgY2xhc3M9ImVyIGVudGl0eUxhYmVsIj5ib3Zpbm9zX25vdmlsbG9fY2ViYTwvdGV4dD48cmVjdCBoZWlnaHQ9IjIyIiB3aWR0aD0iNTIuMDY4NDk2NzA0MTAxNTYiIHk9Ijg2MCIgeD0iMCIgY2xhc3M9ImVyIGF0dHJpYnV0ZUJveE9kZCI+PC9yZWN0Pjx0ZXh0IHN0eWxlPSJkb21pbmFudC1iYXNlbGluZTogbWlkZGxlOyBmb250LXNpemU6IDEwLjJweDsiIHRyYW5zZm9ybT0idHJhbnNsYXRlKDUsODcxKSIgeT0iMCIgeD0iMCIgaWQ9InRleHQtZW50aXR5LURBVE9TRU5SSVFVRUNJRE9TLWJmNmY1OWQ3LWQ5MTAtNWUzMy1hOTQwLTVjN2NmYTI2ZmQ1YS1hdHRyLTM5LXR5cGUiIGNsYXNzPSJlciBlbnRpdHlMYWJlbCI+aW50PC90ZXh0PjxyZWN0IGhlaWdodD0iMjIiIHdpZHRoPSIxMzAuNTc1NDg1MjI5NDkyMiIgeT0iODYwIiB4PSI1Mi4wNjg0OTY3MDQxMDE1NiIgY2xhc3M9ImVyIGF0dHJpYnV0ZUJveE9kZCI+PC9yZWN0Pjx0ZXh0IHN0eWxlPSJkb21pbmFudC1iYXNlbGluZTogbWlkZGxlOyBmb250LXNpemU6IDEwLjJweDsiIHRyYW5zZm9ybT0idHJhbnNsYXRlKDU3LjA2ODQ5NjcwNDEwMTU2LDg3MSkiIHk9IjAiIHg9IjAiIGlkPSJ0ZXh0LWVudGl0eS1EQVRPU0VOUklRVUVDSURPUy1iZjZmNTlkNy1kOTEwLTVlMzMtYTk0MC01YzdjZmEyNmZkNWEtYXR0ci0zOS1uYW1lIiBjbGFzcz0iZXIgZW50aXR5TGFiZWwiPmJvdmlub3NfdG9yb3M8L3RleHQ+PHJlY3QgaGVpZ2h0PSIyMiIgd2lkdGg9IjUyLjA2ODQ5NjcwNDEwMTU2IiB5PSI4ODIiIHg9IjAiIGNsYXNzPSJlciBhdHRyaWJ1dGVCb3hFdmVuIj48L3JlY3Q+PHRleHQgc3R5bGU9ImRvbWluYW50LWJhc2VsaW5lOiBtaWRkbGU7IGZvbnQtc2l6ZTogMTAuMnB4OyIgdHJhbnNmb3JtPSJ0cmFuc2xhdGUoNSw4OTMpIiB5PSIwIiB4PSIwIiBpZD0idGV4dC1lbnRpdHktREFUT1NFTlJJUVVFQ0lET1MtYmY2ZjU5ZDctZDkxMC01ZTMzLWE5NDAtNWM3Y2ZhMjZmZDVhLWF0dHItNDAtdHlwZSIgY2xhc3M9ImVyIGVudGl0eUxhYmVsIj5pbnQ8L3RleHQ+PHJlY3QgaGVpZ2h0PSIyMiIgd2lkdGg9IjEzMC41NzU0ODUyMjk0OTIyIiB5PSI4ODIiIHg9IjUyLjA2ODQ5NjcwNDEwMTU2IiBjbGFzcz0iZXIgYXR0cmlidXRlQm94RXZlbiI+PC9yZWN0Pjx0ZXh0IHN0eWxlPSJkb21pbmFudC1iYXNlbGluZTogbWlkZGxlOyBmb250LXNpemU6IDEwLjJweDsiIHRyYW5zZm9ybT0idHJhbnNsYXRlKDU3LjA2ODQ5NjcwNDEwMTU2LDg5MykiIHk9IjAiIHg9IjAiIGlkPSJ0ZXh0LWVudGl0eS1EQVRPU0VOUklRVUVDSURPUy1iZjZmNTlkNy1kOTEwLTVlMzMtYTk0MC01YzdjZmEyNmZkNWEtYXR0ci00MC1uYW1lIiBjbGFzcz0iZXIgZW50aXR5TGFiZWwiPnRvdGFsX21hY2hvczwvdGV4dD48cmVjdCBoZWlnaHQ9IjIyIiB3aWR0aD0iNTIuMDY4NDk2NzA0MTAxNTYiIHk9IjkwNCIgeD0iMCIgY2xhc3M9ImVyIGF0dHJpYnV0ZUJveE9kZCI+PC9yZWN0Pjx0ZXh0IHN0eWxlPSJkb21pbmFudC1iYXNlbGluZTogbWlkZGxlOyBmb250LXNpemU6IDEwLjJweDsiIHRyYW5zZm9ybT0idHJhbnNsYXRlKDUsOTE1KSIgeT0iMCIgeD0iMCIgaWQ9InRleHQtZW50aXR5LURBVE9TRU5SSVFVRUNJRE9TLWJmNmY1OWQ3LWQ5MTAtNWUzMy1hOTQwLTVjN2NmYTI2ZmQ1YS1hdHRyLTQxLXR5cGUiIGNsYXNzPSJlciBlbnRpdHlMYWJlbCI+aW50PC90ZXh0PjxyZWN0IGhlaWdodD0iMjIiIHdpZHRoPSIxMzAuNTc1NDg1MjI5NDkyMiIgeT0iOTA0IiB4PSI1Mi4wNjg0OTY3MDQxMDE1NiIgY2xhc3M9ImVyIGF0dHJpYnV0ZUJveE9kZCI+PC9yZWN0Pjx0ZXh0IHN0eWxlPSJkb21pbmFudC1iYXNlbGluZTogbWlkZGxlOyBmb250LXNpemU6IDEwLjJweDsiIHRyYW5zZm9ybT0idHJhbnNsYXRlKDU3LjA2ODQ5NjcwNDEwMTU2LDkxNSkiIHk9IjAiIHg9IjAiIGlkPSJ0ZXh0LWVudGl0eS1EQVRPU0VOUklRVUVDSURPUy1iZjZmNTlkNy1kOTEwLTVlMzMtYTk0MC01YzdjZmEyNmZkNWEtYXR0ci00MS1uYW1lIiBjbGFzcz0iZXIgZW50aXR5TGFiZWwiPmJvdmlub3NfY3JpYV9oZW1icmE8L3RleHQ+PHJlY3QgaGVpZ2h0PSIyMiIgd2lkdGg9IjUyLjA2ODQ5NjcwNDEwMTU2IiB5PSI5MjYiIHg9IjAiIGNsYXNzPSJlciBhdHRyaWJ1dGVCb3hFdmVuIj48L3JlY3Q+PHRleHQgc3R5bGU9ImRvbWluYW50LWJhc2VsaW5lOiBtaWRkbGU7IGZvbnQtc2l6ZTogMTAuMnB4OyIgdHJhbnNmb3JtPSJ0cmFuc2xhdGUoNSw5MzcpIiB5PSIwIiB4PSIwIiBpZD0idGV4dC1lbnRpdHktREFUT1NFTlJJUVVFQ0lET1MtYmY2ZjU5ZDctZDkxMC01ZTMzLWE5NDAtNWM3Y2ZhMjZmZDVhLWF0dHItNDItdHlwZSIgY2xhc3M9ImVyIGVudGl0eUxhYmVsIj5pbnQ8L3RleHQ+PHJlY3QgaGVpZ2h0PSIyMiIgd2lkdGg9IjEzMC41NzU0ODUyMjk0OTIyIiB5PSI5MjYiIHg9IjUyLjA2ODQ5NjcwNDEwMTU2IiBjbGFzcz0iZXIgYXR0cmlidXRlQm94RXZlbiI+PC9yZWN0Pjx0ZXh0IHN0eWxlPSJkb21pbmFudC1iYXNlbGluZTogbWlkZGxlOyBmb250LXNpemU6IDEwLjJweDsiIHRyYW5zZm9ybT0idHJhbnNsYXRlKDU3LjA2ODQ5NjcwNDEwMTU2LDkzNykiIHk9IjAiIHg9IjAiIGlkPSJ0ZXh0LWVudGl0eS1EQVRPU0VOUklRVUVDSURPUy1iZjZmNTlkNy1kOTEwLTVlMzMtYTk0MC01YzdjZmEyNmZkNWEtYXR0ci00Mi1uYW1lIiBjbGFzcz0iZXIgZW50aXR5TGFiZWwiPmJvdmlub3Nfbm92aWxsYV9sZXZhbnRlPC90ZXh0PjxyZWN0IGhlaWdodD0iMjIiIHdpZHRoPSI1Mi4wNjg0OTY3MDQxMDE1NiIgeT0iOTQ4IiB4PSIwIiBjbGFzcz0iZXIgYXR0cmlidXRlQm94T2RkIj48L3JlY3Q+PHRleHQgc3R5bGU9ImRvbWluYW50LWJhc2VsaW5lOiBtaWRkbGU7IGZvbnQtc2l6ZTogMTAuMnB4OyIgdHJhbnNmb3JtPSJ0cmFuc2xhdGUoNSw5NTkpIiB5PSIwIiB4PSIwIiBpZD0idGV4dC1lbnRpdHktREFUT1NFTlJJUVVFQ0lET1MtYmY2ZjU5ZDctZDkxMC01ZTMzLWE5NDAtNWM3Y2ZhMjZmZDVhLWF0dHItNDMtdHlwZSIgY2xhc3M9ImVyIGVudGl0eUxhYmVsIj5pbnQ8L3RleHQ+PHJlY3QgaGVpZ2h0PSIyMiIgd2lkdGg9IjEzMC41NzU0ODUyMjk0OTIyIiB5PSI5NDgiIHg9IjUyLjA2ODQ5NjcwNDEwMTU2IiBjbGFzcz0iZXIgYXR0cmlidXRlQm94T2RkIj48L3JlY3Q+PHRleHQgc3R5bGU9ImRvbWluYW50LWJhc2VsaW5lOiBtaWRkbGU7IGZvbnQtc2l6ZTogMTAuMnB4OyIgdHJhbnNmb3JtPSJ0cmFuc2xhdGUoNTcuMDY4NDk2NzA0MTAxNTYsOTU5KSIgeT0iMCIgeD0iMCIgaWQ9InRleHQtZW50aXR5LURBVE9TRU5SSVFVRUNJRE9TLWJmNmY1OWQ3LWQ5MTAtNWUzMy1hOTQwLTVjN2NmYTI2ZmQ1YS1hdHRyLTQzLW5hbWUiIGNsYXNzPSJlciBlbnRpdHlMYWJlbCI+Ym92aW5vc19ub3ZpbGxhX3ZpZW50cmU8L3RleHQ+PHJlY3QgaGVpZ2h0PSIyMiIgd2lkdGg9IjUyLjA2ODQ5NjcwNDEwMTU2IiB5PSI5NzAiIHg9IjAiIGNsYXNzPSJlciBhdHRyaWJ1dGVCb3hFdmVuIj48L3JlY3Q+PHRleHQgc3R5bGU9ImRvbWluYW50LWJhc2VsaW5lOiBtaWRkbGU7IGZvbnQtc2l6ZTogMTAuMnB4OyIgdHJhbnNmb3JtPSJ0cmFuc2xhdGUoNSw5ODEpIiB5PSIwIiB4PSIwIiBpZD0idGV4dC1lbnRpdHktREFUT1NFTlJJUVVFQ0lET1MtYmY2ZjU5ZDctZDkxMC01ZTMzLWE5NDAtNWM3Y2ZhMjZmZDVhLWF0dHItNDQtdHlwZSIgY2xhc3M9ImVyIGVudGl0eUxhYmVsIj5pbnQ8L3RleHQ+PHJlY3QgaGVpZ2h0PSIyMiIgd2lkdGg9IjEzMC41NzU0ODUyMjk0OTIyIiB5PSI5NzAiIHg9IjUyLjA2ODQ5NjcwNDEwMTU2IiBjbGFzcz0iZXIgYXR0cmlidXRlQm94RXZlbiI+PC9yZWN0Pjx0ZXh0IHN0eWxlPSJkb21pbmFudC1iYXNlbGluZTogbWlkZGxlOyBmb250LXNpemU6IDEwLjJweDsiIHRyYW5zZm9ybT0idHJhbnNsYXRlKDU3LjA2ODQ5NjcwNDEwMTU2LDk4MSkiIHk9IjAiIHg9IjAiIGlkPSJ0ZXh0LWVudGl0eS1EQVRPU0VOUklRVUVDSURPUy1iZjZmNTlkNy1kOTEwLTVlMzMtYTk0MC01YzdjZmEyNmZkNWEtYXR0ci00NC1uYW1lIiBjbGFzcz0iZXIgZW50aXR5TGFiZWwiPmJvdmlub3NfdmFjYTwvdGV4dD48cmVjdCBoZWlnaHQ9IjIyIiB3aWR0aD0iNTIuMDY4NDk2NzA0MTAxNTYiIHk9Ijk5MiIgeD0iMCIgY2xhc3M9ImVyIGF0dHJpYnV0ZUJveE9kZCI+PC9yZWN0Pjx0ZXh0IHN0eWxlPSJkb21pbmFudC1iYXNlbGluZTogbWlkZGxlOyBmb250LXNpemU6IDEwLjJweDsiIHRyYW5zZm9ybT0idHJhbnNsYXRlKDUsMTAwMykiIHk9IjAiIHg9IjAiIGlkPSJ0ZXh0LWVudGl0eS1EQVRPU0VOUklRVUVDSURPUy1iZjZmNTlkNy1kOTEwLTVlMzMtYTk0MC01YzdjZmEyNmZkNWEtYXR0ci00NS10eXBlIiBjbGFzcz0iZXIgZW50aXR5TGFiZWwiPmludDwvdGV4dD48cmVjdCBoZWlnaHQ9IjIyIiB3aWR0aD0iMTMwLjU3NTQ4NTIyOTQ5MjIiIHk9Ijk5MiIgeD0iNTIuMDY4NDk2NzA0MTAxNTYiIGNsYXNzPSJlciBhdHRyaWJ1dGVCb3hPZGQiPjwvcmVjdD48dGV4dCBzdHlsZT0iZG9taW5hbnQtYmFzZWxpbmU6IG1pZGRsZTsgZm9udC1zaXplOiAxMC4ycHg7IiB0cmFuc2Zvcm09InRyYW5zbGF0ZSg1Ny4wNjg0OTY3MDQxMDE1NiwxMDAzKSIgeT0iMCIgeD0iMCIgaWQ9InRleHQtZW50aXR5LURBVE9TRU5SSVFVRUNJRE9TLWJmNmY1OWQ3LWQ5MTAtNWUzMy1hOTQwLTVjN2NmYTI2ZmQ1YS1hdHRyLTQ1LW5hbWUiIGNsYXNzPSJlciBlbnRpdHlMYWJlbCI+dG90YWxfaGVtYnJhczwvdGV4dD48cmVjdCBoZWlnaHQ9IjIyIiB3aWR0aD0iNTIuMDY4NDk2NzA0MTAxNTYiIHk9IjEwMTQiIHg9IjAiIGNsYXNzPSJlciBhdHRyaWJ1dGVCb3hFdmVuIj48L3JlY3Q+PHRleHQgc3R5bGU9ImRvbWluYW50LWJhc2VsaW5lOiBtaWRkbGU7IGZvbnQtc2l6ZTogMTAuMnB4OyIgdHJhbnNmb3JtPSJ0cmFuc2xhdGUoNSwxMDI1KSIgeT0iMCIgeD0iMCIgaWQ9InRleHQtZW50aXR5LURBVE9TRU5SSVFVRUNJRE9TLWJmNmY1OWQ3LWQ5MTAtNWUzMy1hOTQwLTVjN2NmYTI2ZmQ1YS1hdHRyLTQ2LXR5cGUiIGNsYXNzPSJlciBlbnRpdHlMYWJlbCI+aW50PC90ZXh0PjxyZWN0IGhlaWdodD0iMjIiIHdpZHRoPSIxMzAuNTc1NDg1MjI5NDkyMiIgeT0iMTAxNCIgeD0iNTIuMDY4NDk2NzA0MTAxNTYiIGNsYXNzPSJlciBhdHRyaWJ1dGVCb3hFdmVuIj48L3JlY3Q+PHRleHQgc3R5bGU9ImRvbWluYW50LWJhc2VsaW5lOiBtaWRkbGU7IGZvbnQtc2l6ZTogMTAuMnB4OyIgdHJhbnNmb3JtPSJ0cmFuc2xhdGUoNTcuMDY4NDk2NzA0MTAxNTYsMTAyNSkiIHk9IjAiIHg9IjAiIGlkPSJ0ZXh0LWVudGl0eS1EQVRPU0VOUklRVUVDSURPUy1iZjZmNTlkNy1kOTEwLTVlMzMtYTk0MC01YzdjZmEyNmZkNWEtYXR0ci00Ni1uYW1lIiBjbGFzcz0iZXIgZW50aXR5TGFiZWwiPnRvdGFsX2Jvdmlub3M8L3RleHQ+PHJlY3QgaGVpZ2h0PSIyMiIgd2lkdGg9IjUyLjA2ODQ5NjcwNDEwMTU2IiB5PSIxMDM2IiB4PSIwIiBjbGFzcz0iZXIgYXR0cmlidXRlQm94T2RkIj48L3JlY3Q+PHRleHQgc3R5bGU9ImRvbWluYW50LWJhc2VsaW5lOiBtaWRkbGU7IGZvbnQtc2l6ZTogMTAuMnB4OyIgdHJhbnNmb3JtPSJ0cmFuc2xhdGUoNSwxMDQ3KSIgeT0iMCIgeD0iMCIgaWQ9InRleHQtZW50aXR5LURBVE9TRU5SSVFVRUNJRE9TLWJmNmY1OWQ3LWQ5MTAtNWUzMy1hOTQwLTVjN2NmYTI2ZmQ1YS1hdHRyLTQ3LXR5cGUiIGNsYXNzPSJlciBlbnRpdHlMYWJlbCI+ZmxvYXQ8L3RleHQ+PHJlY3QgaGVpZ2h0PSIyMiIgd2lkdGg9IjEzMC41NzU0ODUyMjk0OTIyIiB5PSIxMDM2IiB4PSI1Mi4wNjg0OTY3MDQxMDE1NiIgY2xhc3M9ImVyIGF0dHJpYnV0ZUJveE9kZCI+PC9yZWN0Pjx0ZXh0IHN0eWxlPSJkb21pbmFudC1iYXNlbGluZTogbWlkZGxlOyBmb250LXNpemU6IDEwLjJweDsiIHRyYW5zZm9ybT0idHJhbnNsYXRlKDU3LjA2ODQ5NjcwNDEwMTU2LDEwNDcpIiB5PSIwIiB4PSIwIiBpZD0idGV4dC1lbnRpdHktREFUT1NFTlJJUVVFQ0lET1MtYmY2ZjU5ZDctZDkxMC01ZTMzLWE5NDAtNWM3Y2ZhMjZmZDVhLWF0dHItNDctbmFtZSIgY2xhc3M9ImVyIGVudGl0eUxhYmVsIj50b3RhbF9wYXN0b3M8L3RleHQ+PHJlY3QgaGVpZ2h0PSIyMiIgd2lkdGg9IjUyLjA2ODQ5NjcwNDEwMTU2IiB5PSIxMDU4IiB4PSIwIiBjbGFzcz0iZXIgYXR0cmlidXRlQm94RXZlbiI+PC9yZWN0Pjx0ZXh0IHN0eWxlPSJkb21pbmFudC1iYXNlbGluZTogbWlkZGxlOyBmb250LXNpemU6IDEwLjJweDsiIHRyYW5zZm9ybT0idHJhbnNsYXRlKDUsMTA2OSkiIHk9IjAiIHg9IjAiIGlkPSJ0ZXh0LWVudGl0eS1EQVRPU0VOUklRVUVDSURPUy1iZjZmNTlkNy1kOTEwLTVlMzMtYTk0MC01YzdjZmEyNmZkNWEtYXR0ci00OC10eXBlIiBjbGFzcz0iZXIgZW50aXR5TGFiZWwiPmZsb2F0PC90ZXh0PjxyZWN0IGhlaWdodD0iMjIiIHdpZHRoPSIxMzAuNTc1NDg1MjI5NDkyMiIgeT0iMTA1OCIgeD0iNTIuMDY4NDk2NzA0MTAxNTYiIGNsYXNzPSJlciBhdHRyaWJ1dGVCb3hFdmVuIj48L3JlY3Q+PHRleHQgc3R5bGU9ImRvbWluYW50LWJhc2VsaW5lOiBtaWRkbGU7IGZvbnQtc2l6ZTogMTAuMnB4OyIgdHJhbnNmb3JtPSJ0cmFuc2xhdGUoNTcuMDY4NDk2NzA0MTAxNTYsMTA2OSkiIHk9IjAiIHg9IjAiIGlkPSJ0ZXh0LWVudGl0eS1EQVRPU0VOUklRVUVDSURPUy1iZjZmNTlkNy1kOTEwLTVlMzMtYTk0MC01YzdjZmEyNmZkNWEtYXR0ci00OC1uYW1lIiBjbGFzcz0iZXIgZW50aXR5TGFiZWwiPnBhc3RvX2NvcnRlPC90ZXh0PjxyZWN0IGhlaWdodD0iMjIiIHdpZHRoPSI1Mi4wNjg0OTY3MDQxMDE1NiIgeT0iMTA4MCIgeD0iMCIgY2xhc3M9ImVyIGF0dHJpYnV0ZUJveE9kZCI+PC9yZWN0Pjx0ZXh0IHN0eWxlPSJkb21pbmFudC1iYXNlbGluZTogbWlkZGxlOyBmb250LXNpemU6IDEwLjJweDsiIHRyYW5zZm9ybT0idHJhbnNsYXRlKDUsMTA5MSkiIHk9IjAiIHg9IjAiIGlkPSJ0ZXh0LWVudGl0eS1EQVRPU0VOUklRVUVDSURPUy1iZjZmNTlkNy1kOTEwLTVlMzMtYTk0MC01YzdjZmEyNmZkNWEtYXR0ci00OS10eXBlIiBjbGFzcz0iZXIgZW50aXR5TGFiZWwiPmZsb2F0PC90ZXh0PjxyZWN0IGhlaWdodD0iMjIiIHdpZHRoPSIxMzAuNTc1NDg1MjI5NDkyMiIgeT0iMTA4MCIgeD0iNTIuMDY4NDk2NzA0MTAxNTYiIGNsYXNzPSJlciBhdHRyaWJ1dGVCb3hPZGQiPjwvcmVjdD48dGV4dCBzdHlsZT0iZG9taW5hbnQtYmFzZWxpbmU6IG1pZGRsZTsgZm9udC1zaXplOiAxMC4ycHg7IiB0cmFuc2Zvcm09InRyYW5zbGF0ZSg1Ny4wNjg0OTY3MDQxMDE1NiwxMDkxKSIgeT0iMCIgeD0iMCIgaWQ9InRleHQtZW50aXR5LURBVE9TRU5SSVFVRUNJRE9TLWJmNmY1OWQ3LWQ5MTAtNWUzMy1hOTQwLTVjN2NmYTI2ZmQ1YS1hdHRyLTQ5LW5hbWUiIGNsYXNzPSJlciBlbnRpdHlMYWJlbCI+cGFzdG9fbmF0dXJhbDwvdGV4dD48cmVjdCBoZWlnaHQ9IjIyIiB3aWR0aD0iNTIuMDY4NDk2NzA0MTAxNTYiIHk9IjExMDIiIHg9IjAiIGNsYXNzPSJlciBhdHRyaWJ1dGVCb3hFdmVuIj48L3JlY3Q+PHRleHQgc3R5bGU9ImRvbWluYW50LWJhc2VsaW5lOiBtaWRkbGU7IGZvbnQtc2l6ZTogMTAuMnB4OyIgdHJhbnNmb3JtPSJ0cmFuc2xhdGUoNSwxMTEzKSIgeT0iMCIgeD0iMCIgaWQ9InRleHQtZW50aXR5LURBVE9TRU5SSVFVRUNJRE9TLWJmNmY1OWQ3LWQ5MTAtNWUzMy1hOTQwLTVjN2NmYTI2ZmQ1YS1hdHRyLTUwLXR5cGUiIGNsYXNzPSJlciBlbnRpdHlMYWJlbCI+ZmxvYXQ8L3RleHQ+PHJlY3QgaGVpZ2h0PSIyMiIgd2lkdGg9IjEzMC41NzU0ODUyMjk0OTIyIiB5PSIxMTAyIiB4PSI1Mi4wNjg0OTY3MDQxMDE1NiIgY2xhc3M9ImVyIGF0dHJpYnV0ZUJveEV2ZW4iPjwvcmVjdD48dGV4dCBzdHlsZT0iZG9taW5hbnQtYmFzZWxpbmU6IG1pZGRsZTsgZm9udC1zaXplOiAxMC4ycHg7IiB0cmFuc2Zvcm09InRyYW5zbGF0ZSg1Ny4wNjg0OTY3MDQxMDE1NiwxMTEzKSIgeT0iMCIgeD0iMCIgaWQ9InRleHQtZW50aXR5LURBVE9TRU5SSVFVRUNJRE9TLWJmNmY1OWQ3LWQ5MTAtNWUzMy1hOTQwLTVjN2NmYTI2ZmQ1YS1hdHRyLTUwLW5hbWUiIGNsYXNzPSJlciBlbnRpdHlMYWJlbCI+cGFzdG9fbWVqb3JhZG88L3RleHQ+PC9nPjxyZWN0IGhlaWdodD0iMTQiIHdpZHRoPSIzOC44NTE1NjI1IiB5PSI2NDguNjE2NzYwMjUzOTA2MiIgeD0iMTY2LjQ1NTM2ODA0MTk5MjIiIGNsYXNzPSJlciByZWxhdGlvbnNoaXBMYWJlbEJveCI+PC9yZWN0Pjx0ZXh0IHN0eWxlPSJ0ZXh0LWFuY2hvcjogbWlkZGxlOyBkb21pbmFudC1iYXNlbGluZTogbWlkZGxlOyBmb250LXNpemU6IDEycHg7IiB5PSI2NTUuNjE2NzYwMjUzOTA2MiIgeD0iMTg1Ljg4MTE0OTI5MTk5MjIiIGlkPSJyZWwxIiBjbGFzcz0iZXIgcmVsYXRpb25zaGlwTGFiZWwiPkluY2x1eWU8L3RleHQ+PHJlY3QgaGVpZ2h0PSIxNCIgd2lkdGg9IjM4Ljg1MTU2MjUiIHk9IjQ3Ny41IiB4PSIzNjIuMjI5MjE3NTI5Mjk2OSIgY2xhc3M9ImVyIHJlbGF0aW9uc2hpcExhYmVsQm94Ij48L3JlY3Q+PHRleHQgc3R5bGU9InRleHQtYW5jaG9yOiBtaWRkbGU7IGRvbWluYW50LWJhc2VsaW5lOiBtaWRkbGU7IGZvbnQtc2l6ZTogMTJweDsiIHk9IjQ4NC41IiB4PSIzODEuNjU0OTk4Nzc5Mjk2OSIgaWQ9InJlbDIiIGNsYXNzPSJlciByZWxhdGlvbnNoaXBMYWJlbCI+SW5jbHV5ZTwvdGV4dD48cmVjdCBoZWlnaHQ9IjE0IiB3aWR0aD0iMzguODUxNTYyNSIgeT0iNjU4LjAzMDA5MDMzMjAzMTIiIHg9IjU0NS4yNzU2OTU4MDA3ODEyIiBjbGFzcz0iZXIgcmVsYXRpb25zaGlwTGFiZWxCb3giPjwvcmVjdD48dGV4dCBzdHlsZT0idGV4dC1hbmNob3I6IG1pZGRsZTsgZG9taW5hbnQtYmFzZWxpbmU6IG1pZGRsZTsgZm9udC1zaXplOiAxMnB4OyIgeT0iNjY1LjAzMDA5MDMzMjAzMTIiIHg9IjU2NC43MDE0NzcwNTA3ODEyIiBpZD0icmVsMyIgY2xhc3M9ImVyIHJlbGF0aW9uc2hpcExhYmVsIj5JbmNsdXllPC90ZXh0Pjwvc3ZnPg==;" parent="1" vertex="1">
                        <mxGeometry x="-260" y="-1200" width="737.2018432617188" height="1684" as="geometry"/>
                    </mxCell>
                </UserObject>
            </root>
        </mxGraphModel>
    </diagram>
</mxfile>